<?xml version="1.0" encoding="utf-8"?>
<svg xmlns="http://www.w3.org/2000/svg" xmlns:xlink="http://www.w3.org/1999/xlink" width="550" height="380" viewBox="0 0 2200 1520">
<defs>
  <clipPath id="clip370">
    <rect x="0" y="0" width="2200" height="1520"/>
  </clipPath>
</defs>
<path clip-path="url(#clip370)" d="
M0 1520 L2200 1520 L2200 0 L0 0  Z
  " fill="#ffffff" fill-rule="evenodd" fill-opacity="1"/>
<defs>
  <clipPath id="clip371">
    <rect x="440" y="0" width="1541" height="1520"/>
  </clipPath>
</defs>
<path clip-path="url(#clip370)" d="
M487.442 1289.11 L2121.26 1289.11 L2121.26 157.167 L487.442 157.167  Z
  " fill="#ffffff" fill-rule="evenodd" fill-opacity="1"/>
<defs>
  <clipPath id="clip372">
    <rect x="487" y="157" width="1635" height="1133"/>
  </clipPath>
</defs>
<polyline clip-path="url(#clip372)" style="stroke:#000000; stroke-linecap:round; stroke-linejoin:round; stroke-width:2; stroke-opacity:0.1; fill:none" points="
  661.802,1289.11 661.802,157.167 
  "/>
<polyline clip-path="url(#clip372)" style="stroke:#000000; stroke-linecap:round; stroke-linejoin:round; stroke-width:2; stroke-opacity:0.1; fill:none" points="
  972.592,1289.11 972.592,157.167 
  "/>
<polyline clip-path="url(#clip372)" style="stroke:#000000; stroke-linecap:round; stroke-linejoin:round; stroke-width:2; stroke-opacity:0.1; fill:none" points="
  1283.38,1289.11 1283.38,157.167 
  "/>
<polyline clip-path="url(#clip372)" style="stroke:#000000; stroke-linecap:round; stroke-linejoin:round; stroke-width:2; stroke-opacity:0.1; fill:none" points="
  1594.17,1289.11 1594.17,157.167 
  "/>
<polyline clip-path="url(#clip372)" style="stroke:#000000; stroke-linecap:round; stroke-linejoin:round; stroke-width:2; stroke-opacity:0.1; fill:none" points="
  1904.96,1289.11 1904.96,157.167 
  "/>
<polyline clip-path="url(#clip370)" style="stroke:#000000; stroke-linecap:round; stroke-linejoin:round; stroke-width:4; stroke-opacity:1; fill:none" points="
  487.442,1289.11 2121.26,1289.11 
  "/>
<polyline clip-path="url(#clip370)" style="stroke:#000000; stroke-linecap:round; stroke-linejoin:round; stroke-width:4; stroke-opacity:1; fill:none" points="
  661.802,1289.11 661.802,1270.21 
  "/>
<polyline clip-path="url(#clip370)" style="stroke:#000000; stroke-linecap:round; stroke-linejoin:round; stroke-width:4; stroke-opacity:1; fill:none" points="
  972.592,1289.11 972.592,1270.21 
  "/>
<polyline clip-path="url(#clip370)" style="stroke:#000000; stroke-linecap:round; stroke-linejoin:round; stroke-width:4; stroke-opacity:1; fill:none" points="
  1283.38,1289.11 1283.38,1270.21 
  "/>
<polyline clip-path="url(#clip370)" style="stroke:#000000; stroke-linecap:round; stroke-linejoin:round; stroke-width:4; stroke-opacity:1; fill:none" points="
  1594.17,1289.11 1594.17,1270.21 
  "/>
<polyline clip-path="url(#clip370)" style="stroke:#000000; stroke-linecap:round; stroke-linejoin:round; stroke-width:4; stroke-opacity:1; fill:none" points="
  1904.96,1289.11 1904.96,1270.21 
  "/>
<path clip-path="url(#clip370)" d="M528.079 1375.37 L537.627 1375.37 L537.627 1342.41 L527.239 1344.49 L527.239 1339.17 L537.569 1337.08 L543.414 1337.08 L543.414 1375.37 L552.963 1375.37 L552.963 1380.28 L528.079 1380.28 L528.079 1375.37 Z" fill="#000000" fill-rule="evenodd" fill-opacity="1" /><path clip-path="url(#clip370)" d="M564.768 1372.94 L570.873 1372.94 L570.873 1380.28 L564.768 1380.28 L564.768 1372.94 Z" fill="#000000" fill-rule="evenodd" fill-opacity="1" /><path clip-path="url(#clip370)" d="M588.64 1375.37 L609.039 1375.37 L609.039 1380.28 L581.608 1380.28 L581.608 1375.37 Q584.936 1371.92 590.665 1366.14 Q596.423 1360.32 597.899 1358.64 Q600.705 1355.49 601.805 1353.32 Q602.933 1351.12 602.933 1349.01 Q602.933 1345.56 600.503 1343.39 Q598.101 1341.22 594.224 1341.22 Q591.475 1341.22 588.408 1342.18 Q585.37 1343.13 581.898 1345.07 L581.898 1339.17 Q585.428 1337.75 588.495 1337.03 Q591.562 1336.3 594.108 1336.3 Q600.821 1336.3 604.814 1339.66 Q608.807 1343.02 608.807 1348.63 Q608.807 1351.29 607.795 1353.69 Q606.811 1356.07 604.178 1359.31 Q603.454 1360.15 599.577 1364.17 Q595.7 1368.16 588.64 1375.37 Z" fill="#000000" fill-rule="evenodd" fill-opacity="1" /><path clip-path="url(#clip370)" d="M633.807 1340.93 Q629.293 1340.93 627.007 1345.39 Q624.75 1349.82 624.75 1358.73 Q624.75 1367.61 627.007 1372.07 Q629.293 1376.49 633.807 1376.49 Q638.35 1376.49 640.607 1372.07 Q642.893 1367.61 642.893 1358.73 Q642.893 1349.82 640.607 1345.39 Q638.35 1340.93 633.807 1340.93 M633.807 1336.3 Q641.07 1336.3 644.889 1342.06 Q648.738 1347.79 648.738 1358.73 Q648.738 1369.64 644.889 1375.39 Q641.07 1381.12 633.807 1381.12 Q626.544 1381.12 622.696 1375.39 Q618.877 1369.64 618.877 1358.73 Q618.877 1347.79 622.696 1342.06 Q626.544 1336.3 633.807 1336.3 Z" fill="#000000" fill-rule="evenodd" fill-opacity="1" /><path clip-path="url(#clip370)" d="M694.223 1348.46 L681 1361.74 L694.223 1374.96 L690.78 1378.46 L677.499 1365.18 L664.218 1378.46 L660.803 1374.96 L673.998 1361.74 L660.803 1348.46 L664.218 1344.95 L677.499 1358.24 L690.78 1344.95 L694.223 1348.46 Z" fill="#000000" fill-rule="evenodd" fill-opacity="1" /><path clip-path="url(#clip370)" d="M709.675 1375.37 L719.223 1375.37 L719.223 1342.41 L708.836 1344.49 L708.836 1339.17 L719.165 1337.08 L725.01 1337.08 L725.01 1375.37 L734.559 1375.37 L734.559 1380.28 L709.675 1380.28 L709.675 1375.37 Z" fill="#000000" fill-rule="evenodd" fill-opacity="1" /><path clip-path="url(#clip370)" d="M758.864 1340.93 Q754.35 1340.93 752.065 1345.39 Q749.808 1349.82 749.808 1358.73 Q749.808 1367.61 752.065 1372.07 Q754.35 1376.49 758.864 1376.49 Q763.407 1376.49 765.664 1372.07 Q767.95 1367.61 767.95 1358.73 Q767.95 1349.82 765.664 1345.39 Q763.407 1340.93 758.864 1340.93 M758.864 1336.3 Q766.127 1336.3 769.946 1342.06 Q773.795 1347.79 773.795 1358.73 Q773.795 1369.64 769.946 1375.39 Q766.127 1381.12 758.864 1381.12 Q751.602 1381.12 747.753 1375.39 Q743.934 1369.64 743.934 1358.73 Q743.934 1347.79 747.753 1342.06 Q751.602 1336.3 758.864 1336.3 Z" fill="#000000" fill-rule="evenodd" fill-opacity="1" /><path clip-path="url(#clip370)" d="M773.795 1310.92 L796.364 1310.92 L796.364 1312.94 L783.622 1346.02 L778.661 1346.02 L790.651 1314.92 L773.795 1314.92 L773.795 1310.92 Z" fill="#000000" fill-rule="evenodd" fill-opacity="1" /><path clip-path="url(#clip370)" d="M838.869 1375.37 L848.417 1375.37 L848.417 1342.41 L838.03 1344.49 L838.03 1339.17 L848.359 1337.08 L854.204 1337.08 L854.204 1375.37 L863.753 1375.37 L863.753 1380.28 L838.869 1380.28 L838.869 1375.37 Z" fill="#000000" fill-rule="evenodd" fill-opacity="1" /><path clip-path="url(#clip370)" d="M875.558 1372.94 L881.664 1372.94 L881.664 1380.28 L875.558 1380.28 L875.558 1372.94 Z" fill="#000000" fill-rule="evenodd" fill-opacity="1" /><path clip-path="url(#clip370)" d="M894.453 1337.08 L917.398 1337.08 L917.398 1342 L899.806 1342 L899.806 1352.59 Q901.079 1352.16 902.352 1351.96 Q903.625 1351.73 904.898 1351.73 Q912.132 1351.73 916.357 1355.69 Q920.581 1359.65 920.581 1366.42 Q920.581 1373.4 916.241 1377.28 Q911.901 1381.12 904.001 1381.12 Q901.281 1381.12 898.446 1380.66 Q895.639 1380.2 892.63 1379.27 L892.63 1373.4 Q895.234 1374.82 898.012 1375.51 Q900.79 1376.2 903.886 1376.2 Q908.891 1376.2 911.814 1373.57 Q914.736 1370.94 914.736 1366.42 Q914.736 1361.91 911.814 1359.28 Q908.891 1356.64 903.886 1356.64 Q901.542 1356.64 899.198 1357.17 Q896.883 1357.69 894.453 1358.79 L894.453 1337.08 Z" fill="#000000" fill-rule="evenodd" fill-opacity="1" /><path clip-path="url(#clip370)" d="M944.597 1340.93 Q940.083 1340.93 937.798 1345.39 Q935.541 1349.82 935.541 1358.73 Q935.541 1367.61 937.798 1372.07 Q940.083 1376.49 944.597 1376.49 Q949.14 1376.49 951.397 1372.07 Q953.683 1367.61 953.683 1358.73 Q953.683 1349.82 951.397 1345.39 Q949.14 1340.93 944.597 1340.93 M944.597 1336.3 Q951.86 1336.3 955.679 1342.06 Q959.528 1347.79 959.528 1358.73 Q959.528 1369.64 955.679 1375.39 Q951.86 1381.12 944.597 1381.12 Q937.335 1381.12 933.486 1375.39 Q929.667 1369.64 929.667 1358.73 Q929.667 1347.79 933.486 1342.06 Q937.335 1336.3 944.597 1336.3 Z" fill="#000000" fill-rule="evenodd" fill-opacity="1" /><path clip-path="url(#clip370)" d="M1005.01 1348.46 L991.79 1361.74 L1005.01 1374.96 L1001.57 1378.46 L988.289 1365.18 L975.008 1378.46 L971.594 1374.96 L984.788 1361.74 L971.594 1348.46 L975.008 1344.95 L988.289 1358.24 L1001.57 1344.95 L1005.01 1348.46 Z" fill="#000000" fill-rule="evenodd" fill-opacity="1" /><path clip-path="url(#clip370)" d="M1020.46 1375.37 L1030.01 1375.37 L1030.01 1342.41 L1019.63 1344.49 L1019.63 1339.17 L1029.96 1337.08 L1035.8 1337.08 L1035.8 1375.37 L1045.35 1375.37 L1045.35 1380.28 L1020.46 1380.28 L1020.46 1375.37 Z" fill="#000000" fill-rule="evenodd" fill-opacity="1" /><path clip-path="url(#clip370)" d="M1069.65 1340.93 Q1065.14 1340.93 1062.85 1345.39 Q1060.6 1349.82 1060.6 1358.73 Q1060.6 1367.61 1062.85 1372.07 Q1065.14 1376.49 1069.65 1376.49 Q1074.2 1376.49 1076.45 1372.07 Q1078.74 1367.61 1078.74 1358.73 Q1078.74 1349.82 1076.45 1345.39 Q1074.2 1340.93 1069.65 1340.93 M1069.65 1336.3 Q1076.92 1336.3 1080.74 1342.06 Q1084.58 1347.79 1084.58 1358.73 Q1084.58 1369.64 1080.74 1375.39 Q1076.92 1381.12 1069.65 1381.12 Q1062.39 1381.12 1058.54 1375.39 Q1054.72 1369.64 1054.72 1358.73 Q1054.72 1347.79 1058.54 1342.06 Q1062.39 1336.3 1069.65 1336.3 Z" fill="#000000" fill-rule="evenodd" fill-opacity="1" /><path clip-path="url(#clip370)" d="M1084.58 1310.92 L1107.15 1310.92 L1107.15 1312.94 L1094.41 1346.02 L1089.45 1346.02 L1101.44 1314.92 L1084.58 1314.92 L1084.58 1310.92 Z" fill="#000000" fill-rule="evenodd" fill-opacity="1" /><path clip-path="url(#clip370)" d="M1149.66 1375.37 L1159.21 1375.37 L1159.21 1342.41 L1148.82 1344.49 L1148.82 1339.17 L1159.15 1337.08 L1164.99 1337.08 L1164.99 1375.37 L1174.54 1375.37 L1174.54 1380.28 L1149.66 1380.28 L1149.66 1375.37 Z" fill="#000000" fill-rule="evenodd" fill-opacity="1" /><path clip-path="url(#clip370)" d="M1186.35 1372.94 L1192.45 1372.94 L1192.45 1380.28 L1186.35 1380.28 L1186.35 1372.94 Z" fill="#000000" fill-rule="evenodd" fill-opacity="1" /><path clip-path="url(#clip370)" d="M1217.69 1359.77 Q1213.52 1359.77 1211.12 1362 Q1208.74 1364.23 1208.74 1368.13 Q1208.74 1372.04 1211.12 1374.27 Q1213.52 1376.49 1217.69 1376.49 Q1221.85 1376.49 1224.25 1374.27 Q1226.65 1372.01 1226.65 1368.13 Q1226.65 1364.23 1224.25 1362 Q1221.88 1359.77 1217.69 1359.77 M1211.84 1357.28 Q1208.08 1356.36 1205.97 1353.78 Q1203.88 1351.2 1203.88 1347.5 Q1203.88 1342.32 1207.56 1339.31 Q1211.26 1336.3 1217.69 1336.3 Q1224.14 1336.3 1227.81 1339.31 Q1231.49 1342.32 1231.49 1347.5 Q1231.49 1351.2 1229.37 1353.78 Q1227.29 1356.36 1223.56 1357.28 Q1227.78 1358.27 1230.13 1361.13 Q1232.5 1363.99 1232.5 1368.13 Q1232.5 1374.41 1228.65 1377.77 Q1224.83 1381.12 1217.69 1381.12 Q1210.54 1381.12 1206.69 1377.77 Q1202.87 1374.41 1202.87 1368.13 Q1202.87 1363.99 1205.24 1361.13 Q1207.62 1358.27 1211.84 1357.28 M1209.7 1348.05 Q1209.7 1351.41 1211.78 1353.29 Q1213.89 1355.17 1217.69 1355.17 Q1221.45 1355.17 1223.56 1353.29 Q1225.7 1351.41 1225.7 1348.05 Q1225.7 1344.69 1223.56 1342.81 Q1221.45 1340.93 1217.69 1340.93 Q1213.89 1340.93 1211.78 1342.81 Q1209.7 1344.69 1209.7 1348.05 Z" fill="#000000" fill-rule="evenodd" fill-opacity="1" /><path clip-path="url(#clip370)" d="M1255.39 1340.93 Q1250.87 1340.93 1248.59 1345.39 Q1246.33 1349.82 1246.33 1358.73 Q1246.33 1367.61 1248.59 1372.07 Q1250.87 1376.49 1255.39 1376.49 Q1259.93 1376.49 1262.19 1372.07 Q1264.47 1367.61 1264.47 1358.73 Q1264.47 1349.82 1262.19 1345.39 Q1259.93 1340.93 1255.39 1340.93 M1255.39 1336.3 Q1262.65 1336.3 1266.47 1342.06 Q1270.32 1347.79 1270.32 1358.73 Q1270.32 1369.64 1266.47 1375.39 Q1262.65 1381.12 1255.39 1381.12 Q1248.12 1381.12 1244.28 1375.39 Q1240.46 1369.64 1240.46 1358.73 Q1240.46 1347.79 1244.28 1342.06 Q1248.12 1336.3 1255.39 1336.3 Z" fill="#000000" fill-rule="evenodd" fill-opacity="1" /><path clip-path="url(#clip370)" d="M1315.8 1348.46 L1302.58 1361.74 L1315.8 1374.96 L1312.36 1378.46 L1299.08 1365.18 L1285.8 1378.46 L1282.38 1374.96 L1295.58 1361.74 L1282.38 1348.46 L1285.8 1344.95 L1299.08 1358.24 L1312.36 1344.95 L1315.8 1348.46 Z" fill="#000000" fill-rule="evenodd" fill-opacity="1" /><path clip-path="url(#clip370)" d="M1331.26 1375.37 L1340.8 1375.37 L1340.8 1342.41 L1330.42 1344.49 L1330.42 1339.17 L1340.75 1337.08 L1346.59 1337.08 L1346.59 1375.37 L1356.14 1375.37 L1356.14 1380.28 L1331.26 1380.28 L1331.26 1375.37 Z" fill="#000000" fill-rule="evenodd" fill-opacity="1" /><path clip-path="url(#clip370)" d="M1380.44 1340.93 Q1375.93 1340.93 1373.64 1345.39 Q1371.39 1349.82 1371.39 1358.73 Q1371.39 1367.61 1373.64 1372.07 Q1375.93 1376.49 1380.44 1376.49 Q1384.99 1376.49 1387.24 1372.07 Q1389.53 1367.61 1389.53 1358.73 Q1389.53 1349.82 1387.24 1345.39 Q1384.99 1340.93 1380.44 1340.93 M1380.44 1336.3 Q1387.71 1336.3 1391.53 1342.06 Q1395.38 1347.79 1395.38 1358.73 Q1395.38 1369.64 1391.53 1375.39 Q1387.71 1381.12 1380.44 1381.12 Q1373.18 1381.12 1369.33 1375.39 Q1365.51 1369.64 1365.51 1358.73 Q1365.51 1347.79 1369.33 1342.06 Q1373.18 1336.3 1380.44 1336.3 Z" fill="#000000" fill-rule="evenodd" fill-opacity="1" /><path clip-path="url(#clip370)" d="M1395.38 1310.92 L1417.94 1310.92 L1417.94 1312.94 L1405.2 1346.02 L1400.24 1346.02 L1412.23 1314.92 L1395.38 1314.92 L1395.38 1310.92 Z" fill="#000000" fill-rule="evenodd" fill-opacity="1" /><path clip-path="url(#clip370)" d="M1465.56 1375.37 L1485.96 1375.37 L1485.96 1380.28 L1458.52 1380.28 L1458.52 1375.37 Q1461.85 1371.92 1467.58 1366.14 Q1473.34 1360.32 1474.82 1358.64 Q1477.62 1355.49 1478.72 1353.32 Q1479.85 1351.12 1479.85 1349.01 Q1479.85 1345.56 1477.42 1343.39 Q1475.02 1341.22 1471.14 1341.22 Q1468.39 1341.22 1465.32 1342.18 Q1462.29 1343.13 1458.81 1345.07 L1458.81 1339.17 Q1462.34 1337.75 1465.41 1337.03 Q1468.48 1336.3 1471.02 1336.3 Q1477.74 1336.3 1481.73 1339.66 Q1485.72 1343.02 1485.72 1348.63 Q1485.72 1351.29 1484.71 1353.69 Q1483.73 1356.07 1481.09 1359.31 Q1480.37 1360.15 1476.49 1364.17 Q1472.62 1368.16 1465.56 1375.37 Z" fill="#000000" fill-rule="evenodd" fill-opacity="1" /><path clip-path="url(#clip370)" d="M1498.22 1372.94 L1504.33 1372.94 L1504.33 1380.28 L1498.22 1380.28 L1498.22 1372.94 Z" fill="#000000" fill-rule="evenodd" fill-opacity="1" /><path clip-path="url(#clip370)" d="M1518.07 1375.37 L1527.62 1375.37 L1527.62 1342.41 L1517.23 1344.49 L1517.23 1339.17 L1527.56 1337.08 L1533.41 1337.08 L1533.41 1375.37 L1542.96 1375.37 L1542.96 1380.28 L1518.07 1380.28 L1518.07 1375.37 Z" fill="#000000" fill-rule="evenodd" fill-opacity="1" /><path clip-path="url(#clip370)" d="M1567.26 1340.93 Q1562.75 1340.93 1560.46 1345.39 Q1558.21 1349.82 1558.21 1358.73 Q1558.21 1367.61 1560.46 1372.07 Q1562.75 1376.49 1567.26 1376.49 Q1571.81 1376.49 1574.06 1372.07 Q1576.35 1367.61 1576.35 1358.73 Q1576.35 1349.82 1574.06 1345.39 Q1571.81 1340.93 1567.26 1340.93 M1567.26 1336.3 Q1574.53 1336.3 1578.34 1342.06 Q1582.19 1347.79 1582.19 1358.73 Q1582.19 1369.64 1578.34 1375.39 Q1574.53 1381.12 1567.26 1381.12 Q1560 1381.12 1556.15 1375.39 Q1552.33 1369.64 1552.33 1358.73 Q1552.33 1347.79 1556.15 1342.06 Q1560 1336.3 1567.26 1336.3 Z" fill="#000000" fill-rule="evenodd" fill-opacity="1" /><path clip-path="url(#clip370)" d="M1627.68 1348.46 L1614.46 1361.74 L1627.68 1374.96 L1624.24 1378.46 L1610.95 1365.18 L1597.67 1378.46 L1594.26 1374.96 L1607.45 1361.74 L1594.26 1348.46 L1597.67 1344.95 L1610.95 1358.24 L1624.24 1344.95 L1627.68 1348.46 Z" fill="#000000" fill-rule="evenodd" fill-opacity="1" /><path clip-path="url(#clip370)" d="M1643.13 1375.37 L1652.68 1375.37 L1652.68 1342.41 L1642.29 1344.49 L1642.29 1339.17 L1652.62 1337.08 L1658.47 1337.08 L1658.47 1375.37 L1668.01 1375.37 L1668.01 1380.28 L1643.13 1380.28 L1643.13 1375.37 Z" fill="#000000" fill-rule="evenodd" fill-opacity="1" /><path clip-path="url(#clip370)" d="M1692.32 1340.93 Q1687.81 1340.93 1685.52 1345.39 Q1683.26 1349.82 1683.26 1358.73 Q1683.26 1367.61 1685.52 1372.07 Q1687.81 1376.49 1692.32 1376.49 Q1696.86 1376.49 1699.12 1372.07 Q1701.41 1367.61 1701.41 1358.73 Q1701.41 1349.82 1699.12 1345.39 Q1696.86 1340.93 1692.32 1340.93 M1692.32 1336.3 Q1699.58 1336.3 1703.4 1342.06 Q1707.25 1347.79 1707.25 1358.73 Q1707.25 1369.64 1703.4 1375.39 Q1699.58 1381.12 1692.32 1381.12 Q1685.06 1381.12 1681.21 1375.39 Q1677.39 1369.64 1677.39 1358.73 Q1677.39 1347.79 1681.21 1342.06 Q1685.06 1336.3 1692.32 1336.3 Z" fill="#000000" fill-rule="evenodd" fill-opacity="1" /><path clip-path="url(#clip370)" d="M1707.25 1310.92 L1729.82 1310.92 L1729.82 1312.94 L1717.08 1346.02 L1712.12 1346.02 L1724.11 1314.92 L1707.25 1314.92 L1707.25 1310.92 Z" fill="#000000" fill-rule="evenodd" fill-opacity="1" /><path clip-path="url(#clip370)" d="M1776.35 1375.37 L1796.75 1375.37 L1796.75 1380.28 L1769.31 1380.28 L1769.31 1375.37 Q1772.64 1371.92 1778.37 1366.14 Q1784.13 1360.32 1785.61 1358.64 Q1788.41 1355.49 1789.51 1353.32 Q1790.64 1351.12 1790.64 1349.01 Q1790.64 1345.56 1788.21 1343.39 Q1785.81 1341.22 1781.93 1341.22 Q1779.18 1341.22 1776.11 1342.18 Q1773.08 1343.13 1769.6 1345.07 L1769.6 1339.17 Q1773.13 1337.75 1776.2 1337.03 Q1779.27 1336.3 1781.81 1336.3 Q1788.53 1336.3 1792.52 1339.66 Q1796.51 1343.02 1796.51 1348.63 Q1796.51 1351.29 1795.5 1353.69 Q1794.52 1356.07 1791.88 1359.31 Q1791.16 1360.15 1787.28 1364.17 Q1783.41 1368.16 1776.35 1375.37 Z" fill="#000000" fill-rule="evenodd" fill-opacity="1" /><path clip-path="url(#clip370)" d="M1809.01 1372.94 L1815.12 1372.94 L1815.12 1380.28 L1809.01 1380.28 L1809.01 1372.94 Z" fill="#000000" fill-rule="evenodd" fill-opacity="1" /><path clip-path="url(#clip370)" d="M1843.91 1342.18 L1829.15 1365.24 L1843.91 1365.24 L1843.91 1342.18 M1842.38 1337.08 L1849.73 1337.08 L1849.73 1365.24 L1855.89 1365.24 L1855.89 1370.1 L1849.73 1370.1 L1849.73 1380.28 L1843.91 1380.28 L1843.91 1370.1 L1824.41 1370.1 L1824.41 1364.46 L1842.38 1337.08 Z" fill="#000000" fill-rule="evenodd" fill-opacity="1" /><path clip-path="url(#clip370)" d="M1878.05 1340.93 Q1873.54 1340.93 1871.25 1345.39 Q1869 1349.82 1869 1358.73 Q1869 1367.61 1871.25 1372.07 Q1873.54 1376.49 1878.05 1376.49 Q1882.6 1376.49 1884.85 1372.07 Q1887.14 1367.61 1887.14 1358.73 Q1887.14 1349.82 1884.85 1345.39 Q1882.6 1340.93 1878.05 1340.93 M1878.05 1336.3 Q1885.32 1336.3 1889.13 1342.06 Q1892.98 1347.79 1892.98 1358.73 Q1892.98 1369.64 1889.13 1375.39 Q1885.32 1381.12 1878.05 1381.12 Q1870.79 1381.12 1866.94 1375.39 Q1863.12 1369.64 1863.12 1358.73 Q1863.12 1347.79 1866.94 1342.06 Q1870.79 1336.3 1878.05 1336.3 Z" fill="#000000" fill-rule="evenodd" fill-opacity="1" /><path clip-path="url(#clip370)" d="M1938.47 1348.46 L1925.25 1361.74 L1938.47 1374.96 L1935.03 1378.46 L1921.74 1365.18 L1908.46 1378.46 L1905.05 1374.96 L1918.24 1361.74 L1905.05 1348.46 L1908.46 1344.95 L1921.74 1358.24 L1935.03 1344.95 L1938.47 1348.46 Z" fill="#000000" fill-rule="evenodd" fill-opacity="1" /><path clip-path="url(#clip370)" d="M1953.92 1375.37 L1963.47 1375.37 L1963.47 1342.41 L1953.08 1344.49 L1953.08 1339.17 L1963.41 1337.08 L1969.26 1337.08 L1969.26 1375.37 L1978.8 1375.37 L1978.8 1380.28 L1953.92 1380.28 L1953.92 1375.37 Z" fill="#000000" fill-rule="evenodd" fill-opacity="1" /><path clip-path="url(#clip370)" d="M2003.11 1340.93 Q1998.6 1340.93 1996.31 1345.39 Q1994.05 1349.82 1994.05 1358.73 Q1994.05 1367.61 1996.31 1372.07 Q1998.6 1376.49 2003.11 1376.49 Q2007.65 1376.49 2009.91 1372.07 Q2012.2 1367.61 2012.2 1358.73 Q2012.2 1349.82 2009.91 1345.39 Q2007.65 1340.93 2003.11 1340.93 M2003.11 1336.3 Q2010.37 1336.3 2014.19 1342.06 Q2018.04 1347.79 2018.04 1358.73 Q2018.04 1369.64 2014.19 1375.39 Q2010.37 1381.12 2003.11 1381.12 Q1995.85 1381.12 1992 1375.39 Q1988.18 1369.64 1988.18 1358.73 Q1988.18 1347.79 1992 1342.06 Q1995.85 1336.3 2003.11 1336.3 Z" fill="#000000" fill-rule="evenodd" fill-opacity="1" /><path clip-path="url(#clip370)" d="M2018.04 1310.92 L2040.61 1310.92 L2040.61 1312.94 L2027.87 1346.02 L2022.91 1346.02 L2034.9 1314.92 L2018.04 1314.92 L2018.04 1310.92 Z" fill="#000000" fill-rule="evenodd" fill-opacity="1" /><path clip-path="url(#clip370)" d="M905.771 1418.58 L933.086 1418.58 L933.086 1423.5 L911.616 1423.5 L911.616 1436.29 L932.189 1436.29 L932.189 1441.21 L911.616 1441.21 L911.616 1456.86 L933.606 1456.86 L933.606 1461.78 L905.771 1461.78 L905.771 1418.58 Z" fill="#000000" fill-rule="evenodd" fill-opacity="1" /><path clip-path="url(#clip370)" d="M968.213 1435.59 Q970.209 1432.01 972.987 1430.3 Q975.765 1428.59 979.526 1428.59 Q984.59 1428.59 987.339 1432.15 Q990.088 1435.68 990.088 1442.22 L990.088 1461.78 L984.735 1461.78 L984.735 1442.39 Q984.735 1437.74 983.085 1435.48 Q981.436 1433.22 978.051 1433.22 Q973.913 1433.22 971.511 1435.97 Q969.11 1438.72 969.11 1443.46 L969.11 1461.78 L963.757 1461.78 L963.757 1442.39 Q963.757 1437.71 962.107 1435.48 Q960.458 1433.22 957.015 1433.22 Q952.935 1433.22 950.533 1436 Q948.132 1438.75 948.132 1443.46 L948.132 1461.78 L942.779 1461.78 L942.779 1429.37 L948.132 1429.37 L948.132 1434.41 Q949.955 1431.43 952.501 1430.01 Q955.047 1428.59 958.548 1428.59 Q962.078 1428.59 964.538 1430.39 Q967.026 1432.18 968.213 1435.59 Z" fill="#000000" fill-rule="evenodd" fill-opacity="1" /><path clip-path="url(#clip370)" d="M1000.71 1429.37 L1006.03 1429.37 L1006.03 1461.78 L1000.71 1461.78 L1000.71 1429.37 M1000.71 1416.76 L1006.03 1416.76 L1006.03 1423.5 L1000.71 1423.5 L1000.71 1416.76 Z" fill="#000000" fill-rule="evenodd" fill-opacity="1" /><path clip-path="url(#clip370)" d="M1037.83 1430.33 L1037.83 1435.36 Q1035.57 1434.21 1033.14 1433.63 Q1030.71 1433.05 1028.11 1433.05 Q1024.14 1433.05 1022.15 1434.26 Q1020.18 1435.48 1020.18 1437.91 Q1020.18 1439.76 1021.6 1440.83 Q1023.02 1441.87 1027.3 1442.83 L1029.12 1443.23 Q1034.79 1444.45 1037.16 1446.68 Q1039.57 1448.88 1039.57 1452.84 Q1039.57 1457.35 1035.98 1459.99 Q1032.42 1462.62 1026.17 1462.62 Q1023.57 1462.62 1020.73 1462.1 Q1017.92 1461.61 1014.8 1460.59 L1014.8 1455.1 Q1017.75 1456.63 1020.61 1457.41 Q1023.48 1458.16 1026.29 1458.16 Q1030.05 1458.16 1032.07 1456.89 Q1034.1 1455.59 1034.1 1453.24 Q1034.1 1451.07 1032.62 1449.92 Q1031.18 1448.76 1026.23 1447.69 L1024.38 1447.26 Q1019.43 1446.21 1017.23 1444.07 Q1015.03 1441.9 1015.03 1438.14 Q1015.03 1433.57 1018.27 1431.08 Q1021.51 1428.59 1027.47 1428.59 Q1030.42 1428.59 1033.03 1429.03 Q1035.63 1429.46 1037.83 1430.33 Z" fill="#000000" fill-rule="evenodd" fill-opacity="1" /><path clip-path="url(#clip370)" d="M1068.7 1430.33 L1068.7 1435.36 Q1066.45 1434.21 1064.02 1433.63 Q1061.59 1433.05 1058.98 1433.05 Q1055.02 1433.05 1053.02 1434.26 Q1051.05 1435.48 1051.05 1437.91 Q1051.05 1439.76 1052.47 1440.83 Q1053.89 1441.87 1058.17 1442.83 L1059.99 1443.23 Q1065.67 1444.45 1068.04 1446.68 Q1070.44 1448.88 1070.44 1452.84 Q1070.44 1457.35 1066.85 1459.99 Q1063.29 1462.62 1057.04 1462.62 Q1054.44 1462.62 1051.6 1462.1 Q1048.8 1461.61 1045.67 1460.59 L1045.67 1455.1 Q1048.62 1456.63 1051.49 1457.41 Q1054.35 1458.16 1057.16 1458.16 Q1060.92 1458.16 1062.95 1456.89 Q1064.97 1455.59 1064.97 1453.24 Q1064.97 1451.07 1063.5 1449.92 Q1062.05 1448.76 1057.1 1447.69 L1055.25 1447.26 Q1050.3 1446.21 1048.1 1444.07 Q1045.9 1441.9 1045.9 1438.14 Q1045.9 1433.57 1049.14 1431.08 Q1052.38 1428.59 1058.35 1428.59 Q1061.3 1428.59 1063.9 1429.03 Q1066.5 1429.46 1068.7 1430.33 Z" fill="#000000" fill-rule="evenodd" fill-opacity="1" /><path clip-path="url(#clip370)" d="M1078.92 1429.37 L1084.24 1429.37 L1084.24 1461.78 L1078.92 1461.78 L1078.92 1429.37 M1078.92 1416.76 L1084.24 1416.76 L1084.24 1423.5 L1078.92 1423.5 L1078.92 1416.76 Z" fill="#000000" fill-rule="evenodd" fill-opacity="1" /><path clip-path="url(#clip370)" d="M1107.94 1433.11 Q1103.66 1433.11 1101.17 1436.46 Q1098.68 1439.79 1098.68 1445.61 Q1098.68 1451.42 1101.14 1454.78 Q1103.63 1458.11 1107.94 1458.11 Q1112.19 1458.11 1114.68 1454.75 Q1117.17 1451.39 1117.17 1445.61 Q1117.17 1439.85 1114.68 1436.49 Q1112.19 1433.11 1107.94 1433.11 M1107.94 1428.59 Q1114.88 1428.59 1118.85 1433.11 Q1122.81 1437.62 1122.81 1445.61 Q1122.81 1453.56 1118.85 1458.11 Q1114.88 1462.62 1107.94 1462.62 Q1100.97 1462.62 1097 1458.11 Q1093.07 1453.56 1093.07 1445.61 Q1093.07 1437.62 1097 1433.11 Q1100.97 1428.59 1107.94 1428.59 Z" fill="#000000" fill-rule="evenodd" fill-opacity="1" /><path clip-path="url(#clip370)" d="M1158.58 1442.22 L1158.58 1461.78 L1153.25 1461.78 L1153.25 1442.39 Q1153.25 1437.79 1151.46 1435.51 Q1149.66 1433.22 1146.08 1433.22 Q1141.76 1433.22 1139.28 1435.97 Q1136.79 1438.72 1136.79 1443.46 L1136.79 1461.78 L1131.44 1461.78 L1131.44 1429.37 L1136.79 1429.37 L1136.79 1434.41 Q1138.7 1431.49 1141.27 1430.04 Q1143.88 1428.59 1147.26 1428.59 Q1152.85 1428.59 1155.71 1432.06 Q1158.58 1435.51 1158.58 1442.22 Z" fill="#000000" fill-rule="evenodd" fill-opacity="1" /><path clip-path="url(#clip370)" d="M1189.86 1430.33 L1189.86 1435.36 Q1187.6 1434.21 1185.17 1433.63 Q1182.74 1433.05 1180.13 1433.05 Q1176.17 1433.05 1174.17 1434.26 Q1172.2 1435.48 1172.2 1437.91 Q1172.2 1439.76 1173.62 1440.83 Q1175.04 1441.87 1179.32 1442.83 L1181.15 1443.23 Q1186.82 1444.45 1189.19 1446.68 Q1191.59 1448.88 1191.59 1452.84 Q1191.59 1457.35 1188 1459.99 Q1184.44 1462.62 1178.19 1462.62 Q1175.59 1462.62 1172.75 1462.1 Q1169.95 1461.61 1166.82 1460.59 L1166.82 1455.1 Q1169.77 1456.63 1172.64 1457.41 Q1175.5 1458.16 1178.31 1458.16 Q1182.07 1458.16 1184.1 1456.89 Q1186.12 1455.59 1186.12 1453.24 Q1186.12 1451.07 1184.65 1449.92 Q1183.2 1448.76 1178.25 1447.69 L1176.4 1447.26 Q1171.45 1446.21 1169.25 1444.07 Q1167.05 1441.9 1167.05 1438.14 Q1167.05 1433.57 1170.29 1431.08 Q1173.54 1428.59 1179.5 1428.59 Q1182.45 1428.59 1185.05 1429.03 Q1187.66 1429.46 1189.86 1430.33 Z" fill="#000000" fill-rule="evenodd" fill-opacity="1" /><path clip-path="url(#clip370)" d="M1231.7 1416.82 Q1227.82 1423.47 1225.94 1429.98 Q1224.06 1436.49 1224.06 1443.18 Q1224.06 1449.86 1225.94 1456.43 Q1227.85 1462.97 1231.7 1469.59 L1227.07 1469.59 Q1222.73 1462.79 1220.56 1456.23 Q1218.41 1449.66 1218.41 1443.18 Q1218.41 1436.72 1220.56 1430.18 Q1222.7 1423.64 1227.07 1416.82 L1231.7 1416.82 Z" fill="#000000" fill-rule="evenodd" fill-opacity="1" /><path clip-path="url(#clip370)" d="M1263.35 1445.2 Q1263.35 1439.41 1260.95 1436.23 Q1258.58 1433.05 1254.26 1433.05 Q1249.98 1433.05 1247.58 1436.23 Q1245.21 1439.41 1245.21 1445.2 Q1245.21 1450.96 1247.58 1454.14 Q1249.98 1457.32 1254.26 1457.32 Q1258.58 1457.32 1260.95 1454.14 Q1263.35 1450.96 1263.35 1445.2 M1268.67 1457.76 Q1268.67 1466.03 1265 1470.06 Q1261.32 1474.11 1253.74 1474.11 Q1250.94 1474.11 1248.45 1473.67 Q1245.96 1473.27 1243.62 1472.4 L1243.62 1467.22 Q1245.96 1468.49 1248.25 1469.1 Q1250.53 1469.71 1252.9 1469.71 Q1258.14 1469.71 1260.75 1466.96 Q1263.35 1464.24 1263.35 1458.71 L1263.35 1456.08 Q1261.7 1458.95 1259.13 1460.36 Q1256.55 1461.78 1252.96 1461.78 Q1247 1461.78 1243.36 1457.24 Q1239.71 1452.7 1239.71 1445.2 Q1239.71 1437.68 1243.36 1433.13 Q1247 1428.59 1252.96 1428.59 Q1256.55 1428.59 1259.13 1430.01 Q1261.7 1431.43 1263.35 1434.29 L1263.35 1429.37 L1268.67 1429.37 L1268.67 1457.76 Z" fill="#000000" fill-rule="evenodd" fill-opacity="1" /><path clip-path="url(#clip370)" d="M1298.42 1434.35 Q1297.52 1433.83 1296.45 1433.6 Q1295.41 1433.34 1294.14 1433.34 Q1289.62 1433.34 1287.19 1436.29 Q1284.79 1439.21 1284.79 1444.71 L1284.79 1461.78 L1279.44 1461.78 L1279.44 1429.37 L1284.79 1429.37 L1284.79 1434.41 Q1286.47 1431.46 1289.16 1430.04 Q1291.85 1428.59 1295.7 1428.59 Q1296.25 1428.59 1296.91 1428.68 Q1297.58 1428.74 1298.39 1428.88 L1298.42 1434.35 Z" fill="#000000" fill-rule="evenodd" fill-opacity="1" /><path clip-path="url(#clip370)" d="M1318.73 1445.49 Q1312.28 1445.49 1309.79 1446.97 Q1307.3 1448.44 1307.3 1452 Q1307.3 1454.84 1309.15 1456.51 Q1311.03 1458.16 1314.25 1458.16 Q1318.67 1458.16 1321.34 1455.04 Q1324.03 1451.88 1324.03 1446.68 L1324.03 1445.49 L1318.73 1445.49 M1329.35 1443.29 L1329.35 1461.78 L1324.03 1461.78 L1324.03 1456.86 Q1322.2 1459.81 1319.48 1461.23 Q1316.76 1462.62 1312.83 1462.62 Q1307.85 1462.62 1304.9 1459.84 Q1301.98 1457.04 1301.98 1452.35 Q1301.98 1446.88 1305.62 1444.1 Q1309.3 1441.32 1316.56 1441.32 L1324.03 1441.32 L1324.03 1440.8 Q1324.03 1437.13 1321.6 1435.13 Q1319.19 1433.11 1314.83 1433.11 Q1312.05 1433.11 1309.41 1433.77 Q1306.78 1434.44 1304.35 1435.77 L1304.35 1430.85 Q1307.27 1429.72 1310.02 1429.17 Q1312.77 1428.59 1315.38 1428.59 Q1322.41 1428.59 1325.88 1432.24 Q1329.35 1435.88 1329.35 1443.29 Z" fill="#000000" fill-rule="evenodd" fill-opacity="1" /><path clip-path="url(#clip370)" d="M1365.55 1435.59 Q1367.55 1432.01 1370.32 1430.3 Q1373.1 1428.59 1376.86 1428.59 Q1381.93 1428.59 1384.67 1432.15 Q1387.42 1435.68 1387.42 1442.22 L1387.42 1461.78 L1382.07 1461.78 L1382.07 1442.39 Q1382.07 1437.74 1380.42 1435.48 Q1378.77 1433.22 1375.39 1433.22 Q1371.25 1433.22 1368.85 1435.97 Q1366.45 1438.72 1366.45 1443.46 L1366.45 1461.78 L1361.09 1461.78 L1361.09 1442.39 Q1361.09 1437.71 1359.44 1435.48 Q1357.79 1433.22 1354.35 1433.22 Q1350.27 1433.22 1347.87 1436 Q1345.47 1438.75 1345.47 1443.46 L1345.47 1461.78 L1340.11 1461.78 L1340.11 1429.37 L1345.47 1429.37 L1345.47 1434.41 Q1347.29 1431.43 1349.84 1430.01 Q1352.38 1428.59 1355.88 1428.59 Q1359.41 1428.59 1361.87 1430.39 Q1364.36 1432.18 1365.55 1435.59 Z" fill="#000000" fill-rule="evenodd" fill-opacity="1" /><path clip-path="url(#clip370)" d="M1418.7 1430.33 L1418.7 1435.36 Q1416.45 1434.21 1414.01 1433.63 Q1411.58 1433.05 1408.98 1433.05 Q1405.02 1433.05 1403.02 1434.26 Q1401.05 1435.48 1401.05 1437.91 Q1401.05 1439.76 1402.47 1440.83 Q1403.89 1441.87 1408.17 1442.83 L1409.99 1443.23 Q1415.66 1444.45 1418.04 1446.68 Q1420.44 1448.88 1420.44 1452.84 Q1420.44 1457.35 1416.85 1459.99 Q1413.29 1462.62 1407.04 1462.62 Q1404.44 1462.62 1401.6 1462.1 Q1398.79 1461.61 1395.67 1460.59 L1395.67 1455.1 Q1398.62 1456.63 1401.49 1457.41 Q1404.35 1458.16 1407.16 1458.16 Q1410.92 1458.16 1412.94 1456.89 Q1414.97 1455.59 1414.97 1453.24 Q1414.97 1451.07 1413.49 1449.92 Q1412.05 1448.76 1407.1 1447.69 L1405.25 1447.26 Q1400.3 1446.21 1398.1 1444.07 Q1395.9 1441.9 1395.9 1438.14 Q1395.9 1433.57 1399.14 1431.08 Q1402.38 1428.59 1408.34 1428.59 Q1411.29 1428.59 1413.9 1429.03 Q1416.5 1429.46 1418.7 1430.33 Z" fill="#000000" fill-rule="evenodd" fill-opacity="1" /><path clip-path="url(#clip370)" d="M1480.33 1421.91 L1480.33 1428.07 Q1477.38 1425.32 1474.03 1423.96 Q1470.7 1422.6 1466.94 1422.6 Q1459.53 1422.6 1455.59 1427.15 Q1451.66 1431.66 1451.66 1440.22 Q1451.66 1448.76 1455.59 1453.3 Q1459.53 1457.82 1466.94 1457.82 Q1470.7 1457.82 1474.03 1456.46 Q1477.38 1455.1 1480.33 1452.35 L1480.33 1458.45 Q1477.27 1460.54 1473.82 1461.58 Q1470.41 1462.62 1466.59 1462.62 Q1456.78 1462.62 1451.14 1456.63 Q1445.5 1450.61 1445.5 1440.22 Q1445.5 1429.81 1451.14 1423.82 Q1456.78 1417.8 1466.59 1417.8 Q1470.47 1417.8 1473.88 1418.84 Q1477.32 1419.85 1480.33 1421.91 Z" fill="#000000" fill-rule="evenodd" fill-opacity="1" /><path clip-path="url(#clip370)" d="M1506.9 1422.54 Q1500.53 1422.54 1496.77 1427.29 Q1493.04 1432.04 1493.04 1440.22 Q1493.04 1448.38 1496.77 1453.13 Q1500.53 1457.87 1506.9 1457.87 Q1513.26 1457.87 1516.97 1453.13 Q1520.7 1448.38 1520.7 1440.22 Q1520.7 1432.04 1516.97 1427.29 Q1513.26 1422.54 1506.9 1422.54 M1506.9 1417.8 Q1515.98 1417.8 1521.42 1423.9 Q1526.86 1429.98 1526.86 1440.22 Q1526.86 1450.44 1521.42 1456.54 Q1515.98 1462.62 1506.9 1462.62 Q1497.78 1462.62 1492.31 1456.54 Q1486.87 1450.47 1486.87 1440.22 Q1486.87 1429.98 1492.31 1423.9 Q1497.78 1417.8 1506.9 1417.8 Z" fill="#000000" fill-rule="evenodd" fill-opacity="1" /><path clip-path="url(#clip370)" d="M1541.56 1456.86 L1561.96 1456.86 L1561.96 1461.78 L1534.53 1461.78 L1534.53 1456.86 Q1537.86 1453.42 1543.59 1447.63 Q1549.34 1441.82 1550.82 1440.14 Q1553.63 1436.98 1554.73 1434.81 Q1555.85 1432.61 1555.85 1430.5 Q1555.85 1427.06 1553.42 1424.89 Q1551.02 1422.72 1547.14 1422.72 Q1544.4 1422.72 1541.33 1423.67 Q1538.29 1424.63 1534.82 1426.57 L1534.82 1420.66 Q1538.35 1419.25 1541.42 1418.52 Q1544.48 1417.8 1547.03 1417.8 Q1553.74 1417.8 1557.73 1421.16 Q1561.73 1424.51 1561.73 1430.13 Q1561.73 1432.79 1560.72 1435.19 Q1559.73 1437.56 1557.1 1440.8 Q1556.38 1441.64 1552.5 1445.66 Q1548.62 1449.66 1541.56 1456.86 Z" fill="#000000" fill-rule="evenodd" fill-opacity="1" /><path clip-path="url(#clip370)" d="M1582.94 1418.58 L1587.86 1418.58 L1572.81 1467.28 L1567.89 1467.28 L1582.94 1418.58 Z" fill="#000000" fill-rule="evenodd" fill-opacity="1" /><path clip-path="url(#clip370)" d="M1598.71 1420.17 L1598.71 1429.37 L1609.67 1429.37 L1609.67 1433.51 L1598.71 1433.51 L1598.71 1451.1 Q1598.71 1455.07 1599.78 1456.2 Q1600.88 1457.32 1604.2 1457.32 L1609.67 1457.32 L1609.67 1461.78 L1604.2 1461.78 Q1598.04 1461.78 1595.7 1459.49 Q1593.35 1457.18 1593.35 1451.1 L1593.35 1433.51 L1589.45 1433.51 L1589.45 1429.37 L1593.35 1429.37 L1593.35 1420.17 L1598.71 1420.17 Z" fill="#000000" fill-rule="evenodd" fill-opacity="1" /><path clip-path="url(#clip370)" d="M1629.23 1433.11 Q1624.95 1433.11 1622.46 1436.46 Q1619.97 1439.79 1619.97 1445.61 Q1619.97 1451.42 1622.43 1454.78 Q1624.92 1458.11 1629.23 1458.11 Q1633.49 1458.11 1635.98 1454.75 Q1638.46 1451.39 1638.46 1445.61 Q1638.46 1439.85 1635.98 1436.49 Q1633.49 1433.11 1629.23 1433.11 M1629.23 1428.59 Q1636.18 1428.59 1640.14 1433.11 Q1644.11 1437.62 1644.11 1445.61 Q1644.11 1453.56 1640.14 1458.11 Q1636.18 1462.62 1629.23 1462.62 Q1622.26 1462.62 1618.3 1458.11 Q1614.36 1453.56 1614.36 1445.61 Q1614.36 1437.62 1618.3 1433.11 Q1622.26 1428.59 1629.23 1428.59 Z" fill="#000000" fill-rule="evenodd" fill-opacity="1" /><path clip-path="url(#clip370)" d="M1679.87 1442.22 L1679.87 1461.78 L1674.55 1461.78 L1674.55 1442.39 Q1674.55 1437.79 1672.75 1435.51 Q1670.96 1433.22 1667.37 1433.22 Q1663.06 1433.22 1660.57 1435.97 Q1658.08 1438.72 1658.08 1443.46 L1658.08 1461.78 L1652.73 1461.78 L1652.73 1429.37 L1658.08 1429.37 L1658.08 1434.41 Q1659.99 1431.49 1662.57 1430.04 Q1665.17 1428.59 1668.56 1428.59 Q1674.14 1428.59 1677.01 1432.06 Q1679.87 1435.51 1679.87 1442.22 Z" fill="#000000" fill-rule="evenodd" fill-opacity="1" /><path clip-path="url(#clip370)" d="M1689.65 1416.82 L1694.28 1416.82 Q1698.62 1423.64 1700.76 1430.18 Q1702.93 1436.72 1702.93 1443.18 Q1702.93 1449.66 1700.76 1456.23 Q1698.62 1462.79 1694.28 1469.59 L1689.65 1469.59 Q1693.5 1462.97 1695.38 1456.43 Q1697.29 1449.86 1697.29 1443.18 Q1697.29 1436.49 1695.38 1429.98 Q1693.5 1423.47 1689.65 1416.82 Z" fill="#000000" fill-rule="evenodd" fill-opacity="1" /><polyline clip-path="url(#clip372)" style="stroke:#000000; stroke-linecap:round; stroke-linejoin:round; stroke-width:2; stroke-opacity:0.1; fill:none" points="
  487.442,1257.07 2121.26,1257.07 
  "/>
<polyline clip-path="url(#clip372)" style="stroke:#000000; stroke-linecap:round; stroke-linejoin:round; stroke-width:2; stroke-opacity:0.1; fill:none" points="
  487.442,1079.1 2121.26,1079.1 
  "/>
<polyline clip-path="url(#clip372)" style="stroke:#000000; stroke-linecap:round; stroke-linejoin:round; stroke-width:2; stroke-opacity:0.1; fill:none" points="
  487.442,901.117 2121.26,901.117 
  "/>
<polyline clip-path="url(#clip372)" style="stroke:#000000; stroke-linecap:round; stroke-linejoin:round; stroke-width:2; stroke-opacity:0.1; fill:none" points="
  487.442,723.139 2121.26,723.139 
  "/>
<polyline clip-path="url(#clip372)" style="stroke:#000000; stroke-linecap:round; stroke-linejoin:round; stroke-width:2; stroke-opacity:0.1; fill:none" points="
  487.442,545.16 2121.26,545.16 
  "/>
<polyline clip-path="url(#clip372)" style="stroke:#000000; stroke-linecap:round; stroke-linejoin:round; stroke-width:2; stroke-opacity:0.1; fill:none" points="
  487.442,367.182 2121.26,367.182 
  "/>
<polyline clip-path="url(#clip372)" style="stroke:#000000; stroke-linecap:round; stroke-linejoin:round; stroke-width:2; stroke-opacity:0.1; fill:none" points="
  487.442,189.204 2121.26,189.204 
  "/>
<polyline clip-path="url(#clip370)" style="stroke:#000000; stroke-linecap:round; stroke-linejoin:round; stroke-width:4; stroke-opacity:1; fill:none" points="
  487.442,1289.11 487.442,157.167 
  "/>
<polyline clip-path="url(#clip370)" style="stroke:#000000; stroke-linecap:round; stroke-linejoin:round; stroke-width:4; stroke-opacity:1; fill:none" points="
  487.442,1257.07 506.34,1257.07 
  "/>
<polyline clip-path="url(#clip370)" style="stroke:#000000; stroke-linecap:round; stroke-linejoin:round; stroke-width:4; stroke-opacity:1; fill:none" points="
  487.442,1079.1 506.34,1079.1 
  "/>
<polyline clip-path="url(#clip370)" style="stroke:#000000; stroke-linecap:round; stroke-linejoin:round; stroke-width:4; stroke-opacity:1; fill:none" points="
  487.442,901.117 506.34,901.117 
  "/>
<polyline clip-path="url(#clip370)" style="stroke:#000000; stroke-linecap:round; stroke-linejoin:round; stroke-width:4; stroke-opacity:1; fill:none" points="
  487.442,723.139 506.34,723.139 
  "/>
<polyline clip-path="url(#clip370)" style="stroke:#000000; stroke-linecap:round; stroke-linejoin:round; stroke-width:4; stroke-opacity:1; fill:none" points="
  487.442,545.16 506.34,545.16 
  "/>
<polyline clip-path="url(#clip370)" style="stroke:#000000; stroke-linecap:round; stroke-linejoin:round; stroke-width:4; stroke-opacity:1; fill:none" points="
  487.442,367.182 506.34,367.182 
  "/>
<polyline clip-path="url(#clip370)" style="stroke:#000000; stroke-linecap:round; stroke-linejoin:round; stroke-width:4; stroke-opacity:1; fill:none" points="
  487.442,189.204 506.34,189.204 
  "/>
<path clip-path="url(#clip370)" d="M145.83 1243.53 L168.776 1243.53 L168.776 1248.45 L151.183 1248.45 L151.183 1259.04 Q152.456 1258.61 153.729 1258.41 Q155.002 1258.17 156.276 1258.17 Q163.509 1258.17 167.734 1262.14 Q171.958 1266.1 171.958 1272.87 Q171.958 1279.85 167.618 1283.72 Q163.278 1287.57 155.379 1287.57 Q152.659 1287.57 149.823 1287.11 Q147.016 1286.65 144.007 1285.72 L144.007 1279.85 Q146.611 1281.26 149.389 1281.96 Q152.167 1282.65 155.263 1282.65 Q160.269 1282.65 163.191 1280.02 Q166.113 1277.39 166.113 1272.87 Q166.113 1268.36 163.191 1265.73 Q160.269 1263.09 155.263 1263.09 Q152.919 1263.09 150.575 1263.61 Q148.261 1264.13 145.83 1265.23 L145.83 1243.53 Z" fill="#000000" fill-rule="evenodd" fill-opacity="1" /><path clip-path="url(#clip370)" d="M183.475 1279.38 L189.58 1279.38 L189.58 1286.73 L183.475 1286.73 L183.475 1279.38 Z" fill="#000000" fill-rule="evenodd" fill-opacity="1" /><path clip-path="url(#clip370)" d="M220.019 1263.44 Q224.215 1264.34 226.559 1267.17 Q228.931 1270.01 228.931 1274.18 Q228.931 1280.57 224.533 1284.07 Q220.135 1287.57 212.033 1287.57 Q209.313 1287.57 206.42 1287.02 Q203.555 1286.5 200.488 1285.43 L200.488 1279.79 Q202.919 1281.21 205.812 1281.93 Q208.706 1282.65 211.86 1282.65 Q217.357 1282.65 220.222 1280.48 Q223.116 1278.31 223.116 1274.18 Q223.116 1270.36 220.425 1268.21 Q217.763 1266.04 212.988 1266.04 L207.954 1266.04 L207.954 1261.24 L213.22 1261.24 Q217.531 1261.24 219.817 1259.53 Q222.103 1257.8 222.103 1254.56 Q222.103 1251.23 219.73 1249.46 Q217.386 1247.67 212.988 1247.67 Q210.587 1247.67 207.838 1248.19 Q205.089 1248.71 201.79 1249.81 L201.79 1244.6 Q205.118 1243.68 208.011 1243.21 Q210.934 1242.75 213.509 1242.75 Q220.164 1242.75 224.041 1245.79 Q227.919 1248.8 227.919 1253.95 Q227.919 1257.54 225.864 1260.03 Q223.81 1262.49 220.019 1263.44 Z" fill="#000000" fill-rule="evenodd" fill-opacity="1" /><path clip-path="url(#clip370)" d="M240.071 1243.53 L263.017 1243.53 L263.017 1248.45 L245.424 1248.45 L245.424 1259.04 Q246.698 1258.61 247.971 1258.41 Q249.244 1258.17 250.517 1258.17 Q257.751 1258.17 261.975 1262.14 Q266.2 1266.1 266.2 1272.87 Q266.2 1279.85 261.86 1283.72 Q257.519 1287.57 249.62 1287.57 Q246.9 1287.57 244.064 1287.11 Q241.258 1286.65 238.249 1285.72 L238.249 1279.85 Q240.853 1281.26 243.63 1281.96 Q246.408 1282.65 249.504 1282.65 Q254.51 1282.65 257.432 1280.02 Q260.355 1277.39 260.355 1272.87 Q260.355 1268.36 257.432 1265.73 Q254.51 1263.09 249.504 1263.09 Q247.161 1263.09 244.817 1263.61 Q242.502 1264.13 240.071 1265.23 L240.071 1243.53 Z" fill="#000000" fill-rule="evenodd" fill-opacity="1" /><path clip-path="url(#clip370)" d="M290.216 1247.38 Q285.702 1247.38 283.416 1251.84 Q281.159 1256.26 281.159 1265.18 Q281.159 1274.06 283.416 1278.52 Q285.702 1282.94 290.216 1282.94 Q294.759 1282.94 297.016 1278.52 Q299.301 1274.06 299.301 1265.18 Q299.301 1256.26 297.016 1251.84 Q294.759 1247.38 290.216 1247.38 M290.216 1242.75 Q297.479 1242.75 301.298 1248.51 Q305.146 1254.24 305.146 1265.18 Q305.146 1276.08 301.298 1281.84 Q297.479 1287.57 290.216 1287.57 Q282.953 1287.57 279.105 1281.84 Q275.285 1276.08 275.285 1265.18 Q275.285 1254.24 279.105 1248.51 Q282.953 1242.75 290.216 1242.75 Z" fill="#000000" fill-rule="evenodd" fill-opacity="1" /><path clip-path="url(#clip370)" d="M350.632 1254.9 L337.409 1268.19 L350.632 1281.41 L347.189 1284.91 L333.908 1271.63 L320.627 1284.91 L317.212 1281.41 L330.407 1268.19 L317.212 1254.9 L320.627 1251.4 L333.908 1264.68 L347.189 1251.4 L350.632 1254.9 Z" fill="#000000" fill-rule="evenodd" fill-opacity="1" /><path clip-path="url(#clip370)" d="M366.083 1281.81 L375.632 1281.81 L375.632 1248.86 L365.244 1250.94 L365.244 1245.62 L375.574 1243.53 L381.419 1243.53 L381.419 1281.81 L390.968 1281.81 L390.968 1286.73 L366.083 1286.73 L366.083 1281.81 Z" fill="#000000" fill-rule="evenodd" fill-opacity="1" /><path clip-path="url(#clip370)" d="M415.273 1247.38 Q410.759 1247.38 408.473 1251.84 Q406.216 1256.26 406.216 1265.18 Q406.216 1274.06 408.473 1278.52 Q410.759 1282.94 415.273 1282.94 Q419.816 1282.94 422.073 1278.52 Q424.359 1274.06 424.359 1265.18 Q424.359 1256.26 422.073 1251.84 Q419.816 1247.38 415.273 1247.38 M415.273 1242.75 Q422.536 1242.75 426.355 1248.51 Q430.204 1254.24 430.204 1265.18 Q430.204 1276.08 426.355 1281.84 Q422.536 1287.57 415.273 1287.57 Q408.01 1287.57 404.162 1281.84 Q400.343 1276.08 400.343 1265.18 Q400.343 1254.24 404.162 1248.51 Q408.01 1242.75 415.273 1242.75 Z" fill="#000000" fill-rule="evenodd" fill-opacity="1" /><path clip-path="url(#clip370)" d="M442.734 1233.03 Q439.537 1233.03 437.656 1235.21 Q435.799 1237.4 435.799 1241.21 Q435.799 1244.99 437.656 1247.2 Q439.537 1249.39 442.734 1249.39 Q445.932 1249.39 447.789 1247.2 Q449.67 1244.99 449.67 1241.21 Q449.67 1237.4 447.789 1235.21 Q445.932 1233.03 442.734 1233.03 M452.162 1218.15 L452.162 1222.47 Q450.375 1221.63 448.541 1221.18 Q446.731 1220.73 444.944 1220.73 Q440.242 1220.73 437.75 1223.91 Q435.282 1227.08 434.929 1233.5 Q436.316 1231.45 438.408 1230.37 Q440.501 1229.27 443.016 1229.27 Q448.306 1229.27 451.362 1232.49 Q454.442 1235.68 454.442 1241.21 Q454.442 1246.62 451.245 1249.88 Q448.047 1253.15 442.734 1253.15 Q436.645 1253.15 433.424 1248.5 Q430.204 1243.82 430.204 1234.96 Q430.204 1226.63 434.153 1221.7 Q438.103 1216.74 444.756 1216.74 Q446.543 1216.74 448.353 1217.09 Q450.187 1217.44 452.162 1218.15 Z" fill="#000000" fill-rule="evenodd" fill-opacity="1" /><path clip-path="url(#clip370)" d="M145.83 1065.55 L168.776 1065.55 L168.776 1070.47 L151.183 1070.47 L151.183 1081.06 Q152.456 1080.63 153.729 1080.43 Q155.002 1080.2 156.276 1080.2 Q163.509 1080.2 167.734 1084.16 Q171.958 1088.12 171.958 1094.89 Q171.958 1101.87 167.618 1105.75 Q163.278 1109.59 155.379 1109.59 Q152.659 1109.59 149.823 1109.13 Q147.016 1108.67 144.007 1107.74 L144.007 1101.87 Q146.611 1103.29 149.389 1103.98 Q152.167 1104.67 155.263 1104.67 Q160.269 1104.67 163.191 1102.04 Q166.113 1099.41 166.113 1094.89 Q166.113 1090.38 163.191 1087.75 Q160.269 1085.11 155.263 1085.11 Q152.919 1085.11 150.575 1085.64 Q148.261 1086.16 145.83 1087.26 L145.83 1065.55 Z" fill="#000000" fill-rule="evenodd" fill-opacity="1" /><path clip-path="url(#clip370)" d="M183.475 1101.41 L189.58 1101.41 L189.58 1108.75 L183.475 1108.75 L183.475 1101.41 Z" fill="#000000" fill-rule="evenodd" fill-opacity="1" /><path clip-path="url(#clip370)" d="M218.37 1070.65 L203.613 1093.71 L218.37 1093.71 L218.37 1070.65 M216.837 1065.55 L224.186 1065.55 L224.186 1093.71 L230.349 1093.71 L230.349 1098.57 L224.186 1098.57 L224.186 1108.75 L218.37 1108.75 L218.37 1098.57 L198.868 1098.57 L198.868 1092.93 L216.837 1065.55 Z" fill="#000000" fill-rule="evenodd" fill-opacity="1" /><path clip-path="url(#clip370)" d="M252.513 1069.4 Q248 1069.4 245.714 1073.86 Q243.457 1078.29 243.457 1087.2 Q243.457 1096.08 245.714 1100.54 Q248 1104.96 252.513 1104.96 Q257.056 1104.96 259.313 1100.54 Q261.599 1096.08 261.599 1087.2 Q261.599 1078.29 259.313 1073.86 Q257.056 1069.4 252.513 1069.4 M252.513 1064.77 Q259.776 1064.77 263.596 1070.53 Q267.444 1076.26 267.444 1087.2 Q267.444 1098.11 263.596 1103.86 Q259.776 1109.59 252.513 1109.59 Q245.251 1109.59 241.402 1103.86 Q237.583 1098.11 237.583 1087.2 Q237.583 1076.26 241.402 1070.53 Q245.251 1064.77 252.513 1064.77 Z" fill="#000000" fill-rule="evenodd" fill-opacity="1" /><path clip-path="url(#clip370)" d="M290.216 1069.4 Q285.702 1069.4 283.416 1073.86 Q281.159 1078.29 281.159 1087.2 Q281.159 1096.08 283.416 1100.54 Q285.702 1104.96 290.216 1104.96 Q294.759 1104.96 297.016 1100.54 Q299.301 1096.08 299.301 1087.2 Q299.301 1078.29 297.016 1073.86 Q294.759 1069.4 290.216 1069.4 M290.216 1064.77 Q297.479 1064.77 301.298 1070.53 Q305.146 1076.26 305.146 1087.2 Q305.146 1098.11 301.298 1103.86 Q297.479 1109.59 290.216 1109.59 Q282.953 1109.59 279.105 1103.86 Q275.285 1098.11 275.285 1087.2 Q275.285 1076.26 279.105 1070.53 Q282.953 1064.77 290.216 1064.77 Z" fill="#000000" fill-rule="evenodd" fill-opacity="1" /><path clip-path="url(#clip370)" d="M350.632 1076.93 L337.409 1090.21 L350.632 1103.43 L347.189 1106.93 L333.908 1093.65 L320.627 1106.93 L317.212 1103.43 L330.407 1090.21 L317.212 1076.93 L320.627 1073.43 L333.908 1086.71 L347.189 1073.43 L350.632 1076.93 Z" fill="#000000" fill-rule="evenodd" fill-opacity="1" /><path clip-path="url(#clip370)" d="M366.083 1103.84 L375.632 1103.84 L375.632 1070.88 L365.244 1072.96 L365.244 1067.64 L375.574 1065.55 L381.419 1065.55 L381.419 1103.84 L390.968 1103.84 L390.968 1108.75 L366.083 1108.75 L366.083 1103.84 Z" fill="#000000" fill-rule="evenodd" fill-opacity="1" /><path clip-path="url(#clip370)" d="M415.273 1069.4 Q410.759 1069.4 408.473 1073.86 Q406.216 1078.29 406.216 1087.2 Q406.216 1096.08 408.473 1100.54 Q410.759 1104.96 415.273 1104.96 Q419.816 1104.96 422.073 1100.54 Q424.359 1096.08 424.359 1087.2 Q424.359 1078.29 422.073 1073.86 Q419.816 1069.4 415.273 1069.4 M415.273 1064.77 Q422.536 1064.77 426.355 1070.53 Q430.204 1076.26 430.204 1087.2 Q430.204 1098.11 426.355 1103.86 Q422.536 1109.59 415.273 1109.59 Q408.01 1109.59 404.162 1103.86 Q400.343 1098.11 400.343 1087.2 Q400.343 1076.26 404.162 1070.53 Q408.01 1064.77 415.273 1064.77 Z" fill="#000000" fill-rule="evenodd" fill-opacity="1" /><path clip-path="url(#clip370)" d="M442.734 1055.05 Q439.537 1055.05 437.656 1057.24 Q435.799 1059.42 435.799 1063.23 Q435.799 1067.02 437.656 1069.23 Q439.537 1071.41 442.734 1071.41 Q445.932 1071.41 447.789 1069.23 Q449.67 1067.02 449.67 1063.23 Q449.67 1059.42 447.789 1057.24 Q445.932 1055.05 442.734 1055.05 M452.162 1040.17 L452.162 1044.49 Q450.375 1043.65 448.541 1043.2 Q446.731 1042.75 444.944 1042.75 Q440.242 1042.75 437.75 1045.93 Q435.282 1049.1 434.929 1055.52 Q436.316 1053.47 438.408 1052.39 Q440.501 1051.29 443.016 1051.29 Q448.306 1051.29 451.362 1054.51 Q454.442 1057.71 454.442 1063.23 Q454.442 1068.64 451.245 1071.91 Q448.047 1075.17 442.734 1075.17 Q436.645 1075.17 433.424 1070.52 Q430.204 1065.84 430.204 1056.98 Q430.204 1048.65 434.153 1043.72 Q438.103 1038.76 444.756 1038.76 Q446.543 1038.76 448.353 1039.11 Q450.187 1039.46 452.162 1040.17 Z" fill="#000000" fill-rule="evenodd" fill-opacity="1" /><path clip-path="url(#clip370)" d="M145.83 887.576 L168.776 887.576 L168.776 892.495 L151.183 892.495 L151.183 903.086 Q152.456 902.652 153.729 902.449 Q155.002 902.218 156.276 902.218 Q163.509 902.218 167.734 906.182 Q171.958 910.146 171.958 916.916 Q171.958 923.89 167.618 927.767 Q163.278 931.615 155.379 931.615 Q152.659 931.615 149.823 931.153 Q147.016 930.69 144.007 929.764 L144.007 923.89 Q146.611 925.308 149.389 926.002 Q152.167 926.697 155.263 926.697 Q160.269 926.697 163.191 924.063 Q166.113 921.43 166.113 916.916 Q166.113 912.403 163.191 909.77 Q160.269 907.136 155.263 907.136 Q152.919 907.136 150.575 907.657 Q148.261 908.178 145.83 909.278 L145.83 887.576 Z" fill="#000000" fill-rule="evenodd" fill-opacity="1" /><path clip-path="url(#clip370)" d="M183.475 923.427 L189.58 923.427 L189.58 930.776 L183.475 930.776 L183.475 923.427 Z" fill="#000000" fill-rule="evenodd" fill-opacity="1" /><path clip-path="url(#clip370)" d="M218.37 892.669 L203.613 915.73 L218.37 915.73 L218.37 892.669 M216.837 887.576 L224.186 887.576 L224.186 915.73 L230.349 915.73 L230.349 920.591 L224.186 920.591 L224.186 930.776 L218.37 930.776 L218.37 920.591 L198.868 920.591 L198.868 914.949 L216.837 887.576 Z" fill="#000000" fill-rule="evenodd" fill-opacity="1" /><path clip-path="url(#clip370)" d="M240.071 887.576 L263.017 887.576 L263.017 892.495 L245.424 892.495 L245.424 903.086 Q246.698 902.652 247.971 902.449 Q249.244 902.218 250.517 902.218 Q257.751 902.218 261.975 906.182 Q266.2 910.146 266.2 916.916 Q266.2 923.89 261.86 927.767 Q257.519 931.615 249.62 931.615 Q246.9 931.615 244.064 931.153 Q241.258 930.69 238.249 929.764 L238.249 923.89 Q240.853 925.308 243.63 926.002 Q246.408 926.697 249.504 926.697 Q254.51 926.697 257.432 924.063 Q260.355 921.43 260.355 916.916 Q260.355 912.403 257.432 909.77 Q254.51 907.136 249.504 907.136 Q247.161 907.136 244.817 907.657 Q242.502 908.178 240.071 909.278 L240.071 887.576 Z" fill="#000000" fill-rule="evenodd" fill-opacity="1" /><path clip-path="url(#clip370)" d="M290.216 891.425 Q285.702 891.425 283.416 895.881 Q281.159 900.308 281.159 909.22 Q281.159 918.103 283.416 922.559 Q285.702 926.986 290.216 926.986 Q294.759 926.986 297.016 922.559 Q299.301 918.103 299.301 909.22 Q299.301 900.308 297.016 895.881 Q294.759 891.425 290.216 891.425 M290.216 886.795 Q297.479 886.795 301.298 892.553 Q305.146 898.282 305.146 909.22 Q305.146 920.128 301.298 925.886 Q297.479 931.615 290.216 931.615 Q282.953 931.615 279.105 925.886 Q275.285 920.128 275.285 909.22 Q275.285 898.282 279.105 892.553 Q282.953 886.795 290.216 886.795 Z" fill="#000000" fill-rule="evenodd" fill-opacity="1" /><path clip-path="url(#clip370)" d="M350.632 898.948 L337.409 912.229 L350.632 925.452 L347.189 928.953 L333.908 915.672 L320.627 928.953 L317.212 925.452 L330.407 912.229 L317.212 898.948 L320.627 895.447 L333.908 908.728 L347.189 895.447 L350.632 898.948 Z" fill="#000000" fill-rule="evenodd" fill-opacity="1" /><path clip-path="url(#clip370)" d="M366.083 925.857 L375.632 925.857 L375.632 892.9 L365.244 894.984 L365.244 889.66 L375.574 887.576 L381.419 887.576 L381.419 925.857 L390.968 925.857 L390.968 930.776 L366.083 930.776 L366.083 925.857 Z" fill="#000000" fill-rule="evenodd" fill-opacity="1" /><path clip-path="url(#clip370)" d="M415.273 891.425 Q410.759 891.425 408.473 895.881 Q406.216 900.308 406.216 909.22 Q406.216 918.103 408.473 922.559 Q410.759 926.986 415.273 926.986 Q419.816 926.986 422.073 922.559 Q424.359 918.103 424.359 909.22 Q424.359 900.308 422.073 895.881 Q419.816 891.425 415.273 891.425 M415.273 886.795 Q422.536 886.795 426.355 892.553 Q430.204 898.282 430.204 909.22 Q430.204 920.128 426.355 925.886 Q422.536 931.615 415.273 931.615 Q408.01 931.615 404.162 925.886 Q400.343 920.128 400.343 909.22 Q400.343 898.282 404.162 892.553 Q408.01 886.795 415.273 886.795 Z" fill="#000000" fill-rule="evenodd" fill-opacity="1" /><path clip-path="url(#clip370)" d="M442.734 877.071 Q439.537 877.071 437.656 879.257 Q435.799 881.444 435.799 885.252 Q435.799 889.037 437.656 891.247 Q439.537 893.434 442.734 893.434 Q445.932 893.434 447.789 891.247 Q449.67 889.037 449.67 885.252 Q449.67 881.444 447.789 879.257 Q445.932 877.071 442.734 877.071 M452.162 862.189 L452.162 866.515 Q450.375 865.669 448.541 865.222 Q446.731 864.775 444.944 864.775 Q440.242 864.775 437.75 867.949 Q435.282 871.123 434.929 877.541 Q436.316 875.496 438.408 874.414 Q440.501 873.309 443.016 873.309 Q448.306 873.309 451.362 876.53 Q454.442 879.727 454.442 885.252 Q454.442 890.659 451.245 893.927 Q448.047 897.195 442.734 897.195 Q436.645 897.195 433.424 892.54 Q430.204 887.862 430.204 878.999 Q430.204 870.676 434.153 865.739 Q438.103 860.779 444.756 860.779 Q446.543 860.779 448.353 861.131 Q450.187 861.484 452.162 862.189 Z" fill="#000000" fill-rule="evenodd" fill-opacity="1" /><path clip-path="url(#clip370)" d="M145.83 709.598 L168.776 709.598 L168.776 714.517 L151.183 714.517 L151.183 725.107 Q152.456 724.673 153.729 724.471 Q155.002 724.239 156.276 724.239 Q163.509 724.239 167.734 728.203 Q171.958 732.167 171.958 738.938 Q171.958 745.912 167.618 749.789 Q163.278 753.637 155.379 753.637 Q152.659 753.637 149.823 753.174 Q147.016 752.711 144.007 751.785 L144.007 745.912 Q146.611 747.329 149.389 748.024 Q152.167 748.718 155.263 748.718 Q160.269 748.718 163.191 746.085 Q166.113 743.452 166.113 738.938 Q166.113 734.424 163.191 731.791 Q160.269 729.158 155.263 729.158 Q152.919 729.158 150.575 729.679 Q148.261 730.2 145.83 731.299 L145.83 709.598 Z" fill="#000000" fill-rule="evenodd" fill-opacity="1" /><path clip-path="url(#clip370)" d="M183.475 745.449 L189.58 745.449 L189.58 752.798 L183.475 752.798 L183.475 745.449 Z" fill="#000000" fill-rule="evenodd" fill-opacity="1" /><path clip-path="url(#clip370)" d="M202.369 709.598 L225.315 709.598 L225.315 714.517 L207.722 714.517 L207.722 725.107 Q208.995 724.673 210.268 724.471 Q211.541 724.239 212.815 724.239 Q220.048 724.239 224.273 728.203 Q228.497 732.167 228.497 738.938 Q228.497 745.912 224.157 749.789 Q219.817 753.637 211.918 753.637 Q209.198 753.637 206.362 753.174 Q203.555 752.711 200.546 751.785 L200.546 745.912 Q203.15 747.329 205.928 748.024 Q208.706 748.718 211.802 748.718 Q216.808 748.718 219.73 746.085 Q222.653 743.452 222.653 738.938 Q222.653 734.424 219.73 731.791 Q216.808 729.158 211.802 729.158 Q209.458 729.158 207.114 729.679 Q204.8 730.2 202.369 731.299 L202.369 709.598 Z" fill="#000000" fill-rule="evenodd" fill-opacity="1" /><path clip-path="url(#clip370)" d="M252.513 713.446 Q248 713.446 245.714 717.902 Q243.457 722.329 243.457 731.241 Q243.457 740.125 245.714 744.58 Q248 749.008 252.513 749.008 Q257.056 749.008 259.313 744.58 Q261.599 740.125 261.599 731.241 Q261.599 722.329 259.313 717.902 Q257.056 713.446 252.513 713.446 M252.513 708.817 Q259.776 708.817 263.596 714.575 Q267.444 720.304 267.444 731.241 Q267.444 742.15 263.596 747.908 Q259.776 753.637 252.513 753.637 Q245.251 753.637 241.402 747.908 Q237.583 742.15 237.583 731.241 Q237.583 720.304 241.402 714.575 Q245.251 708.817 252.513 708.817 Z" fill="#000000" fill-rule="evenodd" fill-opacity="1" /><path clip-path="url(#clip370)" d="M290.216 713.446 Q285.702 713.446 283.416 717.902 Q281.159 722.329 281.159 731.241 Q281.159 740.125 283.416 744.58 Q285.702 749.008 290.216 749.008 Q294.759 749.008 297.016 744.58 Q299.301 740.125 299.301 731.241 Q299.301 722.329 297.016 717.902 Q294.759 713.446 290.216 713.446 M290.216 708.817 Q297.479 708.817 301.298 714.575 Q305.146 720.304 305.146 731.241 Q305.146 742.15 301.298 747.908 Q297.479 753.637 290.216 753.637 Q282.953 753.637 279.105 747.908 Q275.285 742.15 275.285 731.241 Q275.285 720.304 279.105 714.575 Q282.953 708.817 290.216 708.817 Z" fill="#000000" fill-rule="evenodd" fill-opacity="1" /><path clip-path="url(#clip370)" d="M350.632 720.97 L337.409 734.251 L350.632 747.474 L347.189 750.975 L333.908 737.694 L320.627 750.975 L317.212 747.474 L330.407 734.251 L317.212 720.97 L320.627 717.468 L333.908 730.75 L347.189 717.468 L350.632 720.97 Z" fill="#000000" fill-rule="evenodd" fill-opacity="1" /><path clip-path="url(#clip370)" d="M366.083 747.879 L375.632 747.879 L375.632 714.922 L365.244 717.005 L365.244 711.681 L375.574 709.598 L381.419 709.598 L381.419 747.879 L390.968 747.879 L390.968 752.798 L366.083 752.798 L366.083 747.879 Z" fill="#000000" fill-rule="evenodd" fill-opacity="1" /><path clip-path="url(#clip370)" d="M415.273 713.446 Q410.759 713.446 408.473 717.902 Q406.216 722.329 406.216 731.241 Q406.216 740.125 408.473 744.58 Q410.759 749.008 415.273 749.008 Q419.816 749.008 422.073 744.58 Q424.359 740.125 424.359 731.241 Q424.359 722.329 422.073 717.902 Q419.816 713.446 415.273 713.446 M415.273 708.817 Q422.536 708.817 426.355 714.575 Q430.204 720.304 430.204 731.241 Q430.204 742.15 426.355 747.908 Q422.536 753.637 415.273 753.637 Q408.01 753.637 404.162 747.908 Q400.343 742.15 400.343 731.241 Q400.343 720.304 404.162 714.575 Q408.01 708.817 415.273 708.817 Z" fill="#000000" fill-rule="evenodd" fill-opacity="1" /><path clip-path="url(#clip370)" d="M442.734 699.093 Q439.537 699.093 437.656 701.279 Q435.799 703.465 435.799 707.274 Q435.799 711.059 437.656 713.269 Q439.537 715.455 442.734 715.455 Q445.932 715.455 447.789 713.269 Q449.67 711.059 449.67 707.274 Q449.67 703.465 447.789 701.279 Q445.932 699.093 442.734 699.093 M452.162 684.211 L452.162 688.537 Q450.375 687.69 448.541 687.244 Q446.731 686.797 444.944 686.797 Q440.242 686.797 437.75 689.971 Q435.282 693.145 434.929 699.563 Q436.316 697.517 438.408 696.436 Q440.501 695.331 443.016 695.331 Q448.306 695.331 451.362 698.552 Q454.442 701.749 454.442 707.274 Q454.442 712.681 451.245 715.949 Q448.047 719.217 442.734 719.217 Q436.645 719.217 433.424 714.562 Q430.204 709.883 430.204 701.02 Q430.204 692.698 434.153 687.761 Q438.103 682.8 444.756 682.8 Q446.543 682.8 448.353 683.153 Q450.187 683.506 452.162 684.211 Z" fill="#000000" fill-rule="evenodd" fill-opacity="1" /><path clip-path="url(#clip370)" d="M145.83 531.62 L168.776 531.62 L168.776 536.539 L151.183 536.539 L151.183 547.129 Q152.456 546.695 153.729 546.492 Q155.002 546.261 156.276 546.261 Q163.509 546.261 167.734 550.225 Q171.958 554.189 171.958 560.96 Q171.958 567.933 167.618 571.81 Q163.278 575.659 155.379 575.659 Q152.659 575.659 149.823 575.196 Q147.016 574.733 144.007 573.807 L144.007 567.933 Q146.611 569.351 149.389 570.045 Q152.167 570.74 155.263 570.74 Q160.269 570.74 163.191 568.107 Q166.113 565.474 166.113 560.96 Q166.113 556.446 163.191 553.813 Q160.269 551.18 155.263 551.18 Q152.919 551.18 150.575 551.701 Q148.261 552.221 145.83 553.321 L145.83 531.62 Z" fill="#000000" fill-rule="evenodd" fill-opacity="1" /><path clip-path="url(#clip370)" d="M183.475 567.47 L189.58 567.47 L189.58 574.82 L183.475 574.82 L183.475 567.47 Z" fill="#000000" fill-rule="evenodd" fill-opacity="1" /><path clip-path="url(#clip370)" d="M202.369 531.62 L225.315 531.62 L225.315 536.539 L207.722 536.539 L207.722 547.129 Q208.995 546.695 210.268 546.492 Q211.541 546.261 212.815 546.261 Q220.048 546.261 224.273 550.225 Q228.497 554.189 228.497 560.96 Q228.497 567.933 224.157 571.81 Q219.817 575.659 211.918 575.659 Q209.198 575.659 206.362 575.196 Q203.555 574.733 200.546 573.807 L200.546 567.933 Q203.15 569.351 205.928 570.045 Q208.706 570.74 211.802 570.74 Q216.808 570.74 219.73 568.107 Q222.653 565.474 222.653 560.96 Q222.653 556.446 219.73 553.813 Q216.808 551.18 211.802 551.18 Q209.458 551.18 207.114 551.701 Q204.8 552.221 202.369 553.321 L202.369 531.62 Z" fill="#000000" fill-rule="evenodd" fill-opacity="1" /><path clip-path="url(#clip370)" d="M240.071 531.62 L263.017 531.62 L263.017 536.539 L245.424 536.539 L245.424 547.129 Q246.698 546.695 247.971 546.492 Q249.244 546.261 250.517 546.261 Q257.751 546.261 261.975 550.225 Q266.2 554.189 266.2 560.96 Q266.2 567.933 261.86 571.81 Q257.519 575.659 249.62 575.659 Q246.9 575.659 244.064 575.196 Q241.258 574.733 238.249 573.807 L238.249 567.933 Q240.853 569.351 243.63 570.045 Q246.408 570.74 249.504 570.74 Q254.51 570.74 257.432 568.107 Q260.355 565.474 260.355 560.96 Q260.355 556.446 257.432 553.813 Q254.51 551.18 249.504 551.18 Q247.161 551.18 244.817 551.701 Q242.502 552.221 240.071 553.321 L240.071 531.62 Z" fill="#000000" fill-rule="evenodd" fill-opacity="1" /><path clip-path="url(#clip370)" d="M290.216 535.468 Q285.702 535.468 283.416 539.924 Q281.159 544.351 281.159 553.263 Q281.159 562.146 283.416 566.602 Q285.702 571.029 290.216 571.029 Q294.759 571.029 297.016 566.602 Q299.301 562.146 299.301 553.263 Q299.301 544.351 297.016 539.924 Q294.759 535.468 290.216 535.468 M290.216 530.838 Q297.479 530.838 301.298 536.597 Q305.146 542.326 305.146 553.263 Q305.146 564.172 301.298 569.93 Q297.479 575.659 290.216 575.659 Q282.953 575.659 279.105 569.93 Q275.285 564.172 275.285 553.263 Q275.285 542.326 279.105 536.597 Q282.953 530.838 290.216 530.838 Z" fill="#000000" fill-rule="evenodd" fill-opacity="1" /><path clip-path="url(#clip370)" d="M350.632 542.991 L337.409 556.272 L350.632 569.496 L347.189 572.997 L333.908 559.716 L320.627 572.997 L317.212 569.496 L330.407 556.272 L317.212 542.991 L320.627 539.49 L333.908 552.771 L347.189 539.49 L350.632 542.991 Z" fill="#000000" fill-rule="evenodd" fill-opacity="1" /><path clip-path="url(#clip370)" d="M366.083 569.901 L375.632 569.901 L375.632 536.944 L365.244 539.027 L365.244 533.703 L375.574 531.62 L381.419 531.62 L381.419 569.901 L390.968 569.901 L390.968 574.82 L366.083 574.82 L366.083 569.901 Z" fill="#000000" fill-rule="evenodd" fill-opacity="1" /><path clip-path="url(#clip370)" d="M415.273 535.468 Q410.759 535.468 408.473 539.924 Q406.216 544.351 406.216 553.263 Q406.216 562.146 408.473 566.602 Q410.759 571.029 415.273 571.029 Q419.816 571.029 422.073 566.602 Q424.359 562.146 424.359 553.263 Q424.359 544.351 422.073 539.924 Q419.816 535.468 415.273 535.468 M415.273 530.838 Q422.536 530.838 426.355 536.597 Q430.204 542.326 430.204 553.263 Q430.204 564.172 426.355 569.93 Q422.536 575.659 415.273 575.659 Q408.01 575.659 404.162 569.93 Q400.343 564.172 400.343 553.263 Q400.343 542.326 404.162 536.597 Q408.01 530.838 415.273 530.838 Z" fill="#000000" fill-rule="evenodd" fill-opacity="1" /><path clip-path="url(#clip370)" d="M442.734 521.114 Q439.537 521.114 437.656 523.301 Q435.799 525.487 435.799 529.296 Q435.799 533.081 437.656 535.291 Q439.537 537.477 442.734 537.477 Q445.932 537.477 447.789 535.291 Q449.67 533.081 449.67 529.296 Q449.67 525.487 447.789 523.301 Q445.932 521.114 442.734 521.114 M452.162 506.233 L452.162 510.558 Q450.375 509.712 448.541 509.265 Q446.731 508.819 444.944 508.819 Q440.242 508.819 437.75 511.992 Q435.282 515.166 434.929 521.584 Q436.316 519.539 438.408 518.458 Q440.501 517.353 443.016 517.353 Q448.306 517.353 451.362 520.573 Q454.442 523.771 454.442 529.296 Q454.442 534.703 451.245 537.971 Q448.047 541.239 442.734 541.239 Q436.645 541.239 433.424 536.584 Q430.204 531.905 430.204 523.042 Q430.204 514.72 434.153 509.783 Q438.103 504.822 444.756 504.822 Q446.543 504.822 448.353 505.175 Q450.187 505.527 452.162 506.233 Z" fill="#000000" fill-rule="evenodd" fill-opacity="1" /><path clip-path="url(#clip370)" d="M145.83 353.641 L168.776 353.641 L168.776 358.56 L151.183 358.56 L151.183 369.151 Q152.456 368.717 153.729 368.514 Q155.002 368.283 156.276 368.283 Q163.509 368.283 167.734 372.247 Q171.958 376.211 171.958 382.982 Q171.958 389.955 167.618 393.832 Q163.278 397.681 155.379 397.681 Q152.659 397.681 149.823 397.218 Q147.016 396.755 144.007 395.829 L144.007 389.955 Q146.611 391.373 149.389 392.067 Q152.167 392.762 155.263 392.762 Q160.269 392.762 163.191 390.128 Q166.113 387.495 166.113 382.982 Q166.113 378.468 163.191 375.835 Q160.269 373.201 155.263 373.201 Q152.919 373.201 150.575 373.722 Q148.261 374.243 145.83 375.343 L145.83 353.641 Z" fill="#000000" fill-rule="evenodd" fill-opacity="1" /><path clip-path="url(#clip370)" d="M183.475 389.492 L189.58 389.492 L189.58 396.841 L183.475 396.841 L183.475 389.492 Z" fill="#000000" fill-rule="evenodd" fill-opacity="1" /><path clip-path="url(#clip370)" d="M215.535 372.912 Q211.599 372.912 209.285 375.603 Q206.999 378.294 206.999 382.982 Q206.999 387.64 209.285 390.36 Q211.599 393.051 215.535 393.051 Q219.47 393.051 221.756 390.36 Q224.07 387.64 224.07 382.982 Q224.07 378.294 221.756 375.603 Q219.47 372.912 215.535 372.912 M227.137 354.596 L227.137 359.92 Q224.938 358.879 222.681 358.329 Q220.453 357.779 218.254 357.779 Q212.467 357.779 209.4 361.685 Q206.362 365.592 205.928 373.491 Q207.635 370.973 210.21 369.642 Q212.786 368.283 215.882 368.283 Q222.392 368.283 226.154 372.247 Q229.944 376.182 229.944 382.982 Q229.944 389.637 226.009 393.659 Q222.074 397.681 215.535 397.681 Q208.04 397.681 204.076 391.951 Q200.112 386.193 200.112 375.285 Q200.112 365.042 204.973 358.965 Q209.834 352.86 218.023 352.86 Q220.222 352.86 222.45 353.294 Q224.707 353.728 227.137 354.596 Z" fill="#000000" fill-rule="evenodd" fill-opacity="1" /><path clip-path="url(#clip370)" d="M252.513 357.49 Q248 357.49 245.714 361.946 Q243.457 366.373 243.457 375.285 Q243.457 384.168 245.714 388.624 Q248 393.051 252.513 393.051 Q257.056 393.051 259.313 388.624 Q261.599 384.168 261.599 375.285 Q261.599 366.373 259.313 361.946 Q257.056 357.49 252.513 357.49 M252.513 352.86 Q259.776 352.86 263.596 358.618 Q267.444 364.347 267.444 375.285 Q267.444 386.193 263.596 391.951 Q259.776 397.681 252.513 397.681 Q245.251 397.681 241.402 391.951 Q237.583 386.193 237.583 375.285 Q237.583 364.347 241.402 358.618 Q245.251 352.86 252.513 352.86 Z" fill="#000000" fill-rule="evenodd" fill-opacity="1" /><path clip-path="url(#clip370)" d="M290.216 357.49 Q285.702 357.49 283.416 361.946 Q281.159 366.373 281.159 375.285 Q281.159 384.168 283.416 388.624 Q285.702 393.051 290.216 393.051 Q294.759 393.051 297.016 388.624 Q299.301 384.168 299.301 375.285 Q299.301 366.373 297.016 361.946 Q294.759 357.49 290.216 357.49 M290.216 352.86 Q297.479 352.86 301.298 358.618 Q305.146 364.347 305.146 375.285 Q305.146 386.193 301.298 391.951 Q297.479 397.681 290.216 397.681 Q282.953 397.681 279.105 391.951 Q275.285 386.193 275.285 375.285 Q275.285 364.347 279.105 358.618 Q282.953 352.86 290.216 352.86 Z" fill="#000000" fill-rule="evenodd" fill-opacity="1" /><path clip-path="url(#clip370)" d="M350.632 365.013 L337.409 378.294 L350.632 391.517 L347.189 395.018 L333.908 381.737 L320.627 395.018 L317.212 391.517 L330.407 378.294 L317.212 365.013 L320.627 361.512 L333.908 374.793 L347.189 361.512 L350.632 365.013 Z" fill="#000000" fill-rule="evenodd" fill-opacity="1" /><path clip-path="url(#clip370)" d="M366.083 391.922 L375.632 391.922 L375.632 358.965 L365.244 361.049 L365.244 355.725 L375.574 353.641 L381.419 353.641 L381.419 391.922 L390.968 391.922 L390.968 396.841 L366.083 396.841 L366.083 391.922 Z" fill="#000000" fill-rule="evenodd" fill-opacity="1" /><path clip-path="url(#clip370)" d="M415.273 357.49 Q410.759 357.49 408.473 361.946 Q406.216 366.373 406.216 375.285 Q406.216 384.168 408.473 388.624 Q410.759 393.051 415.273 393.051 Q419.816 393.051 422.073 388.624 Q424.359 384.168 424.359 375.285 Q424.359 366.373 422.073 361.946 Q419.816 357.49 415.273 357.49 M415.273 352.86 Q422.536 352.86 426.355 358.618 Q430.204 364.347 430.204 375.285 Q430.204 386.193 426.355 391.951 Q422.536 397.681 415.273 397.681 Q408.01 397.681 404.162 391.951 Q400.343 386.193 400.343 375.285 Q400.343 364.347 404.162 358.618 Q408.01 352.86 415.273 352.86 Z" fill="#000000" fill-rule="evenodd" fill-opacity="1" /><path clip-path="url(#clip370)" d="M442.734 343.136 Q439.537 343.136 437.656 345.322 Q435.799 347.509 435.799 351.317 Q435.799 355.102 437.656 357.312 Q439.537 359.499 442.734 359.499 Q445.932 359.499 447.789 357.312 Q449.67 355.102 449.67 351.317 Q449.67 347.509 447.789 345.322 Q445.932 343.136 442.734 343.136 M452.162 328.254 L452.162 332.58 Q450.375 331.734 448.541 331.287 Q446.731 330.84 444.944 330.84 Q440.242 330.84 437.75 334.014 Q435.282 337.188 434.929 343.606 Q436.316 341.561 438.408 340.479 Q440.501 339.374 443.016 339.374 Q448.306 339.374 451.362 342.595 Q454.442 345.792 454.442 351.317 Q454.442 356.724 451.245 359.992 Q448.047 363.26 442.734 363.26 Q436.645 363.26 433.424 358.605 Q430.204 353.927 430.204 345.064 Q430.204 336.741 434.153 331.804 Q438.103 326.844 444.756 326.844 Q446.543 326.844 448.353 327.196 Q450.187 327.549 452.162 328.254 Z" fill="#000000" fill-rule="evenodd" fill-opacity="1" /><path clip-path="url(#clip370)" d="M145.83 175.663 L168.776 175.663 L168.776 180.582 L151.183 180.582 L151.183 191.172 Q152.456 190.738 153.729 190.536 Q155.002 190.304 156.276 190.304 Q163.509 190.304 167.734 194.268 Q171.958 198.232 171.958 205.003 Q171.958 211.977 167.618 215.854 Q163.278 219.702 155.379 219.702 Q152.659 219.702 149.823 219.239 Q147.016 218.776 144.007 217.85 L144.007 211.977 Q146.611 213.394 149.389 214.089 Q152.167 214.783 155.263 214.783 Q160.269 214.783 163.191 212.15 Q166.113 209.517 166.113 205.003 Q166.113 200.489 163.191 197.856 Q160.269 195.223 155.263 195.223 Q152.919 195.223 150.575 195.744 Q148.261 196.265 145.83 197.364 L145.83 175.663 Z" fill="#000000" fill-rule="evenodd" fill-opacity="1" /><path clip-path="url(#clip370)" d="M183.475 211.514 L189.58 211.514 L189.58 218.863 L183.475 218.863 L183.475 211.514 Z" fill="#000000" fill-rule="evenodd" fill-opacity="1" /><path clip-path="url(#clip370)" d="M215.535 194.934 Q211.599 194.934 209.285 197.625 Q206.999 200.316 206.999 205.003 Q206.999 209.662 209.285 212.382 Q211.599 215.073 215.535 215.073 Q219.47 215.073 221.756 212.382 Q224.07 209.662 224.07 205.003 Q224.07 200.316 221.756 197.625 Q219.47 194.934 215.535 194.934 M227.137 176.618 L227.137 181.942 Q224.938 180.9 222.681 180.351 Q220.453 179.801 218.254 179.801 Q212.467 179.801 209.4 183.707 Q206.362 187.613 205.928 195.512 Q207.635 192.995 210.21 191.664 Q212.786 190.304 215.882 190.304 Q222.392 190.304 226.154 194.268 Q229.944 198.203 229.944 205.003 Q229.944 211.658 226.009 215.68 Q222.074 219.702 215.535 219.702 Q208.04 219.702 204.076 213.973 Q200.112 208.215 200.112 197.306 Q200.112 187.063 204.973 180.987 Q209.834 174.882 218.023 174.882 Q220.222 174.882 222.45 175.316 Q224.707 175.75 227.137 176.618 Z" fill="#000000" fill-rule="evenodd" fill-opacity="1" /><path clip-path="url(#clip370)" d="M240.071 175.663 L263.017 175.663 L263.017 180.582 L245.424 180.582 L245.424 191.172 Q246.698 190.738 247.971 190.536 Q249.244 190.304 250.517 190.304 Q257.751 190.304 261.975 194.268 Q266.2 198.232 266.2 205.003 Q266.2 211.977 261.86 215.854 Q257.519 219.702 249.62 219.702 Q246.9 219.702 244.064 219.239 Q241.258 218.776 238.249 217.85 L238.249 211.977 Q240.853 213.394 243.63 214.089 Q246.408 214.783 249.504 214.783 Q254.51 214.783 257.432 212.15 Q260.355 209.517 260.355 205.003 Q260.355 200.489 257.432 197.856 Q254.51 195.223 249.504 195.223 Q247.161 195.223 244.817 195.744 Q242.502 196.265 240.071 197.364 L240.071 175.663 Z" fill="#000000" fill-rule="evenodd" fill-opacity="1" /><path clip-path="url(#clip370)" d="M290.216 179.511 Q285.702 179.511 283.416 183.967 Q281.159 188.394 281.159 197.306 Q281.159 206.19 283.416 210.646 Q285.702 215.073 290.216 215.073 Q294.759 215.073 297.016 210.646 Q299.301 206.19 299.301 197.306 Q299.301 188.394 297.016 183.967 Q294.759 179.511 290.216 179.511 M290.216 174.882 Q297.479 174.882 301.298 180.64 Q305.146 186.369 305.146 197.306 Q305.146 208.215 301.298 213.973 Q297.479 219.702 290.216 219.702 Q282.953 219.702 279.105 213.973 Q275.285 208.215 275.285 197.306 Q275.285 186.369 279.105 180.64 Q282.953 174.882 290.216 174.882 Z" fill="#000000" fill-rule="evenodd" fill-opacity="1" /><path clip-path="url(#clip370)" d="M350.632 187.035 L337.409 200.316 L350.632 213.539 L347.189 217.04 L333.908 203.759 L320.627 217.04 L317.212 213.539 L330.407 200.316 L317.212 187.035 L320.627 183.533 L333.908 196.815 L347.189 183.533 L350.632 187.035 Z" fill="#000000" fill-rule="evenodd" fill-opacity="1" /><path clip-path="url(#clip370)" d="M366.083 213.944 L375.632 213.944 L375.632 180.987 L365.244 183.07 L365.244 177.746 L375.574 175.663 L381.419 175.663 L381.419 213.944 L390.968 213.944 L390.968 218.863 L366.083 218.863 L366.083 213.944 Z" fill="#000000" fill-rule="evenodd" fill-opacity="1" /><path clip-path="url(#clip370)" d="M415.273 179.511 Q410.759 179.511 408.473 183.967 Q406.216 188.394 406.216 197.306 Q406.216 206.19 408.473 210.646 Q410.759 215.073 415.273 215.073 Q419.816 215.073 422.073 210.646 Q424.359 206.19 424.359 197.306 Q424.359 188.394 422.073 183.967 Q419.816 179.511 415.273 179.511 M415.273 174.882 Q422.536 174.882 426.355 180.64 Q430.204 186.369 430.204 197.306 Q430.204 208.215 426.355 213.973 Q422.536 219.702 415.273 219.702 Q408.01 219.702 404.162 213.973 Q400.343 208.215 400.343 197.306 Q400.343 186.369 404.162 180.64 Q408.01 174.882 415.273 174.882 Z" fill="#000000" fill-rule="evenodd" fill-opacity="1" /><path clip-path="url(#clip370)" d="M442.734 165.158 Q439.537 165.158 437.656 167.344 Q435.799 169.53 435.799 173.339 Q435.799 177.124 437.656 179.334 Q439.537 181.52 442.734 181.52 Q445.932 181.52 447.789 179.334 Q449.67 177.124 449.67 173.339 Q449.67 169.53 447.789 167.344 Q445.932 165.158 442.734 165.158 M452.162 150.276 L452.162 154.602 Q450.375 153.755 448.541 153.309 Q446.731 152.862 444.944 152.862 Q440.242 152.862 437.75 156.036 Q435.282 159.21 434.929 165.628 Q436.316 163.582 438.408 162.501 Q440.501 161.396 443.016 161.396 Q448.306 161.396 451.362 164.617 Q454.442 167.814 454.442 173.339 Q454.442 178.746 451.245 182.014 Q448.047 185.282 442.734 185.282 Q436.645 185.282 433.424 180.627 Q430.204 175.948 430.204 167.085 Q430.204 158.763 434.153 153.826 Q438.103 148.865 444.756 148.865 Q446.543 148.865 448.353 149.218 Q450.187 149.571 452.162 150.276 Z" fill="#000000" fill-rule="evenodd" fill-opacity="1" /><path clip-path="url(#clip370)" d="M60.6052 1003.79 L82.1039 1011.72 L82.1039 995.837 L60.6052 1003.79 M54.8471 1007.09 L54.8471 1000.47 L98.0471 984.002 L98.0471 990.079 L86.965 994.014 L86.965 1013.49 L98.0471 1017.42 L98.0471 1023.59 L54.8471 1007.09 Z" fill="#000000" fill-rule="evenodd" fill-opacity="1" /><path clip-path="url(#clip370)" d="M56.4386 973.701 L65.6399 973.701 L65.6399 962.735 L69.7776 962.735 L69.7776 973.701 L87.3701 973.701 Q91.3342 973.701 92.4627 972.631 Q93.5911 971.531 93.5911 968.204 L93.5911 962.735 L98.0471 962.735 L98.0471 968.204 Q98.0471 974.367 95.7613 976.711 Q93.4465 979.054 87.3701 979.054 L69.7776 979.054 L69.7776 982.961 L65.6399 982.961 L65.6399 979.054 L56.4386 979.054 L56.4386 973.701 Z" fill="#000000" fill-rule="evenodd" fill-opacity="1" /><path clip-path="url(#clip370)" d="M56.4386 950.467 L65.6399 950.467 L65.6399 939.5 L69.7776 939.5 L69.7776 950.467 L87.3701 950.467 Q91.3342 950.467 92.4627 949.396 Q93.5911 948.296 93.5911 944.969 L93.5911 939.5 L98.0471 939.5 L98.0471 944.969 Q98.0471 951.132 95.7613 953.476 Q93.4465 955.82 87.3701 955.82 L69.7776 955.82 L69.7776 959.726 L65.6399 959.726 L65.6399 955.82 L56.4386 955.82 L56.4386 950.467 Z" fill="#000000" fill-rule="evenodd" fill-opacity="1" /><path clip-path="url(#clip370)" d="M80.5125 904.778 L83.1167 904.778 L83.1167 929.257 Q88.6143 928.91 91.5078 925.959 Q94.3724 922.978 94.3724 917.683 Q94.3724 914.616 93.6201 911.752 Q92.8678 908.858 91.3631 906.022 L96.3978 906.022 Q97.6131 908.887 98.2497 911.896 Q98.8862 914.905 98.8862 918.002 Q98.8862 925.756 94.3724 930.299 Q89.8585 934.813 82.1618 934.813 Q74.2047 934.813 69.5461 930.53 Q64.8586 926.219 64.8586 918.927 Q64.8586 912.388 69.0832 908.598 Q73.2787 904.778 80.5125 904.778 M78.95 910.102 Q74.5808 910.16 71.9767 912.562 Q69.3725 914.934 69.3725 918.87 Q69.3725 923.326 71.8899 926.017 Q74.4072 928.679 78.9789 929.084 L78.95 910.102 Z" fill="#000000" fill-rule="evenodd" fill-opacity="1" /><path clip-path="url(#clip370)" d="M78.487 869.101 L98.0471 869.101 L98.0471 874.425 L78.6607 874.425 Q74.06 874.425 71.7741 876.219 Q69.4883 878.013 69.4883 881.601 Q69.4883 885.913 72.2371 888.401 Q74.9859 890.889 79.7313 890.889 L98.0471 890.889 L98.0471 896.242 L65.6399 896.242 L65.6399 890.889 L70.6746 890.889 Q67.7522 888.98 66.3054 886.404 Q64.8586 883.8 64.8586 880.415 Q64.8586 874.83 68.3309 871.966 Q71.7741 869.101 78.487 869.101 Z" fill="#000000" fill-rule="evenodd" fill-opacity="1" /><path clip-path="url(#clip370)" d="M70.5589 837.157 L53.0242 837.157 L53.0242 831.833 L98.0471 831.833 L98.0471 837.157 L93.186 837.157 Q96.0795 838.835 97.4974 841.41 Q98.8862 843.957 98.8862 847.545 Q98.8862 853.419 94.1988 857.122 Q89.5113 860.797 81.8724 860.797 Q74.2336 860.797 69.5461 857.122 Q64.8586 853.419 64.8586 847.545 Q64.8586 843.957 66.2765 841.41 Q67.6653 838.835 70.5589 837.157 M81.8724 855.299 Q87.7463 855.299 91.1027 852.898 Q94.4303 850.467 94.4303 846.243 Q94.4303 842.018 91.1027 839.588 Q87.7463 837.157 81.8724 837.157 Q75.9986 837.157 72.6711 839.588 Q69.3146 842.018 69.3146 846.243 Q69.3146 850.467 72.6711 852.898 Q75.9986 855.299 81.8724 855.299 Z" fill="#000000" fill-rule="evenodd" fill-opacity="1" /><path clip-path="url(#clip370)" d="M81.7567 806.139 Q81.7567 812.591 83.2324 815.08 Q84.7081 817.568 88.2671 817.568 Q91.1027 817.568 92.781 815.716 Q94.4303 813.835 94.4303 810.624 Q94.4303 806.197 91.3053 803.535 Q88.1513 800.844 82.943 800.844 L81.7567 800.844 L81.7567 806.139 M79.5576 795.52 L98.0471 795.52 L98.0471 800.844 L93.1282 800.844 Q96.0795 802.666 97.4974 805.386 Q98.8862 808.106 98.8862 812.041 Q98.8862 817.018 96.1085 819.97 Q93.3018 822.892 88.6143 822.892 Q83.1456 822.892 80.3678 819.246 Q77.5901 815.572 77.5901 808.309 L77.5901 800.844 L77.0692 800.844 Q73.3945 800.844 71.398 803.274 Q69.3725 805.676 69.3725 810.045 Q69.3725 812.823 70.038 815.456 Q70.7035 818.089 72.0345 820.519 L67.1156 820.519 Q65.9871 817.597 65.4374 814.848 Q64.8586 812.099 64.8586 809.495 Q64.8586 802.464 68.5045 798.992 Q72.1503 795.52 79.5576 795.52 Z" fill="#000000" fill-rule="evenodd" fill-opacity="1" /><path clip-path="url(#clip370)" d="M78.487 757.615 L98.0471 757.615 L98.0471 762.939 L78.6607 762.939 Q74.06 762.939 71.7741 764.733 Q69.4883 766.527 69.4883 770.115 Q69.4883 774.426 72.2371 776.914 Q74.9859 779.403 79.7313 779.403 L98.0471 779.403 L98.0471 784.756 L65.6399 784.756 L65.6399 779.403 L70.6746 779.403 Q67.7522 777.493 66.3054 774.918 Q64.8586 772.314 64.8586 768.928 Q64.8586 763.344 68.3309 760.479 Q71.7741 757.615 78.487 757.615 Z" fill="#000000" fill-rule="evenodd" fill-opacity="1" /><path clip-path="url(#clip370)" d="M66.8841 723.674 L71.8609 723.674 Q70.6167 725.931 70.0091 728.217 Q69.3725 730.474 69.3725 732.788 Q69.3725 737.968 72.6711 740.832 Q75.9408 743.697 81.8724 743.697 Q87.8041 743.697 91.1027 740.832 Q94.3724 737.968 94.3724 732.788 Q94.3724 730.474 93.7647 728.217 Q93.1282 725.931 91.884 723.674 L96.8029 723.674 Q97.8446 725.902 98.3654 728.303 Q98.8862 730.676 98.8862 733.367 Q98.8862 740.688 94.2856 744.999 Q89.6849 749.31 81.8724 749.31 Q73.9442 749.31 69.4014 744.97 Q64.8586 740.601 64.8586 733.02 Q64.8586 730.56 65.3795 728.217 Q65.8714 725.873 66.8841 723.674 Z" fill="#000000" fill-rule="evenodd" fill-opacity="1" /><path clip-path="url(#clip370)" d="M80.5125 686.695 L83.1167 686.695 L83.1167 711.174 Q88.6143 710.827 91.5078 707.875 Q94.3724 704.895 94.3724 699.6 Q94.3724 696.533 93.6201 693.668 Q92.8678 690.775 91.3631 687.939 L96.3978 687.939 Q97.6131 690.804 98.2497 693.813 Q98.8862 696.822 98.8862 699.918 Q98.8862 707.673 94.3724 712.216 Q89.8585 716.729 82.1618 716.729 Q74.2047 716.729 69.5461 712.447 Q64.8586 708.136 64.8586 700.844 Q64.8586 694.305 69.0832 690.514 Q73.2787 686.695 80.5125 686.695 M78.95 692.019 Q74.5808 692.077 71.9767 694.478 Q69.3725 696.851 69.3725 700.786 Q69.3725 705.242 71.8899 707.933 Q74.4072 710.595 78.9789 711 L78.95 692.019 Z" fill="#000000" fill-rule="evenodd" fill-opacity="1" /><path clip-path="url(#clip370)" d="M53.0821 646.331 Q59.7371 650.208 66.2475 652.089 Q72.7579 653.969 79.4419 653.969 Q86.1259 653.969 92.6941 652.089 Q99.2335 650.179 105.86 646.331 L105.86 650.96 Q99.0599 655.3 92.4916 657.47 Q85.9234 659.612 79.4419 659.612 Q72.9894 659.612 66.4501 657.47 Q59.9108 655.329 53.0821 650.96 L53.0821 646.331 Z" fill="#000000" fill-rule="evenodd" fill-opacity="1" /><path clip-path="url(#clip370)" d="M93.186 630.85 L110.373 630.85 L110.373 636.203 L65.6399 636.203 L65.6399 630.85 L70.5589 630.85 Q67.6653 629.172 66.2765 626.626 Q64.8586 624.051 64.8586 620.492 Q64.8586 614.589 69.5461 610.914 Q74.2336 607.21 81.8724 607.21 Q89.5113 607.21 94.1988 610.914 Q98.8862 614.589 98.8862 620.492 Q98.8862 624.051 97.4974 626.626 Q96.0795 629.172 93.186 630.85 M81.8724 612.737 Q75.9986 612.737 72.6711 615.167 Q69.3146 617.569 69.3146 621.794 Q69.3146 626.018 72.6711 628.449 Q75.9986 630.85 81.8724 630.85 Q87.7463 630.85 91.1027 628.449 Q94.4303 626.018 94.4303 621.794 Q94.4303 617.569 91.1027 615.167 Q87.7463 612.737 81.8724 612.737 Z" fill="#000000" fill-rule="evenodd" fill-opacity="1" /><path clip-path="url(#clip370)" d="M80.5125 570.665 L83.1167 570.665 L83.1167 595.144 Q88.6143 594.797 91.5078 591.846 Q94.3724 588.866 94.3724 583.57 Q94.3724 580.503 93.6201 577.639 Q92.8678 574.745 91.3631 571.91 L96.3978 571.91 Q97.6131 574.774 98.2497 577.783 Q98.8862 580.793 98.8862 583.889 Q98.8862 591.643 94.3724 596.186 Q89.8585 600.7 82.1618 600.7 Q74.2047 600.7 69.5461 596.418 Q64.8586 592.106 64.8586 584.815 Q64.8586 578.275 69.0832 574.485 Q73.2787 570.665 80.5125 570.665 M78.95 575.989 Q74.5808 576.047 71.9767 578.449 Q69.3725 580.822 69.3725 584.757 Q69.3725 589.213 71.8899 591.904 Q74.4072 594.566 78.9789 594.971 L78.95 575.989 Z" fill="#000000" fill-rule="evenodd" fill-opacity="1" /><path clip-path="url(#clip370)" d="M69.3725 549.369 Q69.3725 553.652 72.729 556.14 Q76.0565 558.628 81.8724 558.628 Q87.6884 558.628 91.0449 556.169 Q94.3724 553.681 94.3724 549.369 Q94.3724 545.116 91.0159 542.627 Q87.6595 540.139 81.8724 540.139 Q76.1144 540.139 72.7579 542.627 Q69.3725 545.116 69.3725 549.369 M64.8586 549.369 Q64.8586 542.425 69.3725 538.461 Q73.8864 534.497 81.8724 534.497 Q89.8296 534.497 94.3724 538.461 Q98.8862 542.425 98.8862 549.369 Q98.8862 556.343 94.3724 560.307 Q89.8296 564.242 81.8724 564.242 Q73.8864 564.242 69.3725 560.307 Q64.8586 556.343 64.8586 549.369 Z" fill="#000000" fill-rule="evenodd" fill-opacity="1" /><path clip-path="url(#clip370)" d="M93.186 520.521 L110.373 520.521 L110.373 525.874 L65.6399 525.874 L65.6399 520.521 L70.5589 520.521 Q67.6653 518.843 66.2765 516.296 Q64.8586 513.721 64.8586 510.162 Q64.8586 504.26 69.5461 500.585 Q74.2336 496.881 81.8724 496.881 Q89.5113 496.881 94.1988 500.585 Q98.8862 504.26 98.8862 510.162 Q98.8862 513.721 97.4974 516.296 Q96.0795 518.843 93.186 520.521 M81.8724 502.408 Q75.9986 502.408 72.6711 504.838 Q69.3146 507.24 69.3146 511.464 Q69.3146 515.689 72.6711 518.119 Q75.9986 520.521 81.8724 520.521 Q87.7463 520.521 91.1027 518.119 Q94.4303 515.689 94.4303 511.464 Q94.4303 507.24 91.1027 504.838 Q87.7463 502.408 81.8724 502.408 Z" fill="#000000" fill-rule="evenodd" fill-opacity="1" /><path clip-path="url(#clip370)" d="M53.0242 488.056 L53.0242 482.732 L98.0471 482.732 L98.0471 488.056 L53.0242 488.056 Z" fill="#000000" fill-rule="evenodd" fill-opacity="1" /><path clip-path="url(#clip370)" d="M80.5125 443.872 L83.1167 443.872 L83.1167 468.351 Q88.6143 468.004 91.5078 465.053 Q94.3724 462.072 94.3724 456.777 Q94.3724 453.71 93.6201 450.845 Q92.8678 447.952 91.3631 445.116 L96.3978 445.116 Q97.6131 447.981 98.2497 450.99 Q98.8862 453.999 98.8862 457.095 Q98.8862 464.85 94.3724 469.393 Q89.8585 473.907 82.1618 473.907 Q74.2047 473.907 69.5461 469.624 Q64.8586 465.313 64.8586 458.021 Q64.8586 451.482 69.0832 447.692 Q73.2787 443.872 80.5125 443.872 M78.95 449.196 Q74.5808 449.254 71.9767 451.656 Q69.3725 454.028 69.3725 457.963 Q69.3725 462.419 71.8899 465.11 Q74.4072 467.772 78.9789 468.178 L78.95 449.196 Z" fill="#000000" fill-rule="evenodd" fill-opacity="1" /><path clip-path="url(#clip370)" d="M53.0821 435.973 L53.0821 431.343 Q59.9108 427.003 66.4501 424.862 Q72.9894 422.692 79.4419 422.692 Q85.9234 422.692 92.4916 424.862 Q99.0599 427.003 105.86 431.343 L105.86 435.973 Q99.2335 432.124 92.6941 430.244 Q86.1259 428.334 79.4419 428.334 Q72.7579 428.334 66.2475 430.244 Q59.7371 432.124 53.0821 435.973 Z" fill="#000000" fill-rule="evenodd" fill-opacity="1" /><path clip-path="url(#clip370)" d="M699.51 12.096 L750.673 12.096 L750.673 18.9825 L729.204 18.9825 L729.204 72.576 L720.98 72.576 L720.98 18.9825 L699.51 18.9825 L699.51 12.096 Z" fill="#000000" fill-rule="evenodd" fill-opacity="1" /><path clip-path="url(#clip370)" d="M794.828 14.0809 L794.828 22.0612 Q790.17 19.8332 786.038 18.7395 Q781.906 17.6457 778.057 17.6457 Q771.373 17.6457 767.728 20.2383 Q764.122 22.8309 764.122 27.611 Q764.122 31.6214 766.512 33.6873 Q768.943 35.7128 775.667 36.9686 L780.61 37.9813 Q789.765 39.7232 794.099 44.1387 Q798.474 48.5136 798.474 55.8863 Q798.474 64.6767 792.56 69.2137 Q786.686 73.7508 775.303 73.7508 Q771.009 73.7508 766.148 72.7785 Q761.327 71.8063 756.142 69.9024 L756.142 61.4765 Q761.125 64.2716 765.905 65.6895 Q770.685 67.1073 775.303 67.1073 Q782.311 67.1073 786.119 64.3527 Q789.927 61.598 789.927 56.4939 Q789.927 52.0379 787.172 49.5264 Q784.458 47.0148 778.219 45.759 L773.237 44.7868 Q764.082 42.9639 759.99 39.075 Q755.899 35.1862 755.899 28.2591 Q755.899 20.2383 761.53 15.6203 Q767.201 11.0023 777.126 11.0023 Q781.379 11.0023 785.795 11.7719 Q790.21 12.5416 794.828 14.0809 Z" fill="#000000" fill-rule="evenodd" fill-opacity="1" /><path clip-path="url(#clip370)" d="M819.417 18.8205 L819.417 41.5461 L829.706 41.5461 Q835.418 41.5461 838.537 38.5889 Q841.657 35.6318 841.657 30.163 Q841.657 24.7348 838.537 21.7777 Q835.418 18.8205 829.706 18.8205 L819.417 18.8205 M811.234 12.096 L829.706 12.096 Q839.874 12.096 845.059 16.714 Q850.285 21.2916 850.285 30.163 Q850.285 39.1155 845.059 43.6931 Q839.874 48.2706 829.706 48.2706 L819.417 48.2706 L819.417 72.576 L811.234 72.576 L811.234 12.096 Z" fill="#000000" fill-rule="evenodd" fill-opacity="1" /><path clip-path="url(#clip370)" d="M887.634 12.096 L925.875 12.096 L925.875 18.9825 L895.817 18.9825 L895.817 36.8875 L924.619 36.8875 L924.619 43.7741 L895.817 43.7741 L895.817 65.6895 L926.604 65.6895 L926.604 72.576 L887.634 72.576 L887.634 12.096 Z" fill="#000000" fill-rule="evenodd" fill-opacity="1" /><path clip-path="url(#clip370)" d="M975.053 35.9153 Q977.848 30.8922 981.737 28.5022 Q985.626 26.1121 990.892 26.1121 Q997.981 26.1121 1001.83 31.0947 Q1005.68 36.0368 1005.68 45.1919 L1005.68 72.576 L998.184 72.576 L998.184 45.4349 Q998.184 38.913 995.875 35.7533 Q993.566 32.5936 988.826 32.5936 Q983.033 32.5936 979.671 36.4419 Q976.309 40.2903 976.309 46.9338 L976.309 72.576 L968.815 72.576 L968.815 45.4349 Q968.815 38.8725 966.506 35.7533 Q964.197 32.5936 959.376 32.5936 Q953.664 32.5936 950.302 36.4824 Q946.94 40.3308 946.94 46.9338 L946.94 72.576 L939.445 72.576 L939.445 27.2059 L946.94 27.2059 L946.94 34.2544 Q949.492 30.082 953.057 28.0971 Q956.621 26.1121 961.523 26.1121 Q966.465 26.1121 969.908 28.6237 Q973.392 31.1352 975.053 35.9153 Z" fill="#000000" fill-rule="evenodd" fill-opacity="1" /><path clip-path="url(#clip370)" d="M1020.54 27.2059 L1028 27.2059 L1028 72.576 L1020.54 72.576 L1020.54 27.2059 M1020.54 9.54393 L1028 9.54393 L1028 18.9825 L1020.54 18.9825 L1020.54 9.54393 Z" fill="#000000" fill-rule="evenodd" fill-opacity="1" /><path clip-path="url(#clip370)" d="M1072.52 28.5427 L1072.52 35.5912 Q1069.36 33.9709 1065.96 33.1607 Q1062.55 32.3505 1058.91 32.3505 Q1053.36 32.3505 1050.56 34.0519 Q1047.81 35.7533 1047.81 39.156 Q1047.81 41.7486 1049.79 43.2475 Q1051.78 44.7058 1057.77 46.0426 L1060.32 46.6097 Q1068.26 48.3111 1071.59 51.4303 Q1074.95 54.509 1074.95 60.0587 Q1074.95 66.3781 1069.93 70.0644 Q1064.94 73.7508 1056.19 73.7508 Q1052.55 73.7508 1048.58 73.0216 Q1044.65 72.3329 1040.27 70.9151 L1040.27 63.2184 Q1044.4 65.3654 1048.41 66.4591 Q1052.43 67.5124 1056.35 67.5124 Q1061.62 67.5124 1064.46 65.73 Q1067.29 63.9071 1067.29 60.6258 Q1067.29 57.5877 1065.23 55.9673 Q1063.2 54.3469 1056.27 52.8481 L1053.68 52.2405 Q1046.75 50.7821 1043.68 47.7845 Q1040.6 44.7463 1040.6 39.4801 Q1040.6 33.0797 1045.13 29.5959 Q1049.67 26.1121 1058.02 26.1121 Q1062.15 26.1121 1065.79 26.7198 Q1069.44 27.3274 1072.52 28.5427 Z" fill="#000000" fill-rule="evenodd" fill-opacity="1" /><path clip-path="url(#clip370)" d="M1115.74 28.5427 L1115.74 35.5912 Q1112.58 33.9709 1109.18 33.1607 Q1105.78 32.3505 1102.13 32.3505 Q1096.58 32.3505 1093.78 34.0519 Q1091.03 35.7533 1091.03 39.156 Q1091.03 41.7486 1093.02 43.2475 Q1095 44.7058 1101 46.0426 L1103.55 46.6097 Q1111.49 48.3111 1114.81 51.4303 Q1118.17 54.509 1118.17 60.0587 Q1118.17 66.3781 1113.15 70.0644 Q1108.17 73.7508 1099.42 73.7508 Q1095.77 73.7508 1091.8 73.0216 Q1087.87 72.3329 1083.5 70.9151 L1083.5 63.2184 Q1087.63 65.3654 1091.64 66.4591 Q1095.65 67.5124 1099.58 67.5124 Q1104.84 67.5124 1107.68 65.73 Q1110.52 63.9071 1110.52 60.6258 Q1110.52 57.5877 1108.45 55.9673 Q1106.42 54.3469 1099.5 52.8481 L1096.9 52.2405 Q1089.98 50.7821 1086.9 47.7845 Q1083.82 44.7463 1083.82 39.4801 Q1083.82 33.0797 1088.36 29.5959 Q1092.89 26.1121 1101.24 26.1121 Q1105.37 26.1121 1109.02 26.7198 Q1112.66 27.3274 1115.74 28.5427 Z" fill="#000000" fill-rule="evenodd" fill-opacity="1" /><path clip-path="url(#clip370)" d="M1130.04 27.2059 L1137.49 27.2059 L1137.49 72.576 L1130.04 72.576 L1130.04 27.2059 M1130.04 9.54393 L1137.49 9.54393 L1137.49 18.9825 L1130.04 18.9825 L1130.04 9.54393 Z" fill="#000000" fill-rule="evenodd" fill-opacity="1" /><path clip-path="url(#clip370)" d="M1170.67 32.4315 Q1164.68 32.4315 1161.19 37.1306 Q1157.71 41.7891 1157.71 49.9314 Q1157.71 58.0738 1161.15 62.7728 Q1164.64 67.4314 1170.67 67.4314 Q1176.63 67.4314 1180.11 62.7323 Q1183.59 58.0333 1183.59 49.9314 Q1183.59 41.8701 1180.11 37.1711 Q1176.63 32.4315 1170.67 32.4315 M1170.67 26.1121 Q1180.39 26.1121 1185.94 32.4315 Q1191.49 38.7509 1191.49 49.9314 Q1191.49 61.0714 1185.94 67.4314 Q1180.39 73.7508 1170.67 73.7508 Q1160.91 73.7508 1155.36 67.4314 Q1149.85 61.0714 1149.85 49.9314 Q1149.85 38.7509 1155.36 32.4315 Q1160.91 26.1121 1170.67 26.1121 Z" fill="#000000" fill-rule="evenodd" fill-opacity="1" /><path clip-path="url(#clip370)" d="M1241.56 45.1919 L1241.56 72.576 L1234.11 72.576 L1234.11 45.4349 Q1234.11 38.994 1231.6 35.7938 Q1229.09 32.5936 1224.06 32.5936 Q1218.03 32.5936 1214.54 36.4419 Q1211.06 40.2903 1211.06 46.9338 L1211.06 72.576 L1203.56 72.576 L1203.56 27.2059 L1211.06 27.2059 L1211.06 34.2544 Q1213.73 30.163 1217.34 28.1376 Q1220.98 26.1121 1225.72 26.1121 Q1233.54 26.1121 1237.55 30.9732 Q1241.56 35.7938 1241.56 45.1919 Z" fill="#000000" fill-rule="evenodd" fill-opacity="1" /><path clip-path="url(#clip370)" d="M1285.35 28.5427 L1285.35 35.5912 Q1282.19 33.9709 1278.79 33.1607 Q1275.39 32.3505 1271.74 32.3505 Q1266.19 32.3505 1263.4 34.0519 Q1260.64 35.7533 1260.64 39.156 Q1260.64 41.7486 1262.63 43.2475 Q1264.61 44.7058 1270.61 46.0426 L1273.16 46.6097 Q1281.1 48.3111 1284.42 51.4303 Q1287.78 54.509 1287.78 60.0587 Q1287.78 66.3781 1282.76 70.0644 Q1277.78 73.7508 1269.03 73.7508 Q1265.38 73.7508 1261.41 73.0216 Q1257.48 72.3329 1253.11 70.9151 L1253.11 63.2184 Q1257.24 65.3654 1261.25 66.4591 Q1265.26 67.5124 1269.19 67.5124 Q1274.46 67.5124 1277.29 65.73 Q1280.13 63.9071 1280.13 60.6258 Q1280.13 57.5877 1278.06 55.9673 Q1276.04 54.3469 1269.11 52.8481 L1266.52 52.2405 Q1259.59 50.7821 1256.51 47.7845 Q1253.43 44.7463 1253.43 39.4801 Q1253.43 33.0797 1257.97 29.5959 Q1262.51 26.1121 1270.85 26.1121 Q1274.98 26.1121 1278.63 26.7198 Q1282.27 27.3274 1285.35 28.5427 Z" fill="#000000" fill-rule="evenodd" fill-opacity="1" /><path clip-path="url(#clip370)" d="M1320.68 27.2059 L1328.58 27.2059 L1342.75 65.2844 L1356.93 27.2059 L1364.83 27.2059 L1347.82 72.576 L1337.69 72.576 L1320.68 27.2059 Z" fill="#000000" fill-rule="evenodd" fill-opacity="1" /><path clip-path="url(#clip370)" d="M1404.04 28.5427 L1404.04 35.5912 Q1400.88 33.9709 1397.48 33.1607 Q1394.08 32.3505 1390.43 32.3505 Q1384.88 32.3505 1382.09 34.0519 Q1379.33 35.7533 1379.33 39.156 Q1379.33 41.7486 1381.32 43.2475 Q1383.3 44.7058 1389.3 46.0426 L1391.85 46.6097 Q1399.79 48.3111 1403.11 51.4303 Q1406.47 54.509 1406.47 60.0587 Q1406.47 66.3781 1401.45 70.0644 Q1396.47 73.7508 1387.72 73.7508 Q1384.07 73.7508 1380.1 73.0216 Q1376.17 72.3329 1371.8 70.9151 L1371.8 63.2184 Q1375.93 65.3654 1379.94 66.4591 Q1383.95 67.5124 1387.88 67.5124 Q1393.15 67.5124 1395.98 65.73 Q1398.82 63.9071 1398.82 60.6258 Q1398.82 57.5877 1396.75 55.9673 Q1394.73 54.3469 1387.8 52.8481 L1385.21 52.2405 Q1378.28 50.7821 1375.2 47.7845 Q1372.12 44.7463 1372.12 39.4801 Q1372.12 33.0797 1376.66 29.5959 Q1381.2 26.1121 1389.54 26.1121 Q1393.67 26.1121 1397.32 26.7198 Q1400.96 27.3274 1404.04 28.5427 Z" fill="#000000" fill-rule="evenodd" fill-opacity="1" /><path clip-path="url(#clip370)" d="M1465.25 20.1573 L1454.15 50.2555 L1476.39 50.2555 L1465.25 20.1573 M1460.63 12.096 L1469.91 12.096 L1492.96 72.576 L1484.45 72.576 L1478.94 57.061 L1451.68 57.061 L1446.17 72.576 L1437.54 72.576 L1460.63 12.096 Z" fill="#000000" fill-rule="evenodd" fill-opacity="1" /><path clip-path="url(#clip370)" d="M1507.38 14.324 L1507.38 27.2059 L1522.74 27.2059 L1522.74 32.9987 L1507.38 32.9987 L1507.38 57.6282 Q1507.38 63.1779 1508.88 64.7578 Q1510.42 66.3376 1515.08 66.3376 L1522.74 66.3376 L1522.74 72.576 L1515.08 72.576 Q1506.45 72.576 1503.17 69.3758 Q1499.89 66.1351 1499.89 57.6282 L1499.89 32.9987 L1494.42 32.9987 L1494.42 27.2059 L1499.89 27.2059 L1499.89 14.324 L1507.38 14.324 Z" fill="#000000" fill-rule="evenodd" fill-opacity="1" /><path clip-path="url(#clip370)" d="M1539.91 14.324 L1539.91 27.2059 L1555.26 27.2059 L1555.26 32.9987 L1539.91 32.9987 L1539.91 57.6282 Q1539.91 63.1779 1541.41 64.7578 Q1542.95 66.3376 1547.61 66.3376 L1555.26 66.3376 L1555.26 72.576 L1547.61 72.576 Q1538.98 72.576 1535.7 69.3758 Q1532.42 66.1351 1532.42 57.6282 L1532.42 32.9987 L1526.95 32.9987 L1526.95 27.2059 L1532.42 27.2059 L1532.42 14.324 L1539.91 14.324 Z" fill="#000000" fill-rule="evenodd" fill-opacity="1" /><path clip-path="url(#clip370)" d="M1603.87 48.0275 L1603.87 51.6733 L1569.6 51.6733 Q1570.09 59.3701 1574.22 63.421 Q1578.39 67.4314 1585.81 67.4314 Q1590.1 67.4314 1594.11 66.3781 Q1598.16 65.3249 1602.13 63.2184 L1602.13 70.267 Q1598.12 71.9684 1593.91 72.8596 Q1589.7 73.7508 1585.36 73.7508 Q1574.51 73.7508 1568.15 67.4314 Q1561.83 61.1119 1561.83 50.3365 Q1561.83 39.1965 1567.82 32.6746 Q1573.86 26.1121 1584.07 26.1121 Q1593.22 26.1121 1598.53 32.0264 Q1603.87 37.9003 1603.87 48.0275 M1596.42 45.84 Q1596.34 39.7232 1592.98 36.0774 Q1589.66 32.4315 1584.15 32.4315 Q1577.91 32.4315 1574.14 35.9558 Q1570.41 39.4801 1569.85 45.8805 L1596.42 45.84 Z" fill="#000000" fill-rule="evenodd" fill-opacity="1" /><path clip-path="url(#clip370)" d="M1653.82 45.1919 L1653.82 72.576 L1646.37 72.576 L1646.37 45.4349 Q1646.37 38.994 1643.86 35.7938 Q1641.35 32.5936 1636.32 32.5936 Q1630.29 32.5936 1626.8 36.4419 Q1623.32 40.2903 1623.32 46.9338 L1623.32 72.576 L1615.82 72.576 L1615.82 27.2059 L1623.32 27.2059 L1623.32 34.2544 Q1625.99 30.163 1629.6 28.1376 Q1633.24 26.1121 1637.98 26.1121 Q1645.8 26.1121 1649.81 30.9732 Q1653.82 35.7938 1653.82 45.1919 Z" fill="#000000" fill-rule="evenodd" fill-opacity="1" /><path clip-path="url(#clip370)" d="M1698.54 34.0924 L1698.54 9.54393 L1706 9.54393 L1706 72.576 L1698.54 72.576 L1698.54 65.7705 Q1696.19 69.8214 1692.59 71.8063 Q1689.02 73.7508 1684 73.7508 Q1675.78 73.7508 1670.59 67.1883 Q1665.45 60.6258 1665.45 49.9314 Q1665.45 39.2371 1670.59 32.6746 Q1675.78 26.1121 1684 26.1121 Q1689.02 26.1121 1692.59 28.0971 Q1696.19 30.0415 1698.54 34.0924 M1673.15 49.9314 Q1673.15 58.1548 1676.51 62.8538 Q1679.91 67.5124 1685.82 67.5124 Q1691.74 67.5124 1695.14 62.8538 Q1698.54 58.1548 1698.54 49.9314 Q1698.54 41.7081 1695.14 37.0496 Q1691.74 32.3505 1685.82 32.3505 Q1679.91 32.3505 1676.51 37.0496 Q1673.15 41.7081 1673.15 49.9314 Z" fill="#000000" fill-rule="evenodd" fill-opacity="1" /><path clip-path="url(#clip370)" d="M1741.97 49.7694 Q1732.94 49.7694 1729.45 51.8354 Q1725.97 53.9013 1725.97 58.8839 Q1725.97 62.8538 1728.56 65.2034 Q1731.19 67.5124 1735.69 67.5124 Q1741.89 67.5124 1745.62 63.1374 Q1749.38 58.7219 1749.38 51.4303 L1749.38 49.7694 L1741.97 49.7694 M1756.84 46.6907 L1756.84 72.576 L1749.38 72.576 L1749.38 65.6895 Q1746.83 69.8214 1743.02 71.8063 Q1739.22 73.7508 1733.71 73.7508 Q1726.74 73.7508 1722.61 69.8619 Q1718.52 65.9325 1718.52 59.3701 Q1718.52 51.7138 1723.62 47.825 Q1728.76 43.9361 1738.93 43.9361 L1749.38 43.9361 L1749.38 43.2069 Q1749.38 38.0623 1745.98 35.2672 Q1742.62 32.4315 1736.5 32.4315 Q1732.61 32.4315 1728.93 33.3632 Q1725.24 34.295 1721.84 36.1584 L1721.84 29.2718 Q1725.93 27.692 1729.78 26.9223 Q1733.63 26.1121 1737.27 26.1121 Q1747.11 26.1121 1751.98 31.2163 Q1756.84 36.3204 1756.84 46.6907 Z" fill="#000000" fill-rule="evenodd" fill-opacity="1" /><path clip-path="url(#clip370)" d="M1809.9 45.1919 L1809.9 72.576 L1802.45 72.576 L1802.45 45.4349 Q1802.45 38.994 1799.94 35.7938 Q1797.43 32.5936 1792.4 32.5936 Q1786.37 32.5936 1782.88 36.4419 Q1779.4 40.2903 1779.4 46.9338 L1779.4 72.576 L1771.91 72.576 L1771.91 27.2059 L1779.4 27.2059 L1779.4 34.2544 Q1782.07 30.163 1785.68 28.1376 Q1789.33 26.1121 1794.06 26.1121 Q1801.88 26.1121 1805.89 30.9732 Q1809.9 35.7938 1809.9 45.1919 Z" fill="#000000" fill-rule="evenodd" fill-opacity="1" /><path clip-path="url(#clip370)" d="M1857.42 28.9478 L1857.42 35.9153 Q1854.26 34.1734 1851.06 33.3227 Q1847.9 32.4315 1844.66 32.4315 Q1837.41 32.4315 1833.4 37.0496 Q1829.39 41.6271 1829.39 49.9314 Q1829.39 58.2358 1833.4 62.8538 Q1837.41 67.4314 1844.66 67.4314 Q1847.9 67.4314 1851.06 66.5807 Q1854.26 65.6895 1857.42 63.9476 L1857.42 70.8341 Q1854.3 72.2924 1850.94 73.0216 Q1847.62 73.7508 1843.85 73.7508 Q1833.6 73.7508 1827.57 67.3098 Q1821.53 60.8689 1821.53 49.9314 Q1821.53 38.832 1827.61 32.472 Q1833.72 26.1121 1844.34 26.1121 Q1847.78 26.1121 1851.06 26.8413 Q1854.34 27.5299 1857.42 28.9478 Z" fill="#000000" fill-rule="evenodd" fill-opacity="1" /><path clip-path="url(#clip370)" d="M1909.19 48.0275 L1909.19 51.6733 L1874.92 51.6733 Q1875.41 59.3701 1879.54 63.421 Q1883.71 67.4314 1891.12 67.4314 Q1895.42 67.4314 1899.43 66.3781 Q1903.48 65.3249 1907.45 63.2184 L1907.45 70.267 Q1903.44 71.9684 1899.23 72.8596 Q1895.01 73.7508 1890.68 73.7508 Q1879.82 73.7508 1873.46 67.4314 Q1867.14 61.1119 1867.14 50.3365 Q1867.14 39.1965 1873.14 32.6746 Q1879.17 26.1121 1889.38 26.1121 Q1898.54 26.1121 1903.84 32.0264 Q1909.19 37.9003 1909.19 48.0275 M1901.74 45.84 Q1901.66 39.7232 1898.29 36.0774 Q1894.97 32.4315 1889.46 32.4315 Q1883.23 32.4315 1879.46 35.9558 Q1875.73 39.4801 1875.16 45.8805 L1901.74 45.84 Z" fill="#000000" fill-rule="evenodd" fill-opacity="1" /><polyline clip-path="url(#clip372)" style="stroke:#009af9; stroke-linecap:round; stroke-linejoin:round; stroke-width:4; stroke-opacity:1; fill:none" points="
  533.682,1257.07 542.135,945.611 547.961,856.622 566.417,767.633 624.204,545.16 
  1040.75,411.676 2075.02,189.204 
  
  "/>
</svg>
