<?xml version="1.0" encoding="utf-8"?>
<svg xmlns="http://www.w3.org/2000/svg" xmlns:xlink="http://www.w3.org/1999/xlink" width="550" height="380" viewBox="0 0 2200 1520">
<defs>
  <clipPath id="clip330">
    <rect x="0" y="0" width="2200" height="1520"/>
  </clipPath>
</defs>
<path clip-path="url(#clip330)" d="
M0 1520 L2200 1520 L2200 0 L0 0  Z
  " fill="#ffffff" fill-rule="evenodd" fill-opacity="1"/>
<defs>
  <clipPath id="clip331">
    <rect x="440" y="0" width="1541" height="1520"/>
  </clipPath>
</defs>
<path clip-path="url(#clip330)" d="
M450.174 1289.11 L2121.26 1289.11 L2121.26 157.167 L450.174 157.167  Z
  " fill="#ffffff" fill-rule="evenodd" fill-opacity="1"/>
<defs>
  <clipPath id="clip332">
    <rect x="450" y="157" width="1672" height="1133"/>
  </clipPath>
</defs>
<polyline clip-path="url(#clip332)" style="stroke:#000000; stroke-linecap:round; stroke-linejoin:round; stroke-width:2; stroke-opacity:0.1; fill:none" points="
  723.143,1289.11 723.143,157.167 
  "/>
<polyline clip-path="url(#clip332)" style="stroke:#000000; stroke-linecap:round; stroke-linejoin:round; stroke-width:2; stroke-opacity:0.1; fill:none" points="
  1043.02,1289.11 1043.02,157.167 
  "/>
<polyline clip-path="url(#clip332)" style="stroke:#000000; stroke-linecap:round; stroke-linejoin:round; stroke-width:2; stroke-opacity:0.1; fill:none" points="
  1362.9,1289.11 1362.9,157.167 
  "/>
<polyline clip-path="url(#clip332)" style="stroke:#000000; stroke-linecap:round; stroke-linejoin:round; stroke-width:2; stroke-opacity:0.1; fill:none" points="
  1682.78,1289.11 1682.78,157.167 
  "/>
<polyline clip-path="url(#clip332)" style="stroke:#000000; stroke-linecap:round; stroke-linejoin:round; stroke-width:2; stroke-opacity:0.1; fill:none" points="
  2002.65,1289.11 2002.65,157.167 
  "/>
<polyline clip-path="url(#clip330)" style="stroke:#000000; stroke-linecap:round; stroke-linejoin:round; stroke-width:4; stroke-opacity:1; fill:none" points="
  450.174,1289.11 2121.26,1289.11 
  "/>
<polyline clip-path="url(#clip330)" style="stroke:#000000; stroke-linecap:round; stroke-linejoin:round; stroke-width:4; stroke-opacity:1; fill:none" points="
  723.143,1289.11 723.143,1270.21 
  "/>
<polyline clip-path="url(#clip330)" style="stroke:#000000; stroke-linecap:round; stroke-linejoin:round; stroke-width:4; stroke-opacity:1; fill:none" points="
  1043.02,1289.11 1043.02,1270.21 
  "/>
<polyline clip-path="url(#clip330)" style="stroke:#000000; stroke-linecap:round; stroke-linejoin:round; stroke-width:4; stroke-opacity:1; fill:none" points="
  1362.9,1289.11 1362.9,1270.21 
  "/>
<polyline clip-path="url(#clip330)" style="stroke:#000000; stroke-linecap:round; stroke-linejoin:round; stroke-width:4; stroke-opacity:1; fill:none" points="
  1682.78,1289.11 1682.78,1270.21 
  "/>
<polyline clip-path="url(#clip330)" style="stroke:#000000; stroke-linecap:round; stroke-linejoin:round; stroke-width:4; stroke-opacity:1; fill:none" points="
  2002.65,1289.11 2002.65,1270.21 
  "/>
<path clip-path="url(#clip330)" d="M589.434 1337.08 L612.38 1337.08 L612.38 1342 L594.787 1342 L594.787 1352.59 Q596.061 1352.16 597.334 1351.96 Q598.607 1351.73 599.88 1351.73 Q607.114 1351.73 611.338 1355.69 Q615.563 1359.65 615.563 1366.42 Q615.563 1373.4 611.223 1377.28 Q606.882 1381.12 598.983 1381.12 Q596.263 1381.12 593.427 1380.66 Q590.621 1380.2 587.612 1379.27 L587.612 1373.4 Q590.216 1374.82 592.993 1375.51 Q595.771 1376.2 598.867 1376.2 Q603.873 1376.2 606.795 1373.57 Q609.718 1370.94 609.718 1366.42 Q609.718 1361.91 606.795 1359.28 Q603.873 1356.64 598.867 1356.64 Q596.524 1356.64 594.18 1357.17 Q591.865 1357.69 589.434 1358.79 L589.434 1337.08 Z" fill="#000000" fill-rule="evenodd" fill-opacity="1" /><path clip-path="url(#clip330)" d="M627.079 1372.94 L633.184 1372.94 L633.184 1380.28 L627.079 1380.28 L627.079 1372.94 Z" fill="#000000" fill-rule="evenodd" fill-opacity="1" /><path clip-path="url(#clip330)" d="M658.416 1340.93 Q653.902 1340.93 651.616 1345.39 Q649.359 1349.82 649.359 1358.73 Q649.359 1367.61 651.616 1372.07 Q653.902 1376.49 658.416 1376.49 Q662.958 1376.49 665.215 1372.07 Q667.501 1367.61 667.501 1358.73 Q667.501 1349.82 665.215 1345.39 Q662.958 1340.93 658.416 1340.93 M658.416 1336.3 Q665.678 1336.3 669.498 1342.06 Q673.346 1347.79 673.346 1358.73 Q673.346 1369.64 669.498 1375.39 Q665.678 1381.12 658.416 1381.12 Q651.153 1381.12 647.305 1375.39 Q643.485 1369.64 643.485 1358.73 Q643.485 1347.79 647.305 1342.06 Q651.153 1336.3 658.416 1336.3 Z" fill="#000000" fill-rule="evenodd" fill-opacity="1" /><path clip-path="url(#clip330)" d="M696.118 1340.93 Q691.604 1340.93 689.318 1345.39 Q687.061 1349.82 687.061 1358.73 Q687.061 1367.61 689.318 1372.07 Q691.604 1376.49 696.118 1376.49 Q700.661 1376.49 702.918 1372.07 Q705.204 1367.61 705.204 1358.73 Q705.204 1349.82 702.918 1345.39 Q700.661 1340.93 696.118 1340.93 M696.118 1336.3 Q703.381 1336.3 707.2 1342.06 Q711.048 1347.79 711.048 1358.73 Q711.048 1369.64 707.2 1375.39 Q703.381 1381.12 696.118 1381.12 Q688.855 1381.12 685.007 1375.39 Q681.187 1369.64 681.187 1358.73 Q681.187 1347.79 685.007 1342.06 Q688.855 1336.3 696.118 1336.3 Z" fill="#000000" fill-rule="evenodd" fill-opacity="1" /><path clip-path="url(#clip330)" d="M756.534 1348.46 L743.311 1361.74 L756.534 1374.96 L753.091 1378.46 L739.81 1365.18 L726.529 1378.46 L723.114 1374.96 L736.309 1361.74 L723.114 1348.46 L726.529 1344.95 L739.81 1358.24 L753.091 1344.95 L756.534 1348.46 Z" fill="#000000" fill-rule="evenodd" fill-opacity="1" /><path clip-path="url(#clip330)" d="M771.986 1375.37 L781.534 1375.37 L781.534 1342.41 L771.146 1344.49 L771.146 1339.17 L781.476 1337.08 L787.321 1337.08 L787.321 1375.37 L796.87 1375.37 L796.87 1380.28 L771.986 1380.28 L771.986 1375.37 Z" fill="#000000" fill-rule="evenodd" fill-opacity="1" /><path clip-path="url(#clip330)" d="M821.175 1340.93 Q816.661 1340.93 814.375 1345.39 Q812.118 1349.82 812.118 1358.73 Q812.118 1367.61 814.375 1372.07 Q816.661 1376.49 821.175 1376.49 Q825.718 1376.49 827.975 1372.07 Q830.261 1367.61 830.261 1358.73 Q830.261 1349.82 827.975 1345.39 Q825.718 1340.93 821.175 1340.93 M821.175 1336.3 Q828.438 1336.3 832.257 1342.06 Q836.106 1347.79 836.106 1358.73 Q836.106 1369.64 832.257 1375.39 Q828.438 1381.12 821.175 1381.12 Q813.912 1381.12 810.064 1375.39 Q806.245 1369.64 806.245 1358.73 Q806.245 1347.79 810.064 1342.06 Q813.912 1336.3 821.175 1336.3 Z" fill="#000000" fill-rule="evenodd" fill-opacity="1" /><path clip-path="url(#clip330)" d="M836.106 1310.92 L858.675 1310.92 L858.675 1312.94 L845.933 1346.02 L840.972 1346.02 L852.962 1314.92 L836.106 1314.92 L836.106 1310.92 Z" fill="#000000" fill-rule="evenodd" fill-opacity="1" /><path clip-path="url(#clip330)" d="M909.312 1337.08 L932.258 1337.08 L932.258 1342 L914.665 1342 L914.665 1352.59 Q915.938 1352.16 917.211 1351.96 Q918.485 1351.73 919.758 1351.73 Q926.991 1351.73 931.216 1355.69 Q935.441 1359.65 935.441 1366.42 Q935.441 1373.4 931.1 1377.28 Q926.76 1381.12 918.861 1381.12 Q916.141 1381.12 913.305 1380.66 Q910.499 1380.2 907.489 1379.27 L907.489 1373.4 Q910.093 1374.82 912.871 1375.51 Q915.649 1376.2 918.745 1376.2 Q923.751 1376.2 926.673 1373.57 Q929.596 1370.94 929.596 1366.42 Q929.596 1361.91 926.673 1359.28 Q923.751 1356.64 918.745 1356.64 Q916.401 1356.64 914.058 1357.17 Q911.743 1357.69 909.312 1358.79 L909.312 1337.08 Z" fill="#000000" fill-rule="evenodd" fill-opacity="1" /><path clip-path="url(#clip330)" d="M946.957 1372.94 L953.062 1372.94 L953.062 1380.28 L946.957 1380.28 L946.957 1372.94 Z" fill="#000000" fill-rule="evenodd" fill-opacity="1" /><path clip-path="url(#clip330)" d="M965.851 1337.08 L988.797 1337.08 L988.797 1342 L971.204 1342 L971.204 1352.59 Q972.477 1352.16 973.75 1351.96 Q975.024 1351.73 976.297 1351.73 Q983.531 1351.73 987.755 1355.69 Q991.98 1359.65 991.98 1366.42 Q991.98 1373.4 987.639 1377.28 Q983.299 1381.12 975.4 1381.12 Q972.68 1381.12 969.844 1380.66 Q967.038 1380.2 964.028 1379.27 L964.028 1373.4 Q966.632 1374.82 969.41 1375.51 Q972.188 1376.2 975.284 1376.2 Q980.29 1376.2 983.212 1373.57 Q986.135 1370.94 986.135 1366.42 Q986.135 1361.91 983.212 1359.28 Q980.29 1356.64 975.284 1356.64 Q972.94 1356.64 970.597 1357.17 Q968.282 1357.69 965.851 1358.79 L965.851 1337.08 Z" fill="#000000" fill-rule="evenodd" fill-opacity="1" /><path clip-path="url(#clip330)" d="M1016 1340.93 Q1011.48 1340.93 1009.2 1345.39 Q1006.94 1349.82 1006.94 1358.73 Q1006.94 1367.61 1009.2 1372.07 Q1011.48 1376.49 1016 1376.49 Q1020.54 1376.49 1022.8 1372.07 Q1025.08 1367.61 1025.08 1358.73 Q1025.08 1349.82 1022.8 1345.39 Q1020.54 1340.93 1016 1340.93 M1016 1336.3 Q1023.26 1336.3 1027.08 1342.06 Q1030.93 1347.79 1030.93 1358.73 Q1030.93 1369.64 1027.08 1375.39 Q1023.26 1381.12 1016 1381.12 Q1008.73 1381.12 1004.88 1375.39 Q1001.07 1369.64 1001.07 1358.73 Q1001.07 1347.79 1004.88 1342.06 Q1008.73 1336.3 1016 1336.3 Z" fill="#000000" fill-rule="evenodd" fill-opacity="1" /><path clip-path="url(#clip330)" d="M1076.41 1348.46 L1063.19 1361.74 L1076.41 1374.96 L1072.97 1378.46 L1059.69 1365.18 L1046.41 1378.46 L1042.99 1374.96 L1056.19 1361.74 L1042.99 1348.46 L1046.41 1344.95 L1059.69 1358.24 L1072.97 1344.95 L1076.41 1348.46 Z" fill="#000000" fill-rule="evenodd" fill-opacity="1" /><path clip-path="url(#clip330)" d="M1091.86 1375.37 L1101.41 1375.37 L1101.41 1342.41 L1091.02 1344.49 L1091.02 1339.17 L1101.35 1337.08 L1107.2 1337.08 L1107.2 1375.37 L1116.75 1375.37 L1116.75 1380.28 L1091.86 1380.28 L1091.86 1375.37 Z" fill="#000000" fill-rule="evenodd" fill-opacity="1" /><path clip-path="url(#clip330)" d="M1141.05 1340.93 Q1136.54 1340.93 1134.25 1345.39 Q1132 1349.82 1132 1358.73 Q1132 1367.61 1134.25 1372.07 Q1136.54 1376.49 1141.05 1376.49 Q1145.6 1376.49 1147.85 1372.07 Q1150.14 1367.61 1150.14 1358.73 Q1150.14 1349.82 1147.85 1345.39 Q1145.6 1340.93 1141.05 1340.93 M1141.05 1336.3 Q1148.32 1336.3 1152.13 1342.06 Q1155.98 1347.79 1155.98 1358.73 Q1155.98 1369.64 1152.13 1375.39 Q1148.32 1381.12 1141.05 1381.12 Q1133.79 1381.12 1129.94 1375.39 Q1126.12 1369.64 1126.12 1358.73 Q1126.12 1347.79 1129.94 1342.06 Q1133.79 1336.3 1141.05 1336.3 Z" fill="#000000" fill-rule="evenodd" fill-opacity="1" /><path clip-path="url(#clip330)" d="M1155.98 1310.92 L1178.55 1310.92 L1178.55 1312.94 L1165.81 1346.02 L1160.85 1346.02 L1172.84 1314.92 L1155.98 1314.92 L1155.98 1310.92 Z" fill="#000000" fill-rule="evenodd" fill-opacity="1" /><path clip-path="url(#clip330)" d="M1242.57 1356.36 Q1238.64 1356.36 1236.32 1359.05 Q1234.04 1361.74 1234.04 1366.42 Q1234.04 1371.08 1236.32 1373.8 Q1238.64 1376.49 1242.57 1376.49 Q1246.51 1376.49 1248.79 1373.8 Q1251.11 1371.08 1251.11 1366.42 Q1251.11 1361.74 1248.79 1359.05 Q1246.51 1356.36 1242.57 1356.36 M1254.18 1338.04 L1254.18 1343.36 Q1251.98 1342.32 1249.72 1341.77 Q1247.49 1341.22 1245.29 1341.22 Q1239.51 1341.22 1236.44 1345.13 Q1233.4 1349.03 1232.97 1356.93 Q1234.67 1354.42 1237.25 1353.09 Q1239.82 1351.73 1242.92 1351.73 Q1249.43 1351.73 1253.19 1355.69 Q1256.98 1359.63 1256.98 1366.42 Q1256.98 1373.08 1253.05 1377.1 Q1249.11 1381.12 1242.57 1381.12 Q1235.08 1381.12 1231.11 1375.39 Q1227.15 1369.64 1227.15 1358.73 Q1227.15 1348.49 1232.01 1342.41 Q1236.87 1336.3 1245.06 1336.3 Q1247.26 1336.3 1249.49 1336.74 Q1251.74 1337.17 1254.18 1338.04 Z" fill="#000000" fill-rule="evenodd" fill-opacity="1" /><path clip-path="url(#clip330)" d="M1267.05 1372.94 L1273.16 1372.94 L1273.16 1380.28 L1267.05 1380.28 L1267.05 1372.94 Z" fill="#000000" fill-rule="evenodd" fill-opacity="1" /><path clip-path="url(#clip330)" d="M1298.39 1340.93 Q1293.87 1340.93 1291.59 1345.39 Q1289.33 1349.82 1289.33 1358.73 Q1289.33 1367.61 1291.59 1372.07 Q1293.87 1376.49 1298.39 1376.49 Q1302.93 1376.49 1305.19 1372.07 Q1307.47 1367.61 1307.47 1358.73 Q1307.47 1349.82 1305.19 1345.39 Q1302.93 1340.93 1298.39 1340.93 M1298.39 1336.3 Q1305.65 1336.3 1309.47 1342.06 Q1313.32 1347.79 1313.32 1358.73 Q1313.32 1369.64 1309.47 1375.39 Q1305.65 1381.12 1298.39 1381.12 Q1291.13 1381.12 1287.28 1375.39 Q1283.46 1369.64 1283.46 1358.73 Q1283.46 1347.79 1287.28 1342.06 Q1291.13 1336.3 1298.39 1336.3 Z" fill="#000000" fill-rule="evenodd" fill-opacity="1" /><path clip-path="url(#clip330)" d="M1336.09 1340.93 Q1331.58 1340.93 1329.29 1345.39 Q1327.03 1349.82 1327.03 1358.73 Q1327.03 1367.61 1329.29 1372.07 Q1331.58 1376.49 1336.09 1376.49 Q1340.63 1376.49 1342.89 1372.07 Q1345.18 1367.61 1345.18 1358.73 Q1345.18 1349.82 1342.89 1345.39 Q1340.63 1340.93 1336.09 1340.93 M1336.09 1336.3 Q1343.35 1336.3 1347.17 1342.06 Q1351.02 1347.79 1351.02 1358.73 Q1351.02 1369.64 1347.17 1375.39 Q1343.35 1381.12 1336.09 1381.12 Q1328.83 1381.12 1324.98 1375.39 Q1321.16 1369.64 1321.16 1358.73 Q1321.16 1347.79 1324.98 1342.06 Q1328.83 1336.3 1336.09 1336.3 Z" fill="#000000" fill-rule="evenodd" fill-opacity="1" /><path clip-path="url(#clip330)" d="M1396.51 1348.46 L1383.28 1361.74 L1396.51 1374.96 L1393.06 1378.46 L1379.78 1365.18 L1366.5 1378.46 L1363.09 1374.96 L1376.28 1361.74 L1363.09 1348.46 L1366.5 1344.95 L1379.78 1358.24 L1393.06 1344.95 L1396.51 1348.46 Z" fill="#000000" fill-rule="evenodd" fill-opacity="1" /><path clip-path="url(#clip330)" d="M1411.96 1375.37 L1421.51 1375.37 L1421.51 1342.41 L1411.12 1344.49 L1411.12 1339.17 L1421.45 1337.08 L1427.29 1337.08 L1427.29 1375.37 L1436.84 1375.37 L1436.84 1380.28 L1411.96 1380.28 L1411.96 1375.37 Z" fill="#000000" fill-rule="evenodd" fill-opacity="1" /><path clip-path="url(#clip330)" d="M1461.15 1340.93 Q1456.63 1340.93 1454.35 1345.39 Q1452.09 1349.82 1452.09 1358.73 Q1452.09 1367.61 1454.35 1372.07 Q1456.63 1376.49 1461.15 1376.49 Q1465.69 1376.49 1467.95 1372.07 Q1470.23 1367.61 1470.23 1358.73 Q1470.23 1349.82 1467.95 1345.39 Q1465.69 1340.93 1461.15 1340.93 M1461.15 1336.3 Q1468.41 1336.3 1472.23 1342.06 Q1476.08 1347.79 1476.08 1358.73 Q1476.08 1369.64 1472.23 1375.39 Q1468.41 1381.12 1461.15 1381.12 Q1453.88 1381.12 1450.04 1375.39 Q1446.22 1369.64 1446.22 1358.73 Q1446.22 1347.79 1450.04 1342.06 Q1453.88 1336.3 1461.15 1336.3 Z" fill="#000000" fill-rule="evenodd" fill-opacity="1" /><path clip-path="url(#clip330)" d="M1476.08 1310.92 L1498.65 1310.92 L1498.65 1312.94 L1485.91 1346.02 L1480.94 1346.02 L1492.93 1314.92 L1476.08 1314.92 L1476.08 1310.92 Z" fill="#000000" fill-rule="evenodd" fill-opacity="1" /><path clip-path="url(#clip330)" d="M1562.45 1356.36 Q1558.51 1356.36 1556.2 1359.05 Q1553.91 1361.74 1553.91 1366.42 Q1553.91 1371.08 1556.2 1373.8 Q1558.51 1376.49 1562.45 1376.49 Q1566.39 1376.49 1568.67 1373.8 Q1570.99 1371.08 1570.99 1366.42 Q1570.99 1361.74 1568.67 1359.05 Q1566.39 1356.36 1562.45 1356.36 M1574.05 1338.04 L1574.05 1343.36 Q1571.85 1342.32 1569.6 1341.77 Q1567.37 1341.22 1565.17 1341.22 Q1559.38 1341.22 1556.32 1345.13 Q1553.28 1349.03 1552.84 1356.93 Q1554.55 1354.42 1557.13 1353.09 Q1559.7 1351.73 1562.8 1351.73 Q1569.31 1351.73 1573.07 1355.69 Q1576.86 1359.63 1576.86 1366.42 Q1576.86 1373.08 1572.92 1377.1 Q1568.99 1381.12 1562.45 1381.12 Q1554.96 1381.12 1550.99 1375.39 Q1547.03 1369.64 1547.03 1358.73 Q1547.03 1348.49 1551.89 1342.41 Q1556.75 1336.3 1564.94 1336.3 Q1567.14 1336.3 1569.37 1336.74 Q1571.62 1337.17 1574.05 1338.04 Z" fill="#000000" fill-rule="evenodd" fill-opacity="1" /><path clip-path="url(#clip330)" d="M1586.93 1372.94 L1593.03 1372.94 L1593.03 1380.28 L1586.93 1380.28 L1586.93 1372.94 Z" fill="#000000" fill-rule="evenodd" fill-opacity="1" /><path clip-path="url(#clip330)" d="M1605.82 1337.08 L1628.77 1337.08 L1628.77 1342 L1611.18 1342 L1611.18 1352.59 Q1612.45 1352.16 1613.72 1351.96 Q1615 1351.73 1616.27 1351.73 Q1623.5 1351.73 1627.73 1355.69 Q1631.95 1359.65 1631.95 1366.42 Q1631.95 1373.4 1627.61 1377.28 Q1623.27 1381.12 1615.37 1381.12 Q1612.65 1381.12 1609.82 1380.66 Q1607.01 1380.2 1604 1379.27 L1604 1373.4 Q1606.6 1374.82 1609.38 1375.51 Q1612.16 1376.2 1615.26 1376.2 Q1620.26 1376.2 1623.18 1373.57 Q1626.11 1370.94 1626.11 1366.42 Q1626.11 1361.91 1623.18 1359.28 Q1620.26 1356.64 1615.26 1356.64 Q1612.91 1356.64 1610.57 1357.17 Q1608.25 1357.69 1605.82 1358.79 L1605.82 1337.08 Z" fill="#000000" fill-rule="evenodd" fill-opacity="1" /><path clip-path="url(#clip330)" d="M1655.97 1340.93 Q1651.45 1340.93 1649.17 1345.39 Q1646.91 1349.82 1646.91 1358.73 Q1646.91 1367.61 1649.17 1372.07 Q1651.45 1376.49 1655.97 1376.49 Q1660.51 1376.49 1662.77 1372.07 Q1665.05 1367.61 1665.05 1358.73 Q1665.05 1349.82 1662.77 1345.39 Q1660.51 1340.93 1655.97 1340.93 M1655.97 1336.3 Q1663.23 1336.3 1667.05 1342.06 Q1670.9 1347.79 1670.9 1358.73 Q1670.9 1369.64 1667.05 1375.39 Q1663.23 1381.12 1655.97 1381.12 Q1648.71 1381.12 1644.86 1375.39 Q1641.04 1369.64 1641.04 1358.73 Q1641.04 1347.79 1644.86 1342.06 Q1648.71 1336.3 1655.97 1336.3 Z" fill="#000000" fill-rule="evenodd" fill-opacity="1" /><path clip-path="url(#clip330)" d="M1716.38 1348.46 L1703.16 1361.74 L1716.38 1374.96 L1712.94 1378.46 L1699.66 1365.18 L1686.38 1378.46 L1682.96 1374.96 L1696.16 1361.74 L1682.96 1348.46 L1686.38 1344.95 L1699.66 1358.24 L1712.94 1344.95 L1716.38 1348.46 Z" fill="#000000" fill-rule="evenodd" fill-opacity="1" /><path clip-path="url(#clip330)" d="M1731.84 1375.37 L1741.38 1375.37 L1741.38 1342.41 L1731 1344.49 L1731 1339.17 L1741.33 1337.08 L1747.17 1337.08 L1747.17 1375.37 L1756.72 1375.37 L1756.72 1380.28 L1731.84 1380.28 L1731.84 1375.37 Z" fill="#000000" fill-rule="evenodd" fill-opacity="1" /><path clip-path="url(#clip330)" d="M1781.03 1340.93 Q1776.51 1340.93 1774.23 1345.39 Q1771.97 1349.82 1771.97 1358.73 Q1771.97 1367.61 1774.23 1372.07 Q1776.51 1376.49 1781.03 1376.49 Q1785.57 1376.49 1787.83 1372.07 Q1790.11 1367.61 1790.11 1358.73 Q1790.11 1349.82 1787.83 1345.39 Q1785.57 1340.93 1781.03 1340.93 M1781.03 1336.3 Q1788.29 1336.3 1792.11 1342.06 Q1795.96 1347.79 1795.96 1358.73 Q1795.96 1369.64 1792.11 1375.39 Q1788.29 1381.12 1781.03 1381.12 Q1773.76 1381.12 1769.91 1375.39 Q1766.09 1369.64 1766.09 1358.73 Q1766.09 1347.79 1769.91 1342.06 Q1773.76 1336.3 1781.03 1336.3 Z" fill="#000000" fill-rule="evenodd" fill-opacity="1" /><path clip-path="url(#clip330)" d="M1795.96 1310.92 L1818.53 1310.92 L1818.53 1312.94 L1805.78 1346.02 L1800.82 1346.02 L1812.81 1314.92 L1795.96 1314.92 L1795.96 1310.92 Z" fill="#000000" fill-rule="evenodd" fill-opacity="1" /><path clip-path="url(#clip330)" d="M1867.27 1337.08 L1895.04 1337.08 L1895.04 1339.57 L1879.36 1380.28 L1873.26 1380.28 L1888.01 1342 L1867.27 1342 L1867.27 1337.08 Z" fill="#000000" fill-rule="evenodd" fill-opacity="1" /><path clip-path="url(#clip330)" d="M1906.45 1372.94 L1912.55 1372.94 L1912.55 1380.28 L1906.45 1380.28 L1906.45 1372.94 Z" fill="#000000" fill-rule="evenodd" fill-opacity="1" /><path clip-path="url(#clip330)" d="M1937.78 1340.93 Q1933.27 1340.93 1930.98 1345.39 Q1928.73 1349.82 1928.73 1358.73 Q1928.73 1367.61 1930.98 1372.07 Q1933.27 1376.49 1937.78 1376.49 Q1942.32 1376.49 1944.58 1372.07 Q1946.87 1367.61 1946.87 1358.73 Q1946.87 1349.82 1944.58 1345.39 Q1942.32 1340.93 1937.78 1340.93 M1937.78 1336.3 Q1945.04 1336.3 1948.86 1342.06 Q1952.71 1347.79 1952.71 1358.73 Q1952.71 1369.64 1948.86 1375.39 Q1945.04 1381.12 1937.78 1381.12 Q1930.52 1381.12 1926.67 1375.39 Q1922.85 1369.64 1922.85 1358.73 Q1922.85 1347.79 1926.67 1342.06 Q1930.52 1336.3 1937.78 1336.3 Z" fill="#000000" fill-rule="evenodd" fill-opacity="1" /><path clip-path="url(#clip330)" d="M1975.48 1340.93 Q1970.97 1340.93 1968.68 1345.39 Q1966.43 1349.82 1966.43 1358.73 Q1966.43 1367.61 1968.68 1372.07 Q1970.97 1376.49 1975.48 1376.49 Q1980.03 1376.49 1982.28 1372.07 Q1984.57 1367.61 1984.57 1358.73 Q1984.57 1349.82 1982.28 1345.39 Q1980.03 1340.93 1975.48 1340.93 M1975.48 1336.3 Q1982.75 1336.3 1986.57 1342.06 Q1990.41 1347.79 1990.41 1358.73 Q1990.41 1369.64 1986.57 1375.39 Q1982.75 1381.12 1975.48 1381.12 Q1968.22 1381.12 1964.37 1375.39 Q1960.55 1369.64 1960.55 1358.73 Q1960.55 1347.79 1964.37 1342.06 Q1968.22 1336.3 1975.48 1336.3 Z" fill="#000000" fill-rule="evenodd" fill-opacity="1" /><path clip-path="url(#clip330)" d="M2035.9 1348.46 L2022.68 1361.74 L2035.9 1374.96 L2032.46 1378.46 L2019.18 1365.18 L2005.89 1378.46 L2002.48 1374.96 L2015.67 1361.74 L2002.48 1348.46 L2005.89 1344.95 L2019.18 1358.24 L2032.46 1344.95 L2035.9 1348.46 Z" fill="#000000" fill-rule="evenodd" fill-opacity="1" /><path clip-path="url(#clip330)" d="M2051.35 1375.37 L2060.9 1375.37 L2060.9 1342.41 L2050.51 1344.49 L2050.51 1339.17 L2060.84 1337.08 L2066.69 1337.08 L2066.69 1375.37 L2076.24 1375.37 L2076.24 1380.28 L2051.35 1380.28 L2051.35 1375.37 Z" fill="#000000" fill-rule="evenodd" fill-opacity="1" /><path clip-path="url(#clip330)" d="M2100.54 1340.93 Q2096.03 1340.93 2093.74 1345.39 Q2091.48 1349.82 2091.48 1358.73 Q2091.48 1367.61 2093.74 1372.07 Q2096.03 1376.49 2100.54 1376.49 Q2105.08 1376.49 2107.34 1372.07 Q2109.63 1367.61 2109.63 1358.73 Q2109.63 1349.82 2107.34 1345.39 Q2105.08 1340.93 2100.54 1340.93 M2100.54 1336.3 Q2107.8 1336.3 2111.62 1342.06 Q2115.47 1347.79 2115.47 1358.73 Q2115.47 1369.64 2111.62 1375.39 Q2107.8 1381.12 2100.54 1381.12 Q2093.28 1381.12 2089.43 1375.39 Q2085.61 1369.64 2085.61 1358.73 Q2085.61 1347.79 2089.43 1342.06 Q2093.28 1336.3 2100.54 1336.3 Z" fill="#000000" fill-rule="evenodd" fill-opacity="1" /><path clip-path="url(#clip330)" d="M2115.47 1310.92 L2138.04 1310.92 L2138.04 1312.94 L2125.3 1346.02 L2120.34 1346.02 L2132.33 1314.92 L2115.47 1314.92 L2115.47 1310.92 Z" fill="#000000" fill-rule="evenodd" fill-opacity="1" /><path clip-path="url(#clip330)" d="M887.137 1418.58 L914.451 1418.58 L914.451 1423.5 L892.982 1423.5 L892.982 1436.29 L913.554 1436.29 L913.554 1441.21 L892.982 1441.21 L892.982 1456.86 L914.972 1456.86 L914.972 1461.78 L887.137 1461.78 L887.137 1418.58 Z" fill="#000000" fill-rule="evenodd" fill-opacity="1" /><path clip-path="url(#clip330)" d="M949.579 1435.59 Q951.575 1432.01 954.353 1430.3 Q957.131 1428.59 960.892 1428.59 Q965.956 1428.59 968.705 1432.15 Q971.453 1435.68 971.453 1442.22 L971.453 1461.78 L966.1 1461.78 L966.1 1442.39 Q966.1 1437.74 964.451 1435.48 Q962.802 1433.22 959.416 1433.22 Q955.279 1433.22 952.877 1435.97 Q950.476 1438.72 950.476 1443.46 L950.476 1461.78 L945.123 1461.78 L945.123 1442.39 Q945.123 1437.71 943.473 1435.48 Q941.824 1433.22 938.381 1433.22 Q934.301 1433.22 931.899 1436 Q929.498 1438.75 929.498 1443.46 L929.498 1461.78 L924.145 1461.78 L924.145 1429.37 L929.498 1429.37 L929.498 1434.41 Q931.321 1431.43 933.867 1430.01 Q936.413 1428.59 939.914 1428.59 Q943.444 1428.59 945.904 1430.39 Q948.392 1432.18 949.579 1435.59 Z" fill="#000000" fill-rule="evenodd" fill-opacity="1" /><path clip-path="url(#clip330)" d="M982.073 1429.37 L987.397 1429.37 L987.397 1461.78 L982.073 1461.78 L982.073 1429.37 M982.073 1416.76 L987.397 1416.76 L987.397 1423.5 L982.073 1423.5 L982.073 1416.76 Z" fill="#000000" fill-rule="evenodd" fill-opacity="1" /><path clip-path="url(#clip330)" d="M1019.2 1430.33 L1019.2 1435.36 Q1016.94 1434.21 1014.51 1433.63 Q1012.08 1433.05 1009.47 1433.05 Q1005.51 1433.05 1003.51 1434.26 Q1001.55 1435.48 1001.55 1437.91 Q1001.55 1439.76 1002.96 1440.83 Q1004.38 1441.87 1008.66 1442.83 L1010.49 1443.23 Q1016.16 1444.45 1018.53 1446.68 Q1020.93 1448.88 1020.93 1452.84 Q1020.93 1457.35 1017.34 1459.99 Q1013.79 1462.62 1007.54 1462.62 Q1004.93 1462.62 1002.1 1462.1 Q999.289 1461.61 996.164 1460.59 L996.164 1455.1 Q999.115 1456.63 1001.98 1457.41 Q1004.84 1458.16 1007.65 1458.16 Q1011.41 1458.16 1013.44 1456.89 Q1015.46 1455.59 1015.46 1453.24 Q1015.46 1451.07 1013.99 1449.92 Q1012.54 1448.76 1007.59 1447.69 L1005.74 1447.26 Q1000.79 1446.21 998.594 1444.07 Q996.395 1441.9 996.395 1438.14 Q996.395 1433.57 999.636 1431.08 Q1002.88 1428.59 1008.84 1428.59 Q1011.79 1428.59 1014.39 1429.03 Q1017 1429.46 1019.2 1430.33 Z" fill="#000000" fill-rule="evenodd" fill-opacity="1" /><path clip-path="url(#clip330)" d="M1050.07 1430.33 L1050.07 1435.36 Q1047.81 1434.21 1045.38 1433.63 Q1042.95 1433.05 1040.35 1433.05 Q1036.38 1433.05 1034.39 1434.26 Q1032.42 1435.48 1032.42 1437.91 Q1032.42 1439.76 1033.84 1440.83 Q1035.26 1441.87 1039.54 1442.83 L1041.36 1443.23 Q1047.03 1444.45 1049.4 1446.68 Q1051.81 1448.88 1051.81 1452.84 Q1051.81 1457.35 1048.22 1459.99 Q1044.66 1462.62 1038.41 1462.62 Q1035.8 1462.62 1032.97 1462.1 Q1030.16 1461.61 1027.04 1460.59 L1027.04 1455.1 Q1029.99 1456.63 1032.85 1457.41 Q1035.72 1458.16 1038.52 1458.16 Q1042.29 1458.16 1044.31 1456.89 Q1046.34 1455.59 1046.34 1453.24 Q1046.34 1451.07 1044.86 1449.92 Q1043.41 1448.76 1038.47 1447.69 L1036.62 1447.26 Q1031.67 1446.21 1029.47 1444.07 Q1027.27 1441.9 1027.27 1438.14 Q1027.27 1433.57 1030.51 1431.08 Q1033.75 1428.59 1039.71 1428.59 Q1042.66 1428.59 1045.27 1429.03 Q1047.87 1429.46 1050.07 1430.33 Z" fill="#000000" fill-rule="evenodd" fill-opacity="1" /><path clip-path="url(#clip330)" d="M1060.28 1429.37 L1065.61 1429.37 L1065.61 1461.78 L1060.28 1461.78 L1060.28 1429.37 M1060.28 1416.76 L1065.61 1416.76 L1065.61 1423.5 L1060.28 1423.5 L1060.28 1416.76 Z" fill="#000000" fill-rule="evenodd" fill-opacity="1" /><path clip-path="url(#clip330)" d="M1089.31 1433.11 Q1085.02 1433.11 1082.53 1436.46 Q1080.05 1439.79 1080.05 1445.61 Q1080.05 1451.42 1082.51 1454.78 Q1084.99 1458.11 1089.31 1458.11 Q1093.56 1458.11 1096.05 1454.75 Q1098.54 1451.39 1098.54 1445.61 Q1098.54 1439.85 1096.05 1436.49 Q1093.56 1433.11 1089.31 1433.11 M1089.31 1428.59 Q1096.25 1428.59 1100.21 1433.11 Q1104.18 1437.62 1104.18 1445.61 Q1104.18 1453.56 1100.21 1458.11 Q1096.25 1462.62 1089.31 1462.62 Q1082.33 1462.62 1078.37 1458.11 Q1074.43 1453.56 1074.43 1445.61 Q1074.43 1437.62 1078.37 1433.11 Q1082.33 1428.59 1089.31 1428.59 Z" fill="#000000" fill-rule="evenodd" fill-opacity="1" /><path clip-path="url(#clip330)" d="M1139.94 1442.22 L1139.94 1461.78 L1134.62 1461.78 L1134.62 1442.39 Q1134.62 1437.79 1132.82 1435.51 Q1131.03 1433.22 1127.44 1433.22 Q1123.13 1433.22 1120.64 1435.97 Q1118.15 1438.72 1118.15 1443.46 L1118.15 1461.78 L1112.8 1461.78 L1112.8 1429.37 L1118.15 1429.37 L1118.15 1434.41 Q1120.06 1431.49 1122.64 1430.04 Q1125.24 1428.59 1128.63 1428.59 Q1134.21 1428.59 1137.08 1432.06 Q1139.94 1435.51 1139.94 1442.22 Z" fill="#000000" fill-rule="evenodd" fill-opacity="1" /><path clip-path="url(#clip330)" d="M1171.22 1430.33 L1171.22 1435.36 Q1168.96 1434.21 1166.53 1433.63 Q1164.1 1433.05 1161.5 1433.05 Q1157.53 1433.05 1155.54 1434.26 Q1153.57 1435.48 1153.57 1437.91 Q1153.57 1439.76 1154.99 1440.83 Q1156.41 1441.87 1160.69 1442.83 L1162.51 1443.23 Q1168.18 1444.45 1170.56 1446.68 Q1172.96 1448.88 1172.96 1452.84 Q1172.96 1457.35 1169.37 1459.99 Q1165.81 1462.62 1159.56 1462.62 Q1156.96 1462.62 1154.12 1462.1 Q1151.31 1461.61 1148.19 1460.59 L1148.19 1455.1 Q1151.14 1456.63 1154 1457.41 Q1156.87 1458.16 1159.68 1458.16 Q1163.44 1458.16 1165.46 1456.89 Q1167.49 1455.59 1167.49 1453.24 Q1167.49 1451.07 1166.01 1449.92 Q1164.57 1448.76 1159.62 1447.69 L1157.77 1447.26 Q1152.82 1446.21 1150.62 1444.07 Q1148.42 1441.9 1148.42 1438.14 Q1148.42 1433.57 1151.66 1431.08 Q1154.9 1428.59 1160.86 1428.59 Q1163.81 1428.59 1166.42 1429.03 Q1169.02 1429.46 1171.22 1430.33 Z" fill="#000000" fill-rule="evenodd" fill-opacity="1" /><path clip-path="url(#clip330)" d="M1213.06 1416.82 Q1209.18 1423.47 1207.3 1429.98 Q1205.42 1436.49 1205.42 1443.18 Q1205.42 1449.86 1207.3 1456.43 Q1209.21 1462.97 1213.06 1469.59 L1208.43 1469.59 Q1204.09 1462.79 1201.92 1456.23 Q1199.78 1449.66 1199.78 1443.18 Q1199.78 1436.72 1201.92 1430.18 Q1204.06 1423.64 1208.43 1416.82 L1213.06 1416.82 Z" fill="#000000" fill-rule="evenodd" fill-opacity="1" /><path clip-path="url(#clip330)" d="M1244.72 1445.2 Q1244.72 1439.41 1242.31 1436.23 Q1239.94 1433.05 1235.63 1433.05 Q1231.35 1433.05 1228.95 1436.23 Q1226.57 1439.41 1226.57 1445.2 Q1226.57 1450.96 1228.95 1454.14 Q1231.35 1457.32 1235.63 1457.32 Q1239.94 1457.32 1242.31 1454.14 Q1244.72 1450.96 1244.72 1445.2 M1250.04 1457.76 Q1250.04 1466.03 1246.37 1470.06 Q1242.69 1474.11 1235.11 1474.11 Q1232.3 1474.11 1229.81 1473.67 Q1227.33 1473.27 1224.98 1472.4 L1224.98 1467.22 Q1227.33 1468.49 1229.61 1469.1 Q1231.9 1469.71 1234.27 1469.71 Q1239.51 1469.71 1242.11 1466.96 Q1244.72 1464.24 1244.72 1458.71 L1244.72 1456.08 Q1243.07 1458.95 1240.49 1460.36 Q1237.92 1461.78 1234.33 1461.78 Q1228.37 1461.78 1224.72 1457.24 Q1221.08 1452.7 1221.08 1445.2 Q1221.08 1437.68 1224.72 1433.13 Q1228.37 1428.59 1234.33 1428.59 Q1237.92 1428.59 1240.49 1430.01 Q1243.07 1431.43 1244.72 1434.29 L1244.72 1429.37 L1250.04 1429.37 L1250.04 1457.76 Z" fill="#000000" fill-rule="evenodd" fill-opacity="1" /><path clip-path="url(#clip330)" d="M1279.79 1434.35 Q1278.89 1433.83 1277.82 1433.6 Q1276.78 1433.34 1275.5 1433.34 Q1270.99 1433.34 1268.56 1436.29 Q1266.16 1439.21 1266.16 1444.71 L1266.16 1461.78 L1260.8 1461.78 L1260.8 1429.37 L1266.16 1429.37 L1266.16 1434.41 Q1267.83 1431.46 1270.53 1430.04 Q1273.22 1428.59 1277.07 1428.59 Q1277.61 1428.59 1278.28 1428.68 Q1278.95 1428.74 1279.76 1428.88 L1279.79 1434.35 Z" fill="#000000" fill-rule="evenodd" fill-opacity="1" /><path clip-path="url(#clip330)" d="M1300.1 1445.49 Q1293.64 1445.49 1291.16 1446.97 Q1288.67 1448.44 1288.67 1452 Q1288.67 1454.84 1290.52 1456.51 Q1292.4 1458.16 1295.61 1458.16 Q1300.04 1458.16 1302.7 1455.04 Q1305.39 1451.88 1305.39 1446.68 L1305.39 1445.49 L1300.1 1445.49 M1310.72 1443.29 L1310.72 1461.78 L1305.39 1461.78 L1305.39 1456.86 Q1303.57 1459.81 1300.85 1461.23 Q1298.13 1462.62 1294.19 1462.62 Q1289.22 1462.62 1286.27 1459.84 Q1283.34 1457.04 1283.34 1452.35 Q1283.34 1446.88 1286.99 1444.1 Q1290.66 1441.32 1297.93 1441.32 L1305.39 1441.32 L1305.39 1440.8 Q1305.39 1437.13 1302.96 1435.13 Q1300.56 1433.11 1296.19 1433.11 Q1293.41 1433.11 1290.78 1433.77 Q1288.15 1434.44 1285.72 1435.77 L1285.72 1430.85 Q1288.64 1429.72 1291.39 1429.17 Q1294.14 1428.59 1296.74 1428.59 Q1303.77 1428.59 1307.24 1432.24 Q1310.72 1435.88 1310.72 1443.29 Z" fill="#000000" fill-rule="evenodd" fill-opacity="1" /><path clip-path="url(#clip330)" d="M1346.91 1435.59 Q1348.91 1432.01 1351.69 1430.3 Q1354.47 1428.59 1358.23 1428.59 Q1363.29 1428.59 1366.04 1432.15 Q1368.79 1435.68 1368.79 1442.22 L1368.79 1461.78 L1363.44 1461.78 L1363.44 1442.39 Q1363.44 1437.74 1361.79 1435.48 Q1360.14 1433.22 1356.75 1433.22 Q1352.61 1433.22 1350.21 1435.97 Q1347.81 1438.72 1347.81 1443.46 L1347.81 1461.78 L1342.46 1461.78 L1342.46 1442.39 Q1342.46 1437.71 1340.81 1435.48 Q1339.16 1433.22 1335.72 1433.22 Q1331.64 1433.22 1329.24 1436 Q1326.83 1438.75 1326.83 1443.46 L1326.83 1461.78 L1321.48 1461.78 L1321.48 1429.37 L1326.83 1429.37 L1326.83 1434.41 Q1328.66 1431.43 1331.2 1430.01 Q1333.75 1428.59 1337.25 1428.59 Q1340.78 1428.59 1343.24 1430.39 Q1345.73 1432.18 1346.91 1435.59 Z" fill="#000000" fill-rule="evenodd" fill-opacity="1" /><path clip-path="url(#clip330)" d="M1400.07 1430.33 L1400.07 1435.36 Q1397.81 1434.21 1395.38 1433.63 Q1392.95 1433.05 1390.35 1433.05 Q1386.38 1433.05 1384.39 1434.26 Q1382.42 1435.48 1382.42 1437.91 Q1382.42 1439.76 1383.84 1440.83 Q1385.25 1441.87 1389.54 1442.83 L1391.36 1443.23 Q1397.03 1444.45 1399.4 1446.68 Q1401.8 1448.88 1401.8 1452.84 Q1401.8 1457.35 1398.22 1459.99 Q1394.66 1462.62 1388.41 1462.62 Q1385.8 1462.62 1382.97 1462.1 Q1380.16 1461.61 1377.04 1460.59 L1377.04 1455.1 Q1379.99 1456.63 1382.85 1457.41 Q1385.72 1458.16 1388.52 1458.16 Q1392.28 1458.16 1394.31 1456.89 Q1396.34 1455.59 1396.34 1453.24 Q1396.34 1451.07 1394.86 1449.92 Q1393.41 1448.76 1388.47 1447.69 L1386.61 1447.26 Q1381.67 1446.21 1379.47 1444.07 Q1377.27 1441.9 1377.27 1438.14 Q1377.27 1433.57 1380.51 1431.08 Q1383.75 1428.59 1389.71 1428.59 Q1392.66 1428.59 1395.26 1429.03 Q1397.87 1429.46 1400.07 1430.33 Z" fill="#000000" fill-rule="evenodd" fill-opacity="1" /><path clip-path="url(#clip330)" d="M1461.7 1421.91 L1461.7 1428.07 Q1458.75 1425.32 1455.39 1423.96 Q1452.06 1422.6 1448.3 1422.6 Q1440.9 1422.6 1436.96 1427.15 Q1433.03 1431.66 1433.03 1440.22 Q1433.03 1448.76 1436.96 1453.3 Q1440.9 1457.82 1448.3 1457.82 Q1452.06 1457.82 1455.39 1456.46 Q1458.75 1455.1 1461.7 1452.35 L1461.7 1458.45 Q1458.63 1460.54 1455.19 1461.58 Q1451.77 1462.62 1447.96 1462.62 Q1438.15 1462.62 1432.5 1456.63 Q1426.86 1450.61 1426.86 1440.22 Q1426.86 1429.81 1432.5 1423.82 Q1438.15 1417.8 1447.96 1417.8 Q1451.83 1417.8 1455.25 1418.84 Q1458.69 1419.85 1461.7 1421.91 Z" fill="#000000" fill-rule="evenodd" fill-opacity="1" /><path clip-path="url(#clip330)" d="M1488.26 1422.54 Q1481.9 1422.54 1478.13 1427.29 Q1474.4 1432.04 1474.4 1440.22 Q1474.4 1448.38 1478.13 1453.13 Q1481.9 1457.87 1488.26 1457.87 Q1494.63 1457.87 1498.33 1453.13 Q1502.06 1448.38 1502.06 1440.22 Q1502.06 1432.04 1498.33 1427.29 Q1494.63 1422.54 1488.26 1422.54 M1488.26 1417.8 Q1497.35 1417.8 1502.79 1423.9 Q1508.23 1429.98 1508.23 1440.22 Q1508.23 1450.44 1502.79 1456.54 Q1497.35 1462.62 1488.26 1462.62 Q1479.15 1462.62 1473.68 1456.54 Q1468.24 1450.47 1468.24 1440.22 Q1468.24 1429.98 1473.68 1423.9 Q1479.15 1417.8 1488.26 1417.8 Z" fill="#000000" fill-rule="evenodd" fill-opacity="1" /><path clip-path="url(#clip330)" d="M1522.93 1456.86 L1543.33 1456.86 L1543.33 1461.78 L1515.89 1461.78 L1515.89 1456.86 Q1519.22 1453.42 1524.95 1447.63 Q1530.71 1441.82 1532.19 1440.14 Q1534.99 1436.98 1536.09 1434.81 Q1537.22 1432.61 1537.22 1430.5 Q1537.22 1427.06 1534.79 1424.89 Q1532.39 1422.72 1528.51 1422.72 Q1525.76 1422.72 1522.69 1423.67 Q1519.66 1424.63 1516.18 1426.57 L1516.18 1420.66 Q1519.71 1419.25 1522.78 1418.52 Q1525.85 1417.8 1528.39 1417.8 Q1535.11 1417.8 1539.1 1421.16 Q1543.09 1424.51 1543.09 1430.13 Q1543.09 1432.79 1542.08 1435.19 Q1541.1 1437.56 1538.46 1440.8 Q1537.74 1441.64 1533.86 1445.66 Q1529.99 1449.66 1522.93 1456.86 Z" fill="#000000" fill-rule="evenodd" fill-opacity="1" /><path clip-path="url(#clip330)" d="M1564.3 1418.58 L1569.22 1418.58 L1554.18 1467.28 L1549.26 1467.28 L1564.3 1418.58 Z" fill="#000000" fill-rule="evenodd" fill-opacity="1" /><path clip-path="url(#clip330)" d="M1580.07 1420.17 L1580.07 1429.37 L1591.04 1429.37 L1591.04 1433.51 L1580.07 1433.51 L1580.07 1451.1 Q1580.07 1455.07 1581.14 1456.2 Q1582.24 1457.32 1585.57 1457.32 L1591.04 1457.32 L1591.04 1461.78 L1585.57 1461.78 Q1579.41 1461.78 1577.06 1459.49 Q1574.72 1457.18 1574.72 1451.1 L1574.72 1433.51 L1570.81 1433.51 L1570.81 1429.37 L1574.72 1429.37 L1574.72 1420.17 L1580.07 1420.17 Z" fill="#000000" fill-rule="evenodd" fill-opacity="1" /><path clip-path="url(#clip330)" d="M1610.6 1433.11 Q1606.32 1433.11 1603.83 1436.46 Q1601.34 1439.79 1601.34 1445.61 Q1601.34 1451.42 1603.8 1454.78 Q1606.29 1458.11 1610.6 1458.11 Q1614.85 1458.11 1617.34 1454.75 Q1619.83 1451.39 1619.83 1445.61 Q1619.83 1439.85 1617.34 1436.49 Q1614.85 1433.11 1610.6 1433.11 M1610.6 1428.59 Q1617.54 1428.59 1621.51 1433.11 Q1625.47 1437.62 1625.47 1445.61 Q1625.47 1453.56 1621.51 1458.11 Q1617.54 1462.62 1610.6 1462.62 Q1603.63 1462.62 1599.66 1458.11 Q1595.73 1453.56 1595.73 1445.61 Q1595.73 1437.62 1599.66 1433.11 Q1603.63 1428.59 1610.6 1428.59 Z" fill="#000000" fill-rule="evenodd" fill-opacity="1" /><path clip-path="url(#clip330)" d="M1661.24 1442.22 L1661.24 1461.78 L1655.91 1461.78 L1655.91 1442.39 Q1655.91 1437.79 1654.12 1435.51 Q1652.32 1433.22 1648.74 1433.22 Q1644.42 1433.22 1641.94 1435.97 Q1639.45 1438.72 1639.45 1443.46 L1639.45 1461.78 L1634.09 1461.78 L1634.09 1429.37 L1639.45 1429.37 L1639.45 1434.41 Q1641.36 1431.49 1643.93 1430.04 Q1646.54 1428.59 1649.92 1428.59 Q1655.51 1428.59 1658.37 1432.06 Q1661.24 1435.51 1661.24 1442.22 Z" fill="#000000" fill-rule="evenodd" fill-opacity="1" /><path clip-path="url(#clip330)" d="M1671.02 1416.82 L1675.65 1416.82 Q1679.99 1423.64 1682.13 1430.18 Q1684.3 1436.72 1684.3 1443.18 Q1684.3 1449.66 1682.13 1456.23 Q1679.99 1462.79 1675.65 1469.59 L1671.02 1469.59 Q1674.86 1462.97 1676.74 1456.43 Q1678.65 1449.86 1678.65 1443.18 Q1678.65 1436.49 1676.74 1429.98 Q1674.86 1423.47 1671.02 1416.82 Z" fill="#000000" fill-rule="evenodd" fill-opacity="1" /><polyline clip-path="url(#clip332)" style="stroke:#000000; stroke-linecap:round; stroke-linejoin:round; stroke-width:2; stroke-opacity:0.1; fill:none" points="
  450.174,1257.07 2121.26,1257.07 
  "/>
<polyline clip-path="url(#clip332)" style="stroke:#000000; stroke-linecap:round; stroke-linejoin:round; stroke-width:2; stroke-opacity:0.1; fill:none" points="
  450.174,1079.1 2121.26,1079.1 
  "/>
<polyline clip-path="url(#clip332)" style="stroke:#000000; stroke-linecap:round; stroke-linejoin:round; stroke-width:2; stroke-opacity:0.1; fill:none" points="
  450.174,901.117 2121.26,901.117 
  "/>
<polyline clip-path="url(#clip332)" style="stroke:#000000; stroke-linecap:round; stroke-linejoin:round; stroke-width:2; stroke-opacity:0.1; fill:none" points="
  450.174,723.139 2121.26,723.139 
  "/>
<polyline clip-path="url(#clip332)" style="stroke:#000000; stroke-linecap:round; stroke-linejoin:round; stroke-width:2; stroke-opacity:0.1; fill:none" points="
  450.174,545.16 2121.26,545.16 
  "/>
<polyline clip-path="url(#clip332)" style="stroke:#000000; stroke-linecap:round; stroke-linejoin:round; stroke-width:2; stroke-opacity:0.1; fill:none" points="
  450.174,367.182 2121.26,367.182 
  "/>
<polyline clip-path="url(#clip332)" style="stroke:#000000; stroke-linecap:round; stroke-linejoin:round; stroke-width:2; stroke-opacity:0.1; fill:none" points="
  450.174,189.204 2121.26,189.204 
  "/>
<polyline clip-path="url(#clip330)" style="stroke:#000000; stroke-linecap:round; stroke-linejoin:round; stroke-width:4; stroke-opacity:1; fill:none" points="
  450.174,1289.11 450.174,157.167 
  "/>
<polyline clip-path="url(#clip330)" style="stroke:#000000; stroke-linecap:round; stroke-linejoin:round; stroke-width:4; stroke-opacity:1; fill:none" points="
  450.174,1257.07 469.071,1257.07 
  "/>
<polyline clip-path="url(#clip330)" style="stroke:#000000; stroke-linecap:round; stroke-linejoin:round; stroke-width:4; stroke-opacity:1; fill:none" points="
  450.174,1079.1 469.071,1079.1 
  "/>
<polyline clip-path="url(#clip330)" style="stroke:#000000; stroke-linecap:round; stroke-linejoin:round; stroke-width:4; stroke-opacity:1; fill:none" points="
  450.174,901.117 469.071,901.117 
  "/>
<polyline clip-path="url(#clip330)" style="stroke:#000000; stroke-linecap:round; stroke-linejoin:round; stroke-width:4; stroke-opacity:1; fill:none" points="
  450.174,723.139 469.071,723.139 
  "/>
<polyline clip-path="url(#clip330)" style="stroke:#000000; stroke-linecap:round; stroke-linejoin:round; stroke-width:4; stroke-opacity:1; fill:none" points="
  450.174,545.16 469.071,545.16 
  "/>
<polyline clip-path="url(#clip330)" style="stroke:#000000; stroke-linecap:round; stroke-linejoin:round; stroke-width:4; stroke-opacity:1; fill:none" points="
  450.174,367.182 469.071,367.182 
  "/>
<polyline clip-path="url(#clip330)" style="stroke:#000000; stroke-linecap:round; stroke-linejoin:round; stroke-width:4; stroke-opacity:1; fill:none" points="
  450.174,189.204 469.071,189.204 
  "/>
<path clip-path="url(#clip330)" d="M146.264 1243.53 L169.21 1243.53 L169.21 1248.45 L151.617 1248.45 L151.617 1259.04 Q152.89 1258.61 154.163 1258.41 Q155.436 1258.17 156.71 1258.17 Q163.943 1258.17 168.168 1262.14 Q172.392 1266.1 172.392 1272.87 Q172.392 1279.85 168.052 1283.72 Q163.712 1287.57 155.813 1287.57 Q153.093 1287.57 150.257 1287.11 Q147.45 1286.65 144.441 1285.72 L144.441 1279.85 Q147.045 1281.26 149.823 1281.96 Q152.601 1282.65 155.697 1282.65 Q160.703 1282.65 163.625 1280.02 Q166.548 1277.39 166.548 1272.87 Q166.548 1268.36 163.625 1265.73 Q160.703 1263.09 155.697 1263.09 Q153.353 1263.09 151.009 1263.61 Q148.695 1264.13 146.264 1265.23 L146.264 1243.53 Z" fill="#000000" fill-rule="evenodd" fill-opacity="1" /><path clip-path="url(#clip330)" d="M183.909 1279.38 L190.014 1279.38 L190.014 1286.73 L183.909 1286.73 L183.909 1279.38 Z" fill="#000000" fill-rule="evenodd" fill-opacity="1" /><path clip-path="url(#clip330)" d="M218.804 1248.63 L204.047 1271.69 L218.804 1271.69 L218.804 1248.63 M217.271 1243.53 L224.62 1243.53 L224.62 1271.69 L230.783 1271.69 L230.783 1276.55 L224.62 1276.55 L224.62 1286.73 L218.804 1286.73 L218.804 1276.55 L199.302 1276.55 L199.302 1270.91 L217.271 1243.53 Z" fill="#000000" fill-rule="evenodd" fill-opacity="1" /><path clip-path="url(#clip330)" d="M252.948 1247.38 Q248.434 1247.38 246.148 1251.84 Q243.891 1256.26 243.891 1265.18 Q243.891 1274.06 246.148 1278.52 Q248.434 1282.94 252.948 1282.94 Q257.49 1282.94 259.747 1278.52 Q262.033 1274.06 262.033 1265.18 Q262.033 1256.26 259.747 1251.84 Q257.49 1247.38 252.948 1247.38 M252.948 1242.75 Q260.21 1242.75 264.03 1248.51 Q267.878 1254.24 267.878 1265.18 Q267.878 1276.08 264.03 1281.84 Q260.21 1287.57 252.948 1287.57 Q245.685 1287.57 241.836 1281.84 Q238.017 1276.08 238.017 1265.18 Q238.017 1254.24 241.836 1248.51 Q245.685 1242.75 252.948 1242.75 Z" fill="#000000" fill-rule="evenodd" fill-opacity="1" /><path clip-path="url(#clip330)" d="M313.364 1254.9 L300.141 1268.19 L313.364 1281.41 L309.921 1284.91 L296.639 1271.63 L283.358 1284.91 L279.944 1281.41 L293.138 1268.19 L279.944 1254.9 L283.358 1251.4 L296.639 1264.68 L309.921 1251.4 L313.364 1254.9 Z" fill="#000000" fill-rule="evenodd" fill-opacity="1" /><path clip-path="url(#clip330)" d="M328.815 1281.81 L338.364 1281.81 L338.364 1248.86 L327.976 1250.94 L327.976 1245.62 L338.306 1243.53 L344.151 1243.53 L344.151 1281.81 L353.699 1281.81 L353.699 1286.73 L328.815 1286.73 L328.815 1281.81 Z" fill="#000000" fill-rule="evenodd" fill-opacity="1" /><path clip-path="url(#clip330)" d="M378.005 1247.38 Q373.491 1247.38 371.205 1251.84 Q368.948 1256.26 368.948 1265.18 Q368.948 1274.06 371.205 1278.52 Q373.491 1282.94 378.005 1282.94 Q382.548 1282.94 384.804 1278.52 Q387.09 1274.06 387.09 1265.18 Q387.09 1256.26 384.804 1251.84 Q382.548 1247.38 378.005 1247.38 M378.005 1242.75 Q385.267 1242.75 389.087 1248.51 Q392.935 1254.24 392.935 1265.18 Q392.935 1276.08 389.087 1281.84 Q385.267 1287.57 378.005 1287.57 Q370.742 1287.57 366.894 1281.84 Q363.074 1276.08 363.074 1265.18 Q363.074 1254.24 366.894 1248.51 Q370.742 1242.75 378.005 1242.75 Z" fill="#000000" fill-rule="evenodd" fill-opacity="1" /><path clip-path="url(#clip330)" d="M405.466 1233.03 Q402.269 1233.03 400.388 1235.21 Q398.531 1237.4 398.531 1241.21 Q398.531 1244.99 400.388 1247.2 Q402.269 1249.39 405.466 1249.39 Q408.663 1249.39 410.52 1247.2 Q412.401 1244.99 412.401 1241.21 Q412.401 1237.4 410.52 1235.21 Q408.663 1233.03 405.466 1233.03 M414.893 1218.15 L414.893 1222.47 Q413.107 1221.63 411.273 1221.18 Q409.463 1220.73 407.676 1220.73 Q402.974 1220.73 400.482 1223.91 Q398.013 1227.08 397.661 1233.5 Q399.048 1231.45 401.14 1230.37 Q403.232 1229.27 405.748 1229.27 Q411.038 1229.27 414.094 1232.49 Q417.174 1235.68 417.174 1241.21 Q417.174 1246.62 413.976 1249.88 Q410.779 1253.15 405.466 1253.15 Q399.377 1253.15 396.156 1248.5 Q392.935 1243.82 392.935 1234.96 Q392.935 1226.63 396.885 1221.7 Q400.834 1216.74 407.488 1216.74 Q409.274 1216.74 411.085 1217.09 Q412.918 1217.44 414.893 1218.15 Z" fill="#000000" fill-rule="evenodd" fill-opacity="1" /><path clip-path="url(#clip330)" d="M146.264 1065.55 L169.21 1065.55 L169.21 1070.47 L151.617 1070.47 L151.617 1081.06 Q152.89 1080.63 154.163 1080.43 Q155.436 1080.2 156.71 1080.2 Q163.943 1080.2 168.168 1084.16 Q172.392 1088.12 172.392 1094.89 Q172.392 1101.87 168.052 1105.75 Q163.712 1109.59 155.813 1109.59 Q153.093 1109.59 150.257 1109.13 Q147.45 1108.67 144.441 1107.74 L144.441 1101.87 Q147.045 1103.29 149.823 1103.98 Q152.601 1104.67 155.697 1104.67 Q160.703 1104.67 163.625 1102.04 Q166.548 1099.41 166.548 1094.89 Q166.548 1090.38 163.625 1087.75 Q160.703 1085.11 155.697 1085.11 Q153.353 1085.11 151.009 1085.64 Q148.695 1086.16 146.264 1087.26 L146.264 1065.55 Z" fill="#000000" fill-rule="evenodd" fill-opacity="1" /><path clip-path="url(#clip330)" d="M183.909 1101.41 L190.014 1101.41 L190.014 1108.75 L183.909 1108.75 L183.909 1101.41 Z" fill="#000000" fill-rule="evenodd" fill-opacity="1" /><path clip-path="url(#clip330)" d="M202.803 1065.55 L225.749 1065.55 L225.749 1070.47 L208.156 1070.47 L208.156 1081.06 Q209.429 1080.63 210.702 1080.43 Q211.976 1080.2 213.249 1080.2 Q220.482 1080.2 224.707 1084.16 Q228.931 1088.12 228.931 1094.89 Q228.931 1101.87 224.591 1105.75 Q220.251 1109.59 212.352 1109.59 Q209.632 1109.59 206.796 1109.13 Q203.989 1108.67 200.98 1107.74 L200.98 1101.87 Q203.584 1103.29 206.362 1103.98 Q209.14 1104.67 212.236 1104.67 Q217.242 1104.67 220.164 1102.04 Q223.087 1099.41 223.087 1094.89 Q223.087 1090.38 220.164 1087.75 Q217.242 1085.11 212.236 1085.11 Q209.892 1085.11 207.548 1085.64 Q205.234 1086.16 202.803 1087.26 L202.803 1065.55 Z" fill="#000000" fill-rule="evenodd" fill-opacity="1" /><path clip-path="url(#clip330)" d="M252.948 1069.4 Q248.434 1069.4 246.148 1073.86 Q243.891 1078.29 243.891 1087.2 Q243.891 1096.08 246.148 1100.54 Q248.434 1104.96 252.948 1104.96 Q257.49 1104.96 259.747 1100.54 Q262.033 1096.08 262.033 1087.2 Q262.033 1078.29 259.747 1073.86 Q257.49 1069.4 252.948 1069.4 M252.948 1064.77 Q260.21 1064.77 264.03 1070.53 Q267.878 1076.26 267.878 1087.2 Q267.878 1098.11 264.03 1103.86 Q260.21 1109.59 252.948 1109.59 Q245.685 1109.59 241.836 1103.86 Q238.017 1098.11 238.017 1087.2 Q238.017 1076.26 241.836 1070.53 Q245.685 1064.77 252.948 1064.77 Z" fill="#000000" fill-rule="evenodd" fill-opacity="1" /><path clip-path="url(#clip330)" d="M313.364 1076.93 L300.141 1090.21 L313.364 1103.43 L309.921 1106.93 L296.639 1093.65 L283.358 1106.93 L279.944 1103.43 L293.138 1090.21 L279.944 1076.93 L283.358 1073.43 L296.639 1086.71 L309.921 1073.43 L313.364 1076.93 Z" fill="#000000" fill-rule="evenodd" fill-opacity="1" /><path clip-path="url(#clip330)" d="M328.815 1103.84 L338.364 1103.84 L338.364 1070.88 L327.976 1072.96 L327.976 1067.64 L338.306 1065.55 L344.151 1065.55 L344.151 1103.84 L353.699 1103.84 L353.699 1108.75 L328.815 1108.75 L328.815 1103.84 Z" fill="#000000" fill-rule="evenodd" fill-opacity="1" /><path clip-path="url(#clip330)" d="M378.005 1069.4 Q373.491 1069.4 371.205 1073.86 Q368.948 1078.29 368.948 1087.2 Q368.948 1096.08 371.205 1100.54 Q373.491 1104.96 378.005 1104.96 Q382.548 1104.96 384.804 1100.54 Q387.09 1096.08 387.09 1087.2 Q387.09 1078.29 384.804 1073.86 Q382.548 1069.4 378.005 1069.4 M378.005 1064.77 Q385.267 1064.77 389.087 1070.53 Q392.935 1076.26 392.935 1087.2 Q392.935 1098.11 389.087 1103.86 Q385.267 1109.59 378.005 1109.59 Q370.742 1109.59 366.894 1103.86 Q363.074 1098.11 363.074 1087.2 Q363.074 1076.26 366.894 1070.53 Q370.742 1064.77 378.005 1064.77 Z" fill="#000000" fill-rule="evenodd" fill-opacity="1" /><path clip-path="url(#clip330)" d="M405.466 1055.05 Q402.269 1055.05 400.388 1057.24 Q398.531 1059.42 398.531 1063.23 Q398.531 1067.02 400.388 1069.23 Q402.269 1071.41 405.466 1071.41 Q408.663 1071.41 410.52 1069.23 Q412.401 1067.02 412.401 1063.23 Q412.401 1059.42 410.52 1057.24 Q408.663 1055.05 405.466 1055.05 M414.893 1040.17 L414.893 1044.49 Q413.107 1043.65 411.273 1043.2 Q409.463 1042.75 407.676 1042.75 Q402.974 1042.75 400.482 1045.93 Q398.013 1049.1 397.661 1055.52 Q399.048 1053.47 401.14 1052.39 Q403.232 1051.29 405.748 1051.29 Q411.038 1051.29 414.094 1054.51 Q417.174 1057.71 417.174 1063.23 Q417.174 1068.64 413.976 1071.91 Q410.779 1075.17 405.466 1075.17 Q399.377 1075.17 396.156 1070.52 Q392.935 1065.84 392.935 1056.98 Q392.935 1048.65 396.885 1043.72 Q400.834 1038.76 407.488 1038.76 Q409.274 1038.76 411.085 1039.11 Q412.918 1039.46 414.893 1040.17 Z" fill="#000000" fill-rule="evenodd" fill-opacity="1" /><path clip-path="url(#clip330)" d="M146.264 887.576 L169.21 887.576 L169.21 892.495 L151.617 892.495 L151.617 903.086 Q152.89 902.652 154.163 902.449 Q155.436 902.218 156.71 902.218 Q163.943 902.218 168.168 906.182 Q172.392 910.146 172.392 916.916 Q172.392 923.89 168.052 927.767 Q163.712 931.615 155.813 931.615 Q153.093 931.615 150.257 931.153 Q147.45 930.69 144.441 929.764 L144.441 923.89 Q147.045 925.308 149.823 926.002 Q152.601 926.697 155.697 926.697 Q160.703 926.697 163.625 924.063 Q166.548 921.43 166.548 916.916 Q166.548 912.403 163.625 909.77 Q160.703 907.136 155.697 907.136 Q153.353 907.136 151.009 907.657 Q148.695 908.178 146.264 909.278 L146.264 887.576 Z" fill="#000000" fill-rule="evenodd" fill-opacity="1" /><path clip-path="url(#clip330)" d="M183.909 923.427 L190.014 923.427 L190.014 930.776 L183.909 930.776 L183.909 923.427 Z" fill="#000000" fill-rule="evenodd" fill-opacity="1" /><path clip-path="url(#clip330)" d="M215.969 906.847 Q212.033 906.847 209.719 909.538 Q207.433 912.229 207.433 916.916 Q207.433 921.575 209.719 924.295 Q212.033 926.986 215.969 926.986 Q219.904 926.986 222.19 924.295 Q224.504 921.575 224.504 916.916 Q224.504 912.229 222.19 909.538 Q219.904 906.847 215.969 906.847 M227.571 888.531 L227.571 893.855 Q225.372 892.814 223.116 892.264 Q220.888 891.714 218.688 891.714 Q212.901 891.714 209.834 895.62 Q206.796 899.527 206.362 907.426 Q208.069 904.908 210.645 903.577 Q213.22 902.218 216.316 902.218 Q222.826 902.218 226.588 906.182 Q230.378 910.117 230.378 916.916 Q230.378 923.572 226.443 927.594 Q222.508 931.615 215.969 931.615 Q208.474 931.615 204.51 925.886 Q200.546 920.128 200.546 909.22 Q200.546 898.977 205.407 892.9 Q210.268 886.795 218.457 886.795 Q220.656 886.795 222.884 887.229 Q225.141 887.663 227.571 888.531 Z" fill="#000000" fill-rule="evenodd" fill-opacity="1" /><path clip-path="url(#clip330)" d="M252.948 891.425 Q248.434 891.425 246.148 895.881 Q243.891 900.308 243.891 909.22 Q243.891 918.103 246.148 922.559 Q248.434 926.986 252.948 926.986 Q257.49 926.986 259.747 922.559 Q262.033 918.103 262.033 909.22 Q262.033 900.308 259.747 895.881 Q257.49 891.425 252.948 891.425 M252.948 886.795 Q260.21 886.795 264.03 892.553 Q267.878 898.282 267.878 909.22 Q267.878 920.128 264.03 925.886 Q260.21 931.615 252.948 931.615 Q245.685 931.615 241.836 925.886 Q238.017 920.128 238.017 909.22 Q238.017 898.282 241.836 892.553 Q245.685 886.795 252.948 886.795 Z" fill="#000000" fill-rule="evenodd" fill-opacity="1" /><path clip-path="url(#clip330)" d="M313.364 898.948 L300.141 912.229 L313.364 925.452 L309.921 928.953 L296.639 915.672 L283.358 928.953 L279.944 925.452 L293.138 912.229 L279.944 898.948 L283.358 895.447 L296.639 908.728 L309.921 895.447 L313.364 898.948 Z" fill="#000000" fill-rule="evenodd" fill-opacity="1" /><path clip-path="url(#clip330)" d="M328.815 925.857 L338.364 925.857 L338.364 892.9 L327.976 894.984 L327.976 889.66 L338.306 887.576 L344.151 887.576 L344.151 925.857 L353.699 925.857 L353.699 930.776 L328.815 930.776 L328.815 925.857 Z" fill="#000000" fill-rule="evenodd" fill-opacity="1" /><path clip-path="url(#clip330)" d="M378.005 891.425 Q373.491 891.425 371.205 895.881 Q368.948 900.308 368.948 909.22 Q368.948 918.103 371.205 922.559 Q373.491 926.986 378.005 926.986 Q382.548 926.986 384.804 922.559 Q387.09 918.103 387.09 909.22 Q387.09 900.308 384.804 895.881 Q382.548 891.425 378.005 891.425 M378.005 886.795 Q385.267 886.795 389.087 892.553 Q392.935 898.282 392.935 909.22 Q392.935 920.128 389.087 925.886 Q385.267 931.615 378.005 931.615 Q370.742 931.615 366.894 925.886 Q363.074 920.128 363.074 909.22 Q363.074 898.282 366.894 892.553 Q370.742 886.795 378.005 886.795 Z" fill="#000000" fill-rule="evenodd" fill-opacity="1" /><path clip-path="url(#clip330)" d="M405.466 877.071 Q402.269 877.071 400.388 879.257 Q398.531 881.444 398.531 885.252 Q398.531 889.037 400.388 891.247 Q402.269 893.434 405.466 893.434 Q408.663 893.434 410.52 891.247 Q412.401 889.037 412.401 885.252 Q412.401 881.444 410.52 879.257 Q408.663 877.071 405.466 877.071 M414.893 862.189 L414.893 866.515 Q413.107 865.669 411.273 865.222 Q409.463 864.775 407.676 864.775 Q402.974 864.775 400.482 867.949 Q398.013 871.123 397.661 877.541 Q399.048 875.496 401.14 874.414 Q403.232 873.309 405.748 873.309 Q411.038 873.309 414.094 876.53 Q417.174 879.727 417.174 885.252 Q417.174 890.659 413.976 893.927 Q410.779 897.195 405.466 897.195 Q399.377 897.195 396.156 892.54 Q392.935 887.862 392.935 878.999 Q392.935 870.676 396.885 865.739 Q400.834 860.779 407.488 860.779 Q409.274 860.779 411.085 861.131 Q412.918 861.484 414.893 862.189 Z" fill="#000000" fill-rule="evenodd" fill-opacity="1" /><path clip-path="url(#clip330)" d="M146.264 709.598 L169.21 709.598 L169.21 714.517 L151.617 714.517 L151.617 725.107 Q152.89 724.673 154.163 724.471 Q155.436 724.239 156.71 724.239 Q163.943 724.239 168.168 728.203 Q172.392 732.167 172.392 738.938 Q172.392 745.912 168.052 749.789 Q163.712 753.637 155.813 753.637 Q153.093 753.637 150.257 753.174 Q147.45 752.711 144.441 751.785 L144.441 745.912 Q147.045 747.329 149.823 748.024 Q152.601 748.718 155.697 748.718 Q160.703 748.718 163.625 746.085 Q166.548 743.452 166.548 738.938 Q166.548 734.424 163.625 731.791 Q160.703 729.158 155.697 729.158 Q153.353 729.158 151.009 729.679 Q148.695 730.2 146.264 731.299 L146.264 709.598 Z" fill="#000000" fill-rule="evenodd" fill-opacity="1" /><path clip-path="url(#clip330)" d="M183.909 745.449 L190.014 745.449 L190.014 752.798 L183.909 752.798 L183.909 745.449 Z" fill="#000000" fill-rule="evenodd" fill-opacity="1" /><path clip-path="url(#clip330)" d="M201.27 709.598 L229.047 709.598 L229.047 712.086 L213.364 752.798 L207.259 752.798 L222.016 714.517 L201.27 714.517 L201.27 709.598 Z" fill="#000000" fill-rule="evenodd" fill-opacity="1" /><path clip-path="url(#clip330)" d="M252.948 713.446 Q248.434 713.446 246.148 717.902 Q243.891 722.329 243.891 731.241 Q243.891 740.125 246.148 744.58 Q248.434 749.008 252.948 749.008 Q257.49 749.008 259.747 744.58 Q262.033 740.125 262.033 731.241 Q262.033 722.329 259.747 717.902 Q257.49 713.446 252.948 713.446 M252.948 708.817 Q260.21 708.817 264.03 714.575 Q267.878 720.304 267.878 731.241 Q267.878 742.15 264.03 747.908 Q260.21 753.637 252.948 753.637 Q245.685 753.637 241.836 747.908 Q238.017 742.15 238.017 731.241 Q238.017 720.304 241.836 714.575 Q245.685 708.817 252.948 708.817 Z" fill="#000000" fill-rule="evenodd" fill-opacity="1" /><path clip-path="url(#clip330)" d="M313.364 720.97 L300.141 734.251 L313.364 747.474 L309.921 750.975 L296.639 737.694 L283.358 750.975 L279.944 747.474 L293.138 734.251 L279.944 720.97 L283.358 717.468 L296.639 730.75 L309.921 717.468 L313.364 720.97 Z" fill="#000000" fill-rule="evenodd" fill-opacity="1" /><path clip-path="url(#clip330)" d="M328.815 747.879 L338.364 747.879 L338.364 714.922 L327.976 717.005 L327.976 711.681 L338.306 709.598 L344.151 709.598 L344.151 747.879 L353.699 747.879 L353.699 752.798 L328.815 752.798 L328.815 747.879 Z" fill="#000000" fill-rule="evenodd" fill-opacity="1" /><path clip-path="url(#clip330)" d="M378.005 713.446 Q373.491 713.446 371.205 717.902 Q368.948 722.329 368.948 731.241 Q368.948 740.125 371.205 744.58 Q373.491 749.008 378.005 749.008 Q382.548 749.008 384.804 744.58 Q387.09 740.125 387.09 731.241 Q387.09 722.329 384.804 717.902 Q382.548 713.446 378.005 713.446 M378.005 708.817 Q385.267 708.817 389.087 714.575 Q392.935 720.304 392.935 731.241 Q392.935 742.15 389.087 747.908 Q385.267 753.637 378.005 753.637 Q370.742 753.637 366.894 747.908 Q363.074 742.15 363.074 731.241 Q363.074 720.304 366.894 714.575 Q370.742 708.817 378.005 708.817 Z" fill="#000000" fill-rule="evenodd" fill-opacity="1" /><path clip-path="url(#clip330)" d="M405.466 699.093 Q402.269 699.093 400.388 701.279 Q398.531 703.465 398.531 707.274 Q398.531 711.059 400.388 713.269 Q402.269 715.455 405.466 715.455 Q408.663 715.455 410.52 713.269 Q412.401 711.059 412.401 707.274 Q412.401 703.465 410.52 701.279 Q408.663 699.093 405.466 699.093 M414.893 684.211 L414.893 688.537 Q413.107 687.69 411.273 687.244 Q409.463 686.797 407.676 686.797 Q402.974 686.797 400.482 689.971 Q398.013 693.145 397.661 699.563 Q399.048 697.517 401.14 696.436 Q403.232 695.331 405.748 695.331 Q411.038 695.331 414.094 698.552 Q417.174 701.749 417.174 707.274 Q417.174 712.681 413.976 715.949 Q410.779 719.217 405.466 719.217 Q399.377 719.217 396.156 714.562 Q392.935 709.883 392.935 701.02 Q392.935 692.698 396.885 687.761 Q400.834 682.8 407.488 682.8 Q409.274 682.8 411.085 683.153 Q412.918 683.506 414.893 684.211 Z" fill="#000000" fill-rule="evenodd" fill-opacity="1" /><path clip-path="url(#clip330)" d="M146.264 531.62 L169.21 531.62 L169.21 536.539 L151.617 536.539 L151.617 547.129 Q152.89 546.695 154.163 546.492 Q155.436 546.261 156.71 546.261 Q163.943 546.261 168.168 550.225 Q172.392 554.189 172.392 560.96 Q172.392 567.933 168.052 571.81 Q163.712 575.659 155.813 575.659 Q153.093 575.659 150.257 575.196 Q147.45 574.733 144.441 573.807 L144.441 567.933 Q147.045 569.351 149.823 570.045 Q152.601 570.74 155.697 570.74 Q160.703 570.74 163.625 568.107 Q166.548 565.474 166.548 560.96 Q166.548 556.446 163.625 553.813 Q160.703 551.18 155.697 551.18 Q153.353 551.18 151.009 551.701 Q148.695 552.221 146.264 553.321 L146.264 531.62 Z" fill="#000000" fill-rule="evenodd" fill-opacity="1" /><path clip-path="url(#clip330)" d="M183.909 567.47 L190.014 567.47 L190.014 574.82 L183.909 574.82 L183.909 567.47 Z" fill="#000000" fill-rule="evenodd" fill-opacity="1" /><path clip-path="url(#clip330)" d="M215.245 554.305 Q211.079 554.305 208.677 556.533 Q206.304 558.761 206.304 562.667 Q206.304 566.573 208.677 568.801 Q211.079 571.029 215.245 571.029 Q219.412 571.029 221.813 568.801 Q224.215 566.544 224.215 562.667 Q224.215 558.761 221.813 556.533 Q219.441 554.305 215.245 554.305 M209.4 551.816 Q205.639 550.89 203.526 548.315 Q201.443 545.74 201.443 542.036 Q201.443 536.857 205.118 533.848 Q208.822 530.838 215.245 530.838 Q221.698 530.838 225.372 533.848 Q229.047 536.857 229.047 542.036 Q229.047 545.74 226.935 548.315 Q224.852 550.89 221.119 551.816 Q225.343 552.8 227.687 555.665 Q230.06 558.529 230.06 562.667 Q230.06 568.946 226.212 572.302 Q222.392 575.659 215.245 575.659 Q208.098 575.659 204.25 572.302 Q200.43 568.946 200.43 562.667 Q200.43 558.529 202.803 555.665 Q205.176 552.8 209.4 551.816 M207.259 542.586 Q207.259 545.943 209.342 547.823 Q211.455 549.704 215.245 549.704 Q219.007 549.704 221.119 547.823 Q223.26 545.943 223.26 542.586 Q223.26 539.23 221.119 537.349 Q219.007 535.468 215.245 535.468 Q211.455 535.468 209.342 537.349 Q207.259 539.23 207.259 542.586 Z" fill="#000000" fill-rule="evenodd" fill-opacity="1" /><path clip-path="url(#clip330)" d="M252.948 535.468 Q248.434 535.468 246.148 539.924 Q243.891 544.351 243.891 553.263 Q243.891 562.146 246.148 566.602 Q248.434 571.029 252.948 571.029 Q257.49 571.029 259.747 566.602 Q262.033 562.146 262.033 553.263 Q262.033 544.351 259.747 539.924 Q257.49 535.468 252.948 535.468 M252.948 530.838 Q260.21 530.838 264.03 536.597 Q267.878 542.326 267.878 553.263 Q267.878 564.172 264.03 569.93 Q260.21 575.659 252.948 575.659 Q245.685 575.659 241.836 569.93 Q238.017 564.172 238.017 553.263 Q238.017 542.326 241.836 536.597 Q245.685 530.838 252.948 530.838 Z" fill="#000000" fill-rule="evenodd" fill-opacity="1" /><path clip-path="url(#clip330)" d="M313.364 542.991 L300.141 556.272 L313.364 569.496 L309.921 572.997 L296.639 559.716 L283.358 572.997 L279.944 569.496 L293.138 556.272 L279.944 542.991 L283.358 539.49 L296.639 552.771 L309.921 539.49 L313.364 542.991 Z" fill="#000000" fill-rule="evenodd" fill-opacity="1" /><path clip-path="url(#clip330)" d="M328.815 569.901 L338.364 569.901 L338.364 536.944 L327.976 539.027 L327.976 533.703 L338.306 531.62 L344.151 531.62 L344.151 569.901 L353.699 569.901 L353.699 574.82 L328.815 574.82 L328.815 569.901 Z" fill="#000000" fill-rule="evenodd" fill-opacity="1" /><path clip-path="url(#clip330)" d="M378.005 535.468 Q373.491 535.468 371.205 539.924 Q368.948 544.351 368.948 553.263 Q368.948 562.146 371.205 566.602 Q373.491 571.029 378.005 571.029 Q382.548 571.029 384.804 566.602 Q387.09 562.146 387.09 553.263 Q387.09 544.351 384.804 539.924 Q382.548 535.468 378.005 535.468 M378.005 530.838 Q385.267 530.838 389.087 536.597 Q392.935 542.326 392.935 553.263 Q392.935 564.172 389.087 569.93 Q385.267 575.659 378.005 575.659 Q370.742 575.659 366.894 569.93 Q363.074 564.172 363.074 553.263 Q363.074 542.326 366.894 536.597 Q370.742 530.838 378.005 530.838 Z" fill="#000000" fill-rule="evenodd" fill-opacity="1" /><path clip-path="url(#clip330)" d="M405.466 521.114 Q402.269 521.114 400.388 523.301 Q398.531 525.487 398.531 529.296 Q398.531 533.081 400.388 535.291 Q402.269 537.477 405.466 537.477 Q408.663 537.477 410.52 535.291 Q412.401 533.081 412.401 529.296 Q412.401 525.487 410.52 523.301 Q408.663 521.114 405.466 521.114 M414.893 506.233 L414.893 510.558 Q413.107 509.712 411.273 509.265 Q409.463 508.819 407.676 508.819 Q402.974 508.819 400.482 511.992 Q398.013 515.166 397.661 521.584 Q399.048 519.539 401.14 518.458 Q403.232 517.353 405.748 517.353 Q411.038 517.353 414.094 520.573 Q417.174 523.771 417.174 529.296 Q417.174 534.703 413.976 537.971 Q410.779 541.239 405.466 541.239 Q399.377 541.239 396.156 536.584 Q392.935 531.905 392.935 523.042 Q392.935 514.72 396.885 509.783 Q400.834 504.822 407.488 504.822 Q409.274 504.822 411.085 505.175 Q412.918 505.527 414.893 506.233 Z" fill="#000000" fill-rule="evenodd" fill-opacity="1" /><path clip-path="url(#clip330)" d="M146.264 353.641 L169.21 353.641 L169.21 358.56 L151.617 358.56 L151.617 369.151 Q152.89 368.717 154.163 368.514 Q155.436 368.283 156.71 368.283 Q163.943 368.283 168.168 372.247 Q172.392 376.211 172.392 382.982 Q172.392 389.955 168.052 393.832 Q163.712 397.681 155.813 397.681 Q153.093 397.681 150.257 397.218 Q147.45 396.755 144.441 395.829 L144.441 389.955 Q147.045 391.373 149.823 392.067 Q152.601 392.762 155.697 392.762 Q160.703 392.762 163.625 390.128 Q166.548 387.495 166.548 382.982 Q166.548 378.468 163.625 375.835 Q160.703 373.201 155.697 373.201 Q153.353 373.201 151.009 373.722 Q148.695 374.243 146.264 375.343 L146.264 353.641 Z" fill="#000000" fill-rule="evenodd" fill-opacity="1" /><path clip-path="url(#clip330)" d="M183.909 389.492 L190.014 389.492 L190.014 396.841 L183.909 396.841 L183.909 389.492 Z" fill="#000000" fill-rule="evenodd" fill-opacity="1" /><path clip-path="url(#clip330)" d="M202.919 395.944 L202.919 390.62 Q205.118 391.662 207.375 392.212 Q209.632 392.762 211.802 392.762 Q217.589 392.762 220.627 388.884 Q223.694 384.978 224.128 377.05 Q222.45 379.538 219.875 380.869 Q217.3 382.2 214.175 382.2 Q207.693 382.2 203.903 378.294 Q200.141 374.359 200.141 367.559 Q200.141 360.904 204.076 356.882 Q208.011 352.86 214.551 352.86 Q222.045 352.86 225.98 358.618 Q229.944 364.347 229.944 375.285 Q229.944 385.499 225.083 391.604 Q220.251 397.681 212.062 397.681 Q209.863 397.681 207.606 397.246 Q205.349 396.812 202.919 395.944 M214.551 377.629 Q218.486 377.629 220.772 374.938 Q223.087 372.247 223.087 367.559 Q223.087 362.901 220.772 360.21 Q218.486 357.49 214.551 357.49 Q210.616 357.49 208.301 360.21 Q206.015 362.901 206.015 367.559 Q206.015 372.247 208.301 374.938 Q210.616 377.629 214.551 377.629 Z" fill="#000000" fill-rule="evenodd" fill-opacity="1" /><path clip-path="url(#clip330)" d="M252.948 357.49 Q248.434 357.49 246.148 361.946 Q243.891 366.373 243.891 375.285 Q243.891 384.168 246.148 388.624 Q248.434 393.051 252.948 393.051 Q257.49 393.051 259.747 388.624 Q262.033 384.168 262.033 375.285 Q262.033 366.373 259.747 361.946 Q257.49 357.49 252.948 357.49 M252.948 352.86 Q260.21 352.86 264.03 358.618 Q267.878 364.347 267.878 375.285 Q267.878 386.193 264.03 391.951 Q260.21 397.681 252.948 397.681 Q245.685 397.681 241.836 391.951 Q238.017 386.193 238.017 375.285 Q238.017 364.347 241.836 358.618 Q245.685 352.86 252.948 352.86 Z" fill="#000000" fill-rule="evenodd" fill-opacity="1" /><path clip-path="url(#clip330)" d="M313.364 365.013 L300.141 378.294 L313.364 391.517 L309.921 395.018 L296.639 381.737 L283.358 395.018 L279.944 391.517 L293.138 378.294 L279.944 365.013 L283.358 361.512 L296.639 374.793 L309.921 361.512 L313.364 365.013 Z" fill="#000000" fill-rule="evenodd" fill-opacity="1" /><path clip-path="url(#clip330)" d="M328.815 391.922 L338.364 391.922 L338.364 358.965 L327.976 361.049 L327.976 355.725 L338.306 353.641 L344.151 353.641 L344.151 391.922 L353.699 391.922 L353.699 396.841 L328.815 396.841 L328.815 391.922 Z" fill="#000000" fill-rule="evenodd" fill-opacity="1" /><path clip-path="url(#clip330)" d="M378.005 357.49 Q373.491 357.49 371.205 361.946 Q368.948 366.373 368.948 375.285 Q368.948 384.168 371.205 388.624 Q373.491 393.051 378.005 393.051 Q382.548 393.051 384.804 388.624 Q387.09 384.168 387.09 375.285 Q387.09 366.373 384.804 361.946 Q382.548 357.49 378.005 357.49 M378.005 352.86 Q385.267 352.86 389.087 358.618 Q392.935 364.347 392.935 375.285 Q392.935 386.193 389.087 391.951 Q385.267 397.681 378.005 397.681 Q370.742 397.681 366.894 391.951 Q363.074 386.193 363.074 375.285 Q363.074 364.347 366.894 358.618 Q370.742 352.86 378.005 352.86 Z" fill="#000000" fill-rule="evenodd" fill-opacity="1" /><path clip-path="url(#clip330)" d="M405.466 343.136 Q402.269 343.136 400.388 345.322 Q398.531 347.509 398.531 351.317 Q398.531 355.102 400.388 357.312 Q402.269 359.499 405.466 359.499 Q408.663 359.499 410.52 357.312 Q412.401 355.102 412.401 351.317 Q412.401 347.509 410.52 345.322 Q408.663 343.136 405.466 343.136 M414.893 328.254 L414.893 332.58 Q413.107 331.734 411.273 331.287 Q409.463 330.84 407.676 330.84 Q402.974 330.84 400.482 334.014 Q398.013 337.188 397.661 343.606 Q399.048 341.561 401.14 340.479 Q403.232 339.374 405.748 339.374 Q411.038 339.374 414.094 342.595 Q417.174 345.792 417.174 351.317 Q417.174 356.724 413.976 359.992 Q410.779 363.26 405.466 363.26 Q399.377 363.26 396.156 358.605 Q392.935 353.927 392.935 345.064 Q392.935 336.741 396.885 331.804 Q400.834 326.844 407.488 326.844 Q409.274 326.844 411.085 327.196 Q412.918 327.549 414.893 328.254 Z" fill="#000000" fill-rule="evenodd" fill-opacity="1" /><path clip-path="url(#clip330)" d="M159.43 194.934 Q155.494 194.934 153.18 197.625 Q150.894 200.316 150.894 205.003 Q150.894 209.662 153.18 212.382 Q155.494 215.073 159.43 215.073 Q163.365 215.073 165.651 212.382 Q167.965 209.662 167.965 205.003 Q167.965 200.316 165.651 197.625 Q163.365 194.934 159.43 194.934 M171.032 176.618 L171.032 181.942 Q168.833 180.9 166.576 180.351 Q164.348 179.801 162.149 179.801 Q156.362 179.801 153.295 183.707 Q150.257 187.613 149.823 195.512 Q151.53 192.995 154.105 191.664 Q156.681 190.304 159.777 190.304 Q166.287 190.304 170.049 194.268 Q173.839 198.203 173.839 205.003 Q173.839 211.658 169.904 215.68 Q165.969 219.702 159.43 219.702 Q151.935 219.702 147.971 213.973 Q144.007 208.215 144.007 197.306 Q144.007 187.063 148.868 180.987 Q153.729 174.882 161.918 174.882 Q164.117 174.882 166.345 175.316 Q168.602 175.75 171.032 176.618 Z" fill="#000000" fill-rule="evenodd" fill-opacity="1" /><path clip-path="url(#clip330)" d="M183.909 211.514 L190.014 211.514 L190.014 218.863 L183.909 218.863 L183.909 211.514 Z" fill="#000000" fill-rule="evenodd" fill-opacity="1" /><path clip-path="url(#clip330)" d="M215.245 179.511 Q210.731 179.511 208.445 183.967 Q206.189 188.394 206.189 197.306 Q206.189 206.19 208.445 210.646 Q210.731 215.073 215.245 215.073 Q219.788 215.073 222.045 210.646 Q224.331 206.19 224.331 197.306 Q224.331 188.394 222.045 183.967 Q219.788 179.511 215.245 179.511 M215.245 174.882 Q222.508 174.882 226.327 180.64 Q230.176 186.369 230.176 197.306 Q230.176 208.215 226.327 213.973 Q222.508 219.702 215.245 219.702 Q207.982 219.702 204.134 213.973 Q200.315 208.215 200.315 197.306 Q200.315 186.369 204.134 180.64 Q207.982 174.882 215.245 174.882 Z" fill="#000000" fill-rule="evenodd" fill-opacity="1" /><path clip-path="url(#clip330)" d="M252.948 179.511 Q248.434 179.511 246.148 183.967 Q243.891 188.394 243.891 197.306 Q243.891 206.19 246.148 210.646 Q248.434 215.073 252.948 215.073 Q257.49 215.073 259.747 210.646 Q262.033 206.19 262.033 197.306 Q262.033 188.394 259.747 183.967 Q257.49 179.511 252.948 179.511 M252.948 174.882 Q260.21 174.882 264.03 180.64 Q267.878 186.369 267.878 197.306 Q267.878 208.215 264.03 213.973 Q260.21 219.702 252.948 219.702 Q245.685 219.702 241.836 213.973 Q238.017 208.215 238.017 197.306 Q238.017 186.369 241.836 180.64 Q245.685 174.882 252.948 174.882 Z" fill="#000000" fill-rule="evenodd" fill-opacity="1" /><path clip-path="url(#clip330)" d="M313.364 187.035 L300.141 200.316 L313.364 213.539 L309.921 217.04 L296.639 203.759 L283.358 217.04 L279.944 213.539 L293.138 200.316 L279.944 187.035 L283.358 183.533 L296.639 196.815 L309.921 183.533 L313.364 187.035 Z" fill="#000000" fill-rule="evenodd" fill-opacity="1" /><path clip-path="url(#clip330)" d="M328.815 213.944 L338.364 213.944 L338.364 180.987 L327.976 183.07 L327.976 177.746 L338.306 175.663 L344.151 175.663 L344.151 213.944 L353.699 213.944 L353.699 218.863 L328.815 218.863 L328.815 213.944 Z" fill="#000000" fill-rule="evenodd" fill-opacity="1" /><path clip-path="url(#clip330)" d="M378.005 179.511 Q373.491 179.511 371.205 183.967 Q368.948 188.394 368.948 197.306 Q368.948 206.19 371.205 210.646 Q373.491 215.073 378.005 215.073 Q382.548 215.073 384.804 210.646 Q387.09 206.19 387.09 197.306 Q387.09 188.394 384.804 183.967 Q382.548 179.511 378.005 179.511 M378.005 174.882 Q385.267 174.882 389.087 180.64 Q392.935 186.369 392.935 197.306 Q392.935 208.215 389.087 213.973 Q385.267 219.702 378.005 219.702 Q370.742 219.702 366.894 213.973 Q363.074 208.215 363.074 197.306 Q363.074 186.369 366.894 180.64 Q370.742 174.882 378.005 174.882 Z" fill="#000000" fill-rule="evenodd" fill-opacity="1" /><path clip-path="url(#clip330)" d="M405.466 165.158 Q402.269 165.158 400.388 167.344 Q398.531 169.53 398.531 173.339 Q398.531 177.124 400.388 179.334 Q402.269 181.52 405.466 181.52 Q408.663 181.52 410.52 179.334 Q412.401 177.124 412.401 173.339 Q412.401 169.53 410.52 167.344 Q408.663 165.158 405.466 165.158 M414.893 150.276 L414.893 154.602 Q413.107 153.755 411.273 153.309 Q409.463 152.862 407.676 152.862 Q402.974 152.862 400.482 156.036 Q398.013 159.21 397.661 165.628 Q399.048 163.582 401.14 162.501 Q403.232 161.396 405.748 161.396 Q411.038 161.396 414.094 164.617 Q417.174 167.814 417.174 173.339 Q417.174 178.746 413.976 182.014 Q410.779 185.282 405.466 185.282 Q399.377 185.282 396.156 180.627 Q392.935 175.948 392.935 167.085 Q392.935 158.763 396.885 153.826 Q400.834 148.865 407.488 148.865 Q409.274 148.865 411.085 149.218 Q412.918 149.571 414.893 150.276 Z" fill="#000000" fill-rule="evenodd" fill-opacity="1" /><path clip-path="url(#clip330)" d="M60.6052 1003.79 L82.1039 1011.72 L82.1039 995.837 L60.6052 1003.79 M54.8471 1007.09 L54.8471 1000.47 L98.0471 984.002 L98.0471 990.079 L86.965 994.014 L86.965 1013.49 L98.0471 1017.42 L98.0471 1023.59 L54.8471 1007.09 Z" fill="#000000" fill-rule="evenodd" fill-opacity="1" /><path clip-path="url(#clip330)" d="M56.4386 973.701 L65.6399 973.701 L65.6399 962.735 L69.7776 962.735 L69.7776 973.701 L87.3701 973.701 Q91.3342 973.701 92.4627 972.631 Q93.5911 971.531 93.5911 968.204 L93.5911 962.735 L98.0471 962.735 L98.0471 968.204 Q98.0471 974.367 95.7613 976.711 Q93.4465 979.054 87.3701 979.054 L69.7776 979.054 L69.7776 982.961 L65.6399 982.961 L65.6399 979.054 L56.4386 979.054 L56.4386 973.701 Z" fill="#000000" fill-rule="evenodd" fill-opacity="1" /><path clip-path="url(#clip330)" d="M56.4386 950.467 L65.6399 950.467 L65.6399 939.5 L69.7776 939.5 L69.7776 950.467 L87.3701 950.467 Q91.3342 950.467 92.4627 949.396 Q93.5911 948.296 93.5911 944.969 L93.5911 939.5 L98.0471 939.5 L98.0471 944.969 Q98.0471 951.132 95.7613 953.476 Q93.4465 955.82 87.3701 955.82 L69.7776 955.82 L69.7776 959.726 L65.6399 959.726 L65.6399 955.82 L56.4386 955.82 L56.4386 950.467 Z" fill="#000000" fill-rule="evenodd" fill-opacity="1" /><path clip-path="url(#clip330)" d="M80.5125 904.778 L83.1167 904.778 L83.1167 929.257 Q88.6143 928.91 91.5078 925.959 Q94.3724 922.978 94.3724 917.683 Q94.3724 914.616 93.6201 911.752 Q92.8678 908.858 91.3631 906.022 L96.3978 906.022 Q97.6131 908.887 98.2497 911.896 Q98.8862 914.905 98.8862 918.002 Q98.8862 925.756 94.3724 930.299 Q89.8585 934.813 82.1618 934.813 Q74.2047 934.813 69.5461 930.53 Q64.8586 926.219 64.8586 918.927 Q64.8586 912.388 69.0832 908.598 Q73.2787 904.778 80.5125 904.778 M78.95 910.102 Q74.5808 910.16 71.9767 912.562 Q69.3725 914.934 69.3725 918.87 Q69.3725 923.326 71.8899 926.017 Q74.4072 928.679 78.9789 929.084 L78.95 910.102 Z" fill="#000000" fill-rule="evenodd" fill-opacity="1" /><path clip-path="url(#clip330)" d="M78.487 869.101 L98.0471 869.101 L98.0471 874.425 L78.6607 874.425 Q74.06 874.425 71.7741 876.219 Q69.4883 878.013 69.4883 881.601 Q69.4883 885.913 72.2371 888.401 Q74.9859 890.889 79.7313 890.889 L98.0471 890.889 L98.0471 896.242 L65.6399 896.242 L65.6399 890.889 L70.6746 890.889 Q67.7522 888.98 66.3054 886.404 Q64.8586 883.8 64.8586 880.415 Q64.8586 874.83 68.3309 871.966 Q71.7741 869.101 78.487 869.101 Z" fill="#000000" fill-rule="evenodd" fill-opacity="1" /><path clip-path="url(#clip330)" d="M70.5589 837.157 L53.0242 837.157 L53.0242 831.833 L98.0471 831.833 L98.0471 837.157 L93.186 837.157 Q96.0795 838.835 97.4974 841.41 Q98.8862 843.957 98.8862 847.545 Q98.8862 853.419 94.1988 857.122 Q89.5113 860.797 81.8724 860.797 Q74.2336 860.797 69.5461 857.122 Q64.8586 853.419 64.8586 847.545 Q64.8586 843.957 66.2765 841.41 Q67.6653 838.835 70.5589 837.157 M81.8724 855.299 Q87.7463 855.299 91.1027 852.898 Q94.4303 850.467 94.4303 846.243 Q94.4303 842.018 91.1027 839.588 Q87.7463 837.157 81.8724 837.157 Q75.9986 837.157 72.6711 839.588 Q69.3146 842.018 69.3146 846.243 Q69.3146 850.467 72.6711 852.898 Q75.9986 855.299 81.8724 855.299 Z" fill="#000000" fill-rule="evenodd" fill-opacity="1" /><path clip-path="url(#clip330)" d="M81.7567 806.139 Q81.7567 812.591 83.2324 815.08 Q84.7081 817.568 88.2671 817.568 Q91.1027 817.568 92.781 815.716 Q94.4303 813.835 94.4303 810.624 Q94.4303 806.197 91.3053 803.535 Q88.1513 800.844 82.943 800.844 L81.7567 800.844 L81.7567 806.139 M79.5576 795.52 L98.0471 795.52 L98.0471 800.844 L93.1282 800.844 Q96.0795 802.666 97.4974 805.386 Q98.8862 808.106 98.8862 812.041 Q98.8862 817.018 96.1085 819.97 Q93.3018 822.892 88.6143 822.892 Q83.1456 822.892 80.3678 819.246 Q77.5901 815.572 77.5901 808.309 L77.5901 800.844 L77.0692 800.844 Q73.3945 800.844 71.398 803.274 Q69.3725 805.676 69.3725 810.045 Q69.3725 812.823 70.038 815.456 Q70.7035 818.089 72.0345 820.519 L67.1156 820.519 Q65.9871 817.597 65.4374 814.848 Q64.8586 812.099 64.8586 809.495 Q64.8586 802.464 68.5045 798.992 Q72.1503 795.52 79.5576 795.52 Z" fill="#000000" fill-rule="evenodd" fill-opacity="1" /><path clip-path="url(#clip330)" d="M78.487 757.615 L98.0471 757.615 L98.0471 762.939 L78.6607 762.939 Q74.06 762.939 71.7741 764.733 Q69.4883 766.527 69.4883 770.115 Q69.4883 774.426 72.2371 776.914 Q74.9859 779.403 79.7313 779.403 L98.0471 779.403 L98.0471 784.756 L65.6399 784.756 L65.6399 779.403 L70.6746 779.403 Q67.7522 777.493 66.3054 774.918 Q64.8586 772.314 64.8586 768.928 Q64.8586 763.344 68.3309 760.479 Q71.7741 757.615 78.487 757.615 Z" fill="#000000" fill-rule="evenodd" fill-opacity="1" /><path clip-path="url(#clip330)" d="M66.8841 723.674 L71.8609 723.674 Q70.6167 725.931 70.0091 728.217 Q69.3725 730.474 69.3725 732.788 Q69.3725 737.968 72.6711 740.832 Q75.9408 743.697 81.8724 743.697 Q87.8041 743.697 91.1027 740.832 Q94.3724 737.968 94.3724 732.788 Q94.3724 730.474 93.7647 728.217 Q93.1282 725.931 91.884 723.674 L96.8029 723.674 Q97.8446 725.902 98.3654 728.303 Q98.8862 730.676 98.8862 733.367 Q98.8862 740.688 94.2856 744.999 Q89.6849 749.31 81.8724 749.31 Q73.9442 749.31 69.4014 744.97 Q64.8586 740.601 64.8586 733.02 Q64.8586 730.56 65.3795 728.217 Q65.8714 725.873 66.8841 723.674 Z" fill="#000000" fill-rule="evenodd" fill-opacity="1" /><path clip-path="url(#clip330)" d="M80.5125 686.695 L83.1167 686.695 L83.1167 711.174 Q88.6143 710.827 91.5078 707.875 Q94.3724 704.895 94.3724 699.6 Q94.3724 696.533 93.6201 693.668 Q92.8678 690.775 91.3631 687.939 L96.3978 687.939 Q97.6131 690.804 98.2497 693.813 Q98.8862 696.822 98.8862 699.918 Q98.8862 707.673 94.3724 712.216 Q89.8585 716.729 82.1618 716.729 Q74.2047 716.729 69.5461 712.447 Q64.8586 708.136 64.8586 700.844 Q64.8586 694.305 69.0832 690.514 Q73.2787 686.695 80.5125 686.695 M78.95 692.019 Q74.5808 692.077 71.9767 694.478 Q69.3725 696.851 69.3725 700.786 Q69.3725 705.242 71.8899 707.933 Q74.4072 710.595 78.9789 711 L78.95 692.019 Z" fill="#000000" fill-rule="evenodd" fill-opacity="1" /><path clip-path="url(#clip330)" d="M53.0821 646.331 Q59.7371 650.208 66.2475 652.089 Q72.7579 653.969 79.4419 653.969 Q86.1259 653.969 92.6941 652.089 Q99.2335 650.179 105.86 646.331 L105.86 650.96 Q99.0599 655.3 92.4916 657.47 Q85.9234 659.612 79.4419 659.612 Q72.9894 659.612 66.4501 657.47 Q59.9108 655.329 53.0821 650.96 L53.0821 646.331 Z" fill="#000000" fill-rule="evenodd" fill-opacity="1" /><path clip-path="url(#clip330)" d="M93.186 630.85 L110.373 630.85 L110.373 636.203 L65.6399 636.203 L65.6399 630.85 L70.5589 630.85 Q67.6653 629.172 66.2765 626.626 Q64.8586 624.051 64.8586 620.492 Q64.8586 614.589 69.5461 610.914 Q74.2336 607.21 81.8724 607.21 Q89.5113 607.21 94.1988 610.914 Q98.8862 614.589 98.8862 620.492 Q98.8862 624.051 97.4974 626.626 Q96.0795 629.172 93.186 630.85 M81.8724 612.737 Q75.9986 612.737 72.6711 615.167 Q69.3146 617.569 69.3146 621.794 Q69.3146 626.018 72.6711 628.449 Q75.9986 630.85 81.8724 630.85 Q87.7463 630.85 91.1027 628.449 Q94.4303 626.018 94.4303 621.794 Q94.4303 617.569 91.1027 615.167 Q87.7463 612.737 81.8724 612.737 Z" fill="#000000" fill-rule="evenodd" fill-opacity="1" /><path clip-path="url(#clip330)" d="M80.5125 570.665 L83.1167 570.665 L83.1167 595.144 Q88.6143 594.797 91.5078 591.846 Q94.3724 588.866 94.3724 583.57 Q94.3724 580.503 93.6201 577.639 Q92.8678 574.745 91.3631 571.91 L96.3978 571.91 Q97.6131 574.774 98.2497 577.783 Q98.8862 580.793 98.8862 583.889 Q98.8862 591.643 94.3724 596.186 Q89.8585 600.7 82.1618 600.7 Q74.2047 600.7 69.5461 596.418 Q64.8586 592.106 64.8586 584.815 Q64.8586 578.275 69.0832 574.485 Q73.2787 570.665 80.5125 570.665 M78.95 575.989 Q74.5808 576.047 71.9767 578.449 Q69.3725 580.822 69.3725 584.757 Q69.3725 589.213 71.8899 591.904 Q74.4072 594.566 78.9789 594.971 L78.95 575.989 Z" fill="#000000" fill-rule="evenodd" fill-opacity="1" /><path clip-path="url(#clip330)" d="M69.3725 549.369 Q69.3725 553.652 72.729 556.14 Q76.0565 558.628 81.8724 558.628 Q87.6884 558.628 91.0449 556.169 Q94.3724 553.681 94.3724 549.369 Q94.3724 545.116 91.0159 542.627 Q87.6595 540.139 81.8724 540.139 Q76.1144 540.139 72.7579 542.627 Q69.3725 545.116 69.3725 549.369 M64.8586 549.369 Q64.8586 542.425 69.3725 538.461 Q73.8864 534.497 81.8724 534.497 Q89.8296 534.497 94.3724 538.461 Q98.8862 542.425 98.8862 549.369 Q98.8862 556.343 94.3724 560.307 Q89.8296 564.242 81.8724 564.242 Q73.8864 564.242 69.3725 560.307 Q64.8586 556.343 64.8586 549.369 Z" fill="#000000" fill-rule="evenodd" fill-opacity="1" /><path clip-path="url(#clip330)" d="M93.186 520.521 L110.373 520.521 L110.373 525.874 L65.6399 525.874 L65.6399 520.521 L70.5589 520.521 Q67.6653 518.843 66.2765 516.296 Q64.8586 513.721 64.8586 510.162 Q64.8586 504.26 69.5461 500.585 Q74.2336 496.881 81.8724 496.881 Q89.5113 496.881 94.1988 500.585 Q98.8862 504.26 98.8862 510.162 Q98.8862 513.721 97.4974 516.296 Q96.0795 518.843 93.186 520.521 M81.8724 502.408 Q75.9986 502.408 72.6711 504.838 Q69.3146 507.24 69.3146 511.464 Q69.3146 515.689 72.6711 518.119 Q75.9986 520.521 81.8724 520.521 Q87.7463 520.521 91.1027 518.119 Q94.4303 515.689 94.4303 511.464 Q94.4303 507.24 91.1027 504.838 Q87.7463 502.408 81.8724 502.408 Z" fill="#000000" fill-rule="evenodd" fill-opacity="1" /><path clip-path="url(#clip330)" d="M53.0242 488.056 L53.0242 482.732 L98.0471 482.732 L98.0471 488.056 L53.0242 488.056 Z" fill="#000000" fill-rule="evenodd" fill-opacity="1" /><path clip-path="url(#clip330)" d="M80.5125 443.872 L83.1167 443.872 L83.1167 468.351 Q88.6143 468.004 91.5078 465.053 Q94.3724 462.072 94.3724 456.777 Q94.3724 453.71 93.6201 450.845 Q92.8678 447.952 91.3631 445.116 L96.3978 445.116 Q97.6131 447.981 98.2497 450.99 Q98.8862 453.999 98.8862 457.095 Q98.8862 464.85 94.3724 469.393 Q89.8585 473.907 82.1618 473.907 Q74.2047 473.907 69.5461 469.624 Q64.8586 465.313 64.8586 458.021 Q64.8586 451.482 69.0832 447.692 Q73.2787 443.872 80.5125 443.872 M78.95 449.196 Q74.5808 449.254 71.9767 451.656 Q69.3725 454.028 69.3725 457.963 Q69.3725 462.419 71.8899 465.11 Q74.4072 467.772 78.9789 468.178 L78.95 449.196 Z" fill="#000000" fill-rule="evenodd" fill-opacity="1" /><path clip-path="url(#clip330)" d="M53.0821 435.973 L53.0821 431.343 Q59.9108 427.003 66.4501 424.862 Q72.9894 422.692 79.4419 422.692 Q85.9234 422.692 92.4916 424.862 Q99.0599 427.003 105.86 431.343 L105.86 435.973 Q99.2335 432.124 92.6941 430.244 Q86.1259 428.334 79.4419 428.334 Q72.7579 428.334 66.2475 430.244 Q59.7371 432.124 53.0821 435.973 Z" fill="#000000" fill-rule="evenodd" fill-opacity="1" /><path clip-path="url(#clip330)" d="M698.883 72.576 L675.792 12.096 L684.34 12.096 L703.501 63.0159 L722.702 12.096 L731.209 12.096 L708.159 72.576 L698.883 72.576 Z" fill="#000000" fill-rule="evenodd" fill-opacity="1" /><path clip-path="url(#clip330)" d="M768.72 44.2197 Q771.353 45.1109 773.824 48.0275 Q776.336 50.9442 778.847 56.0483 L787.152 72.576 L778.361 72.576 L770.624 57.061 Q767.626 50.9847 764.791 48.9997 Q761.996 47.0148 757.135 47.0148 L748.223 47.0148 L748.223 72.576 L740.04 72.576 L740.04 12.096 L758.512 12.096 Q768.882 12.096 773.986 16.4305 Q779.09 20.7649 779.09 29.5149 Q779.09 35.2267 776.417 38.994 Q773.784 42.7613 768.72 44.2197 M748.223 18.8205 L748.223 40.2903 L758.512 40.2903 Q764.426 40.2903 767.424 37.5762 Q770.462 34.8216 770.462 29.5149 Q770.462 24.2082 767.424 21.5346 Q764.426 18.8205 758.512 18.8205 L748.223 18.8205 Z" fill="#000000" fill-rule="evenodd" fill-opacity="1" /><path clip-path="url(#clip330)" d="M805.867 18.8205 L805.867 41.5461 L816.156 41.5461 Q821.868 41.5461 824.987 38.5889 Q828.106 35.6318 828.106 30.163 Q828.106 24.7348 824.987 21.7777 Q821.868 18.8205 816.156 18.8205 L805.867 18.8205 M797.684 12.096 L816.156 12.096 Q826.324 12.096 831.509 16.714 Q836.735 21.2916 836.735 30.163 Q836.735 39.1155 831.509 43.6931 Q826.324 48.2706 816.156 48.2706 L805.867 48.2706 L805.867 72.576 L797.684 72.576 L797.684 12.096 Z" fill="#000000" fill-rule="evenodd" fill-opacity="1" /><path clip-path="url(#clip330)" d="M874.084 12.096 L912.325 12.096 L912.325 18.9825 L882.267 18.9825 L882.267 36.8875 L911.069 36.8875 L911.069 43.7741 L882.267 43.7741 L882.267 65.6895 L913.054 65.6895 L913.054 72.576 L874.084 72.576 L874.084 12.096 Z" fill="#000000" fill-rule="evenodd" fill-opacity="1" /><path clip-path="url(#clip330)" d="M961.503 35.9153 Q964.298 30.8922 968.187 28.5022 Q972.076 26.1121 977.342 26.1121 Q984.431 26.1121 988.279 31.0947 Q992.127 36.0368 992.127 45.1919 L992.127 72.576 L984.633 72.576 L984.633 45.4349 Q984.633 38.913 982.324 35.7533 Q980.015 32.5936 975.276 32.5936 Q969.483 32.5936 966.121 36.4419 Q962.758 40.2903 962.758 46.9338 L962.758 72.576 L955.264 72.576 L955.264 45.4349 Q955.264 38.8725 952.955 35.7533 Q950.646 32.5936 945.826 32.5936 Q940.114 32.5936 936.752 36.4824 Q933.389 40.3308 933.389 46.9338 L933.389 72.576 L925.895 72.576 L925.895 27.2059 L933.389 27.2059 L933.389 34.2544 Q935.941 30.082 939.506 28.0971 Q943.071 26.1121 947.973 26.1121 Q952.915 26.1121 956.358 28.6237 Q959.842 31.1352 961.503 35.9153 Z" fill="#000000" fill-rule="evenodd" fill-opacity="1" /><path clip-path="url(#clip330)" d="M1006.99 27.2059 L1014.45 27.2059 L1014.45 72.576 L1006.99 72.576 L1006.99 27.2059 M1006.99 9.54393 L1014.45 9.54393 L1014.45 18.9825 L1006.99 18.9825 L1006.99 9.54393 Z" fill="#000000" fill-rule="evenodd" fill-opacity="1" /><path clip-path="url(#clip330)" d="M1058.97 28.5427 L1058.97 35.5912 Q1055.81 33.9709 1052.4 33.1607 Q1049 32.3505 1045.36 32.3505 Q1039.81 32.3505 1037.01 34.0519 Q1034.26 35.7533 1034.26 39.156 Q1034.26 41.7486 1036.24 43.2475 Q1038.23 44.7058 1044.22 46.0426 L1046.77 46.6097 Q1054.71 48.3111 1058.04 51.4303 Q1061.4 54.509 1061.4 60.0587 Q1061.4 66.3781 1056.37 70.0644 Q1051.39 73.7508 1042.64 73.7508 Q1039 73.7508 1035.03 73.0216 Q1031.1 72.3329 1026.72 70.9151 L1026.72 63.2184 Q1030.85 65.3654 1034.86 66.4591 Q1038.87 67.5124 1042.8 67.5124 Q1048.07 67.5124 1050.91 65.73 Q1053.74 63.9071 1053.74 60.6258 Q1053.74 57.5877 1051.68 55.9673 Q1049.65 54.3469 1042.72 52.8481 L1040.13 52.2405 Q1033.2 50.7821 1030.12 47.7845 Q1027.05 44.7463 1027.05 39.4801 Q1027.05 33.0797 1031.58 29.5959 Q1036.12 26.1121 1044.47 26.1121 Q1048.6 26.1121 1052.24 26.7198 Q1055.89 27.3274 1058.97 28.5427 Z" fill="#000000" fill-rule="evenodd" fill-opacity="1" /><path clip-path="url(#clip330)" d="M1102.19 28.5427 L1102.19 35.5912 Q1099.03 33.9709 1095.63 33.1607 Q1092.23 32.3505 1088.58 32.3505 Q1083.03 32.3505 1080.23 34.0519 Q1077.48 35.7533 1077.48 39.156 Q1077.48 41.7486 1079.46 43.2475 Q1081.45 44.7058 1087.45 46.0426 L1090 46.6097 Q1097.94 48.3111 1101.26 51.4303 Q1104.62 54.509 1104.62 60.0587 Q1104.62 66.3781 1099.6 70.0644 Q1094.62 73.7508 1085.87 73.7508 Q1082.22 73.7508 1078.25 73.0216 Q1074.32 72.3329 1069.95 70.9151 L1069.95 63.2184 Q1074.08 65.3654 1078.09 66.4591 Q1082.1 67.5124 1086.03 67.5124 Q1091.29 67.5124 1094.13 65.73 Q1096.96 63.9071 1096.96 60.6258 Q1096.96 57.5877 1094.9 55.9673 Q1092.87 54.3469 1085.95 52.8481 L1083.35 52.2405 Q1076.43 50.7821 1073.35 47.7845 Q1070.27 44.7463 1070.27 39.4801 Q1070.27 33.0797 1074.81 29.5959 Q1079.34 26.1121 1087.69 26.1121 Q1091.82 26.1121 1095.47 26.7198 Q1099.11 27.3274 1102.19 28.5427 Z" fill="#000000" fill-rule="evenodd" fill-opacity="1" /><path clip-path="url(#clip330)" d="M1116.49 27.2059 L1123.94 27.2059 L1123.94 72.576 L1116.49 72.576 L1116.49 27.2059 M1116.49 9.54393 L1123.94 9.54393 L1123.94 18.9825 L1116.49 18.9825 L1116.49 9.54393 Z" fill="#000000" fill-rule="evenodd" fill-opacity="1" /><path clip-path="url(#clip330)" d="M1157.12 32.4315 Q1151.13 32.4315 1147.64 37.1306 Q1144.16 41.7891 1144.16 49.9314 Q1144.16 58.0738 1147.6 62.7728 Q1151.08 67.4314 1157.12 67.4314 Q1163.08 67.4314 1166.56 62.7323 Q1170.04 58.0333 1170.04 49.9314 Q1170.04 41.8701 1166.56 37.1711 Q1163.08 32.4315 1157.12 32.4315 M1157.12 26.1121 Q1166.84 26.1121 1172.39 32.4315 Q1177.94 38.7509 1177.94 49.9314 Q1177.94 61.0714 1172.39 67.4314 Q1166.84 73.7508 1157.12 73.7508 Q1147.36 73.7508 1141.81 67.4314 Q1136.3 61.0714 1136.3 49.9314 Q1136.3 38.7509 1141.81 32.4315 Q1147.36 26.1121 1157.12 26.1121 Z" fill="#000000" fill-rule="evenodd" fill-opacity="1" /><path clip-path="url(#clip330)" d="M1228.01 45.1919 L1228.01 72.576 L1220.56 72.576 L1220.56 45.4349 Q1220.56 38.994 1218.05 35.7938 Q1215.53 32.5936 1210.51 32.5936 Q1204.48 32.5936 1200.99 36.4419 Q1197.51 40.2903 1197.51 46.9338 L1197.51 72.576 L1190.01 72.576 L1190.01 27.2059 L1197.51 27.2059 L1197.51 34.2544 Q1200.18 30.163 1203.79 28.1376 Q1207.43 26.1121 1212.17 26.1121 Q1219.99 26.1121 1224 30.9732 Q1228.01 35.7938 1228.01 45.1919 Z" fill="#000000" fill-rule="evenodd" fill-opacity="1" /><path clip-path="url(#clip330)" d="M1271.8 28.5427 L1271.8 35.5912 Q1268.64 33.9709 1265.24 33.1607 Q1261.84 32.3505 1258.19 32.3505 Q1252.64 32.3505 1249.85 34.0519 Q1247.09 35.7533 1247.09 39.156 Q1247.09 41.7486 1249.08 43.2475 Q1251.06 44.7058 1257.06 46.0426 L1259.61 46.6097 Q1267.55 48.3111 1270.87 51.4303 Q1274.23 54.509 1274.23 60.0587 Q1274.23 66.3781 1269.21 70.0644 Q1264.23 73.7508 1255.48 73.7508 Q1251.83 73.7508 1247.86 73.0216 Q1243.93 72.3329 1239.56 70.9151 L1239.56 63.2184 Q1243.69 65.3654 1247.7 66.4591 Q1251.71 67.5124 1255.64 67.5124 Q1260.9 67.5124 1263.74 65.73 Q1266.58 63.9071 1266.58 60.6258 Q1266.58 57.5877 1264.51 55.9673 Q1262.48 54.3469 1255.56 52.8481 L1252.97 52.2405 Q1246.04 50.7821 1242.96 47.7845 Q1239.88 44.7463 1239.88 39.4801 Q1239.88 33.0797 1244.42 29.5959 Q1248.95 26.1121 1257.3 26.1121 Q1261.43 26.1121 1265.08 26.7198 Q1268.72 27.3274 1271.8 28.5427 Z" fill="#000000" fill-rule="evenodd" fill-opacity="1" /><path clip-path="url(#clip330)" d="M1307.13 27.2059 L1315.03 27.2059 L1329.2 65.2844 L1343.38 27.2059 L1351.28 27.2059 L1334.27 72.576 L1324.14 72.576 L1307.13 27.2059 Z" fill="#000000" fill-rule="evenodd" fill-opacity="1" /><path clip-path="url(#clip330)" d="M1390.49 28.5427 L1390.49 35.5912 Q1387.33 33.9709 1383.93 33.1607 Q1380.53 32.3505 1376.88 32.3505 Q1371.33 32.3505 1368.54 34.0519 Q1365.78 35.7533 1365.78 39.156 Q1365.78 41.7486 1367.77 43.2475 Q1369.75 44.7058 1375.75 46.0426 L1378.3 46.6097 Q1386.24 48.3111 1389.56 51.4303 Q1392.92 54.509 1392.92 60.0587 Q1392.92 66.3781 1387.9 70.0644 Q1382.92 73.7508 1374.17 73.7508 Q1370.52 73.7508 1366.55 73.0216 Q1362.62 72.3329 1358.25 70.9151 L1358.25 63.2184 Q1362.38 65.3654 1366.39 66.4591 Q1370.4 67.5124 1374.33 67.5124 Q1379.6 67.5124 1382.43 65.73 Q1385.27 63.9071 1385.27 60.6258 Q1385.27 57.5877 1383.2 55.9673 Q1381.18 54.3469 1374.25 52.8481 L1371.66 52.2405 Q1364.73 50.7821 1361.65 47.7845 Q1358.57 44.7463 1358.57 39.4801 Q1358.57 33.0797 1363.11 29.5959 Q1367.65 26.1121 1375.99 26.1121 Q1380.12 26.1121 1383.77 26.7198 Q1387.41 27.3274 1390.49 28.5427 Z" fill="#000000" fill-rule="evenodd" fill-opacity="1" /><path clip-path="url(#clip330)" d="M1451.7 20.1573 L1440.6 50.2555 L1462.84 50.2555 L1451.7 20.1573 M1447.08 12.096 L1456.36 12.096 L1479.41 72.576 L1470.9 72.576 L1465.39 57.061 L1438.13 57.061 L1432.62 72.576 L1423.99 72.576 L1447.08 12.096 Z" fill="#000000" fill-rule="evenodd" fill-opacity="1" /><path clip-path="url(#clip330)" d="M1493.83 14.324 L1493.83 27.2059 L1509.18 27.2059 L1509.18 32.9987 L1493.83 32.9987 L1493.83 57.6282 Q1493.83 63.1779 1495.33 64.7578 Q1496.87 66.3376 1501.53 66.3376 L1509.18 66.3376 L1509.18 72.576 L1501.53 72.576 Q1492.9 72.576 1489.62 69.3758 Q1486.34 66.1351 1486.34 57.6282 L1486.34 32.9987 L1480.87 32.9987 L1480.87 27.2059 L1486.34 27.2059 L1486.34 14.324 L1493.83 14.324 Z" fill="#000000" fill-rule="evenodd" fill-opacity="1" /><path clip-path="url(#clip330)" d="M1526.36 14.324 L1526.36 27.2059 L1541.71 27.2059 L1541.71 32.9987 L1526.36 32.9987 L1526.36 57.6282 Q1526.36 63.1779 1527.86 64.7578 Q1529.4 66.3376 1534.06 66.3376 L1541.71 66.3376 L1541.71 72.576 L1534.06 72.576 Q1525.43 72.576 1522.15 69.3758 Q1518.87 66.1351 1518.87 57.6282 L1518.87 32.9987 L1513.4 32.9987 L1513.4 27.2059 L1518.87 27.2059 L1518.87 14.324 L1526.36 14.324 Z" fill="#000000" fill-rule="evenodd" fill-opacity="1" /><path clip-path="url(#clip330)" d="M1590.32 48.0275 L1590.32 51.6733 L1556.05 51.6733 Q1556.54 59.3701 1560.67 63.421 Q1564.84 67.4314 1572.26 67.4314 Q1576.55 67.4314 1580.56 66.3781 Q1584.61 65.3249 1588.58 63.2184 L1588.58 70.267 Q1584.57 71.9684 1580.36 72.8596 Q1576.15 73.7508 1571.81 73.7508 Q1560.96 73.7508 1554.6 67.4314 Q1548.28 61.1119 1548.28 50.3365 Q1548.28 39.1965 1554.27 32.6746 Q1560.31 26.1121 1570.52 26.1121 Q1579.67 26.1121 1584.98 32.0264 Q1590.32 37.9003 1590.32 48.0275 M1582.87 45.84 Q1582.79 39.7232 1579.43 36.0774 Q1576.11 32.4315 1570.6 32.4315 Q1564.36 32.4315 1560.59 35.9558 Q1556.86 39.4801 1556.3 45.8805 L1582.87 45.84 Z" fill="#000000" fill-rule="evenodd" fill-opacity="1" /><path clip-path="url(#clip330)" d="M1640.27 45.1919 L1640.27 72.576 L1632.82 72.576 L1632.82 45.4349 Q1632.82 38.994 1630.31 35.7938 Q1627.8 32.5936 1622.77 32.5936 Q1616.74 32.5936 1613.25 36.4419 Q1609.77 40.2903 1609.77 46.9338 L1609.77 72.576 L1602.27 72.576 L1602.27 27.2059 L1609.77 27.2059 L1609.77 34.2544 Q1612.44 30.163 1616.05 28.1376 Q1619.69 26.1121 1624.43 26.1121 Q1632.25 26.1121 1636.26 30.9732 Q1640.27 35.7938 1640.27 45.1919 Z" fill="#000000" fill-rule="evenodd" fill-opacity="1" /><path clip-path="url(#clip330)" d="M1684.99 34.0924 L1684.99 9.54393 L1692.45 9.54393 L1692.45 72.576 L1684.99 72.576 L1684.99 65.7705 Q1682.64 69.8214 1679.04 71.8063 Q1675.47 73.7508 1670.45 73.7508 Q1662.23 73.7508 1657.04 67.1883 Q1651.9 60.6258 1651.9 49.9314 Q1651.9 39.2371 1657.04 32.6746 Q1662.23 26.1121 1670.45 26.1121 Q1675.47 26.1121 1679.04 28.0971 Q1682.64 30.0415 1684.99 34.0924 M1659.59 49.9314 Q1659.59 58.1548 1662.96 62.8538 Q1666.36 67.5124 1672.27 67.5124 Q1678.19 67.5124 1681.59 62.8538 Q1684.99 58.1548 1684.99 49.9314 Q1684.99 41.7081 1681.59 37.0496 Q1678.19 32.3505 1672.27 32.3505 Q1666.36 32.3505 1662.96 37.0496 Q1659.59 41.7081 1659.59 49.9314 Z" fill="#000000" fill-rule="evenodd" fill-opacity="1" /><path clip-path="url(#clip330)" d="M1728.42 49.7694 Q1719.39 49.7694 1715.9 51.8354 Q1712.42 53.9013 1712.42 58.8839 Q1712.42 62.8538 1715.01 65.2034 Q1717.64 67.5124 1722.14 67.5124 Q1728.34 67.5124 1732.07 63.1374 Q1735.83 58.7219 1735.83 51.4303 L1735.83 49.7694 L1728.42 49.7694 M1743.29 46.6907 L1743.29 72.576 L1735.83 72.576 L1735.83 65.6895 Q1733.28 69.8214 1729.47 71.8063 Q1725.67 73.7508 1720.16 73.7508 Q1713.19 73.7508 1709.06 69.8619 Q1704.97 65.9325 1704.97 59.3701 Q1704.97 51.7138 1710.07 47.825 Q1715.21 43.9361 1725.38 43.9361 L1735.83 43.9361 L1735.83 43.2069 Q1735.83 38.0623 1732.43 35.2672 Q1729.07 32.4315 1722.95 32.4315 Q1719.06 32.4315 1715.38 33.3632 Q1711.69 34.295 1708.29 36.1584 L1708.29 29.2718 Q1712.38 27.692 1716.23 26.9223 Q1720.07 26.1121 1723.72 26.1121 Q1733.56 26.1121 1738.43 31.2163 Q1743.29 36.3204 1743.29 46.6907 Z" fill="#000000" fill-rule="evenodd" fill-opacity="1" /><path clip-path="url(#clip330)" d="M1796.35 45.1919 L1796.35 72.576 L1788.9 72.576 L1788.9 45.4349 Q1788.9 38.994 1786.39 35.7938 Q1783.88 32.5936 1778.85 32.5936 Q1772.82 32.5936 1769.33 36.4419 Q1765.85 40.2903 1765.85 46.9338 L1765.85 72.576 L1758.36 72.576 L1758.36 27.2059 L1765.85 27.2059 L1765.85 34.2544 Q1768.52 30.163 1772.13 28.1376 Q1775.77 26.1121 1780.51 26.1121 Q1788.33 26.1121 1792.34 30.9732 Q1796.35 35.7938 1796.35 45.1919 Z" fill="#000000" fill-rule="evenodd" fill-opacity="1" /><path clip-path="url(#clip330)" d="M1843.87 28.9478 L1843.87 35.9153 Q1840.71 34.1734 1837.51 33.3227 Q1834.35 32.4315 1831.11 32.4315 Q1823.86 32.4315 1819.85 37.0496 Q1815.84 41.6271 1815.84 49.9314 Q1815.84 58.2358 1819.85 62.8538 Q1823.86 67.4314 1831.11 67.4314 Q1834.35 67.4314 1837.51 66.5807 Q1840.71 65.6895 1843.87 63.9476 L1843.87 70.8341 Q1840.75 72.2924 1837.39 73.0216 Q1834.07 73.7508 1830.3 73.7508 Q1820.05 73.7508 1814.02 67.3098 Q1807.98 60.8689 1807.98 49.9314 Q1807.98 38.832 1814.06 32.472 Q1820.17 26.1121 1830.79 26.1121 Q1834.23 26.1121 1837.51 26.8413 Q1840.79 27.5299 1843.87 28.9478 Z" fill="#000000" fill-rule="evenodd" fill-opacity="1" /><path clip-path="url(#clip330)" d="M1895.64 48.0275 L1895.64 51.6733 L1861.37 51.6733 Q1861.86 59.3701 1865.99 63.421 Q1870.16 67.4314 1877.57 67.4314 Q1881.87 67.4314 1885.88 66.3781 Q1889.93 65.3249 1893.9 63.2184 L1893.9 70.267 Q1889.89 71.9684 1885.68 72.8596 Q1881.46 73.7508 1877.13 73.7508 Q1866.27 73.7508 1859.91 67.4314 Q1853.59 61.1119 1853.59 50.3365 Q1853.59 39.1965 1859.59 32.6746 Q1865.62 26.1121 1875.83 26.1121 Q1884.99 26.1121 1890.29 32.0264 Q1895.64 37.9003 1895.64 48.0275 M1888.19 45.84 Q1888.11 39.7232 1884.74 36.0774 Q1881.42 32.4315 1875.91 32.4315 Q1869.67 32.4315 1865.91 35.9558 Q1862.18 39.4801 1861.61 45.8805 L1888.19 45.84 Z" fill="#000000" fill-rule="evenodd" fill-opacity="1" /><polyline clip-path="url(#clip332)" style="stroke:#009af9; stroke-linecap:round; stroke-linejoin:round; stroke-width:4; stroke-opacity:1; fill:none" points="
  497.469,1257.07 539.572,767.633 556.628,723.139 772.643,589.655 1053.77,456.171 
  1630.33,278.193 2073.96,189.204 
  "/>
</svg>
